<svg xmlns="http://www.w3.org/2000/svg" xmlns:xlink="http://www.w3.org/1999/xlink" width="500" zoomAndPan="magnify" viewBox="0 0 375 374.999991" height="500" preserveAspectRatio="xMidYMid meet" version="1.0"><defs><g/></defs><rect x="-37.5" width="450" fill="#ffffff" y="-37.499999" height="449.999989" fill-opacity="1"/><rect x="-37.5" width="450" fill="#ffffff" y="-37.499999" height="449.999989" fill-opacity="1"/><path fill="#545454" d="M 332.335938 125.558594 C 325.851562 118.355469 315.683594 114.710938 306.152344 114.160156 C 293.105469 112.464844 294.332031 120.941406 290.605469 130.429688 C 290.179688 130.597656 289.839844 130.980469 289.671875 131.445312 C 288.78125 135.511719 284.800781 141.234375 285.476562 145.128906 C 279.164062 160.464844 272.21875 175.71875 264.082031 190.207031 C 261.796875 194.230469 259.507812 198.339844 258.195312 202.789062 C 257.644531 203.171875 257.136719 203.847656 257.136719 204.527344 C 258.023438 215.667969 259 226.894531 261.753906 237.742188 C 263.871094 241.34375 273.699219 234.480469 276.371094 232.996094 C 281.070312 229.945312 286.367188 227.742188 290.984375 224.609375 C 297.214844 221.683594 298.1875 213.636719 301.492188 208.210938 C 309.203125 191.351562 317.804688 174.445312 324.371094 157.203125 C 326.105469 154.367188 328.054688 151.273438 327.757812 147.800781 C 332.207031 141.65625 337.417969 132.71875 332.335938 125.558594 Z M 275.902344 173.855469 C 278.105469 169.277344 280.011719 164.617188 282.171875 160 C 283.824219 155.804688 288.527344 149.453125 287.851562 145.089844 C 287.933594 145.003906 287.976562 144.917969 288.019531 144.792969 C 290.265625 145.765625 292.511719 146.65625 294.796875 147.503906 C 285.691406 167.667969 276.496094 187.792969 267.558594 208.042969 C 266.539062 205.375 264.082031 203.46875 261.289062 202.917969 C 265.058594 192.75 271.792969 183.9375 275.902344 173.855469 Z M 296.492188 148.179688 C 300.6875 149.789062 304.921875 151.316406 309.117188 152.882812 C 305.472656 162.882812 299.96875 172.03125 295.5625 181.691406 C 290.308594 191.859375 286.664062 202.832031 281.113281 212.789062 C 278.828125 208.464844 272.726562 206.984375 268.742188 209.863281 C 277.808594 189.234375 287.128906 168.683594 296.492188 148.179688 Z M 289.121094 222.40625 C 285.265625 224.691406 281.242188 226.726562 277.34375 228.929688 C 272.640625 226.007812 267.304688 223.972656 261.964844 222.617188 C 261.203125 217.023438 260.695312 211.390625 260.269531 205.714844 C 264.421875 206.179688 265.863281 210.542969 265.480469 214.1875 C 265.398438 215.625 267.601562 216.261719 268.234375 214.949219 C 268.871094 213.59375 269.929688 212.363281 271.371094 211.769531 C 274.25 210.542969 277.765625 212.109375 278.910156 214.992188 C 279.503906 216.050781 279.039062 217.660156 280.140625 218.421875 C 280.859375 218.847656 281.621094 218.507812 282.171875 218 C 286.324219 214.3125 289.164062 217.957031 289.25 222.40625 C 289.164062 222.363281 289.121094 222.40625 289.121094 222.40625 Z M 320.726562 159.152344 C 311.195312 179.53125 302.890625 200.714844 291.960938 220.371094 C 291.578125 215.457031 286.664062 211.433594 282.132812 214.441406 C 287.214844 206.558594 289.757812 197.238281 294.121094 188.980469 C 299.332031 177.03125 306.152344 165.761719 310.769531 153.5625 C 314.328125 154.875 317.761719 156.484375 321.234375 157.925781 C 321.234375 157.925781 321.234375 157.925781 321.234375 157.96875 C 321.066406 158.347656 320.894531 158.773438 320.726562 159.152344 Z M 322.167969 155.214844 C 311.363281 150.085938 299.882812 146.738281 288.910156 141.996094 C 289.207031 141.105469 289.546875 140.214844 289.882812 139.367188 C 302.042969 140.511719 312.886719 147.375 323.648438 152.628906 C 323.183594 153.476562 322.675781 154.367188 322.167969 155.214844 Z M 324.707031 149.789062 C 313.90625 144.621094 303.144531 137.84375 290.984375 136.445312 C 291.367188 135.429688 291.789062 134.410156 292.128906 133.394531 C 296.449219 134.921875 300.179688 137.757812 304.628906 139.070312 C 309.03125 140.765625 313.523438 142.335938 317.886719 144.15625 C 320.21875 145.636719 325.9375 145.894531 324.707031 149.789062 Z M 293.65625 130.726562 C 294.121094 129.453125 294.5 128.140625 294.882812 126.828125 C 296.113281 123.691406 296.578125 119.5 299.417969 117.382812 C 305.855469 116.40625 312.675781 117.421875 318.734375 119.921875 C 332.714844 125.640625 335.089844 132.335938 326.277344 144.875 C 315.855469 139.242188 304.035156 136.445312 293.65625 130.726562 Z M 257.558594 243.121094 C 252.519531 245.367188 247.222656 247.273438 242.433594 250.027344 C 232.691406 256.425781 219.089844 262.523438 224.21875 244.054688 C 219.21875 244.648438 215.152344 247.867188 210.574219 249.773438 C 184.054688 259.390625 216.421875 230.921875 189.054688 241.894531 C 187.699219 242.316406 185.835938 243.925781 184.773438 242.273438 C 184.394531 241.597656 184.5625 240.496094 185.324219 240.15625 C 194.941406 235.242188 208.839844 232.742188 202.484375 248.542969 C 207.90625 250.195312 230.574219 232.445312 227.054688 245.917969 C 222.691406 259.941406 235.148438 250.535156 240.996094 247.359375 C 245.78125 244.648438 250.992188 242.742188 255.992188 240.539062 C 257.730469 239.4375 259.296875 242.148438 257.558594 243.121094 Z M 257.558594 243.121094 " fill-opacity="1" fill-rule="nonzero"/><g fill="#545454" fill-opacity="1"><g transform="translate(37.204624, 223.38227)"><g><path d="M 24.421875 -27.578125 C 24.242188 -29.191406 23.515625 -30.453125 22.234375 -31.359375 C 20.953125 -32.265625 19.289062 -32.71875 17.25 -32.71875 C 15.8125 -32.71875 14.578125 -32.5 13.546875 -32.0625 C 12.523438 -31.625 11.738281 -31.035156 11.1875 -30.296875 C 10.644531 -29.554688 10.367188 -28.707031 10.359375 -27.75 C 10.359375 -26.957031 10.539062 -26.269531 10.90625 -25.6875 C 11.269531 -25.113281 11.765625 -24.625 12.390625 -24.21875 C 13.023438 -23.8125 13.726562 -23.472656 14.5 -23.203125 C 15.269531 -22.929688 16.046875 -22.703125 16.828125 -22.515625 L 20.390625 -21.625 C 21.816406 -21.289062 23.195312 -20.835938 24.53125 -20.265625 C 25.863281 -19.703125 27.054688 -18.988281 28.109375 -18.125 C 29.171875 -17.257812 30.007812 -16.210938 30.625 -14.984375 C 31.25 -13.753906 31.5625 -12.316406 31.5625 -10.671875 C 31.5625 -8.441406 30.988281 -6.484375 29.84375 -4.796875 C 28.707031 -3.109375 27.066406 -1.789062 24.921875 -0.84375 C 22.773438 0.101562 20.179688 0.578125 17.140625 0.578125 C 14.179688 0.578125 11.613281 0.117188 9.4375 -0.796875 C 7.269531 -1.710938 5.578125 -3.046875 4.359375 -4.796875 C 3.140625 -6.554688 2.476562 -8.703125 2.375 -11.234375 L 9.15625 -11.234375 C 9.25 -9.910156 9.65625 -8.804688 10.375 -7.921875 C 11.09375 -7.046875 12.03125 -6.390625 13.1875 -5.953125 C 14.34375 -5.523438 15.640625 -5.3125 17.078125 -5.3125 C 18.578125 -5.3125 19.890625 -5.535156 21.015625 -5.984375 C 22.148438 -6.441406 23.039062 -7.070312 23.6875 -7.875 C 24.332031 -8.6875 24.660156 -9.640625 24.671875 -10.734375 C 24.660156 -11.722656 24.367188 -12.539062 23.796875 -13.1875 C 23.234375 -13.84375 22.441406 -14.390625 21.421875 -14.828125 C 20.398438 -15.265625 19.207031 -15.65625 17.84375 -16 L 13.515625 -17.125 C 10.378906 -17.925781 7.90625 -19.144531 6.09375 -20.78125 C 4.28125 -22.425781 3.375 -24.609375 3.375 -27.328125 C 3.375 -29.566406 3.984375 -31.523438 5.203125 -33.203125 C 6.421875 -34.890625 8.082031 -36.203125 10.1875 -37.140625 C 12.289062 -38.078125 14.675781 -38.546875 17.34375 -38.546875 C 20.039062 -38.546875 22.40625 -38.078125 24.4375 -37.140625 C 26.476562 -36.203125 28.078125 -34.90625 29.234375 -33.25 C 30.398438 -31.601562 31.003906 -29.710938 31.046875 -27.578125 Z M 24.421875 -27.578125 "/></g></g></g><g fill="#545454" fill-opacity="1"><g transform="translate(69.146037, 223.38227)"><g><path d="M 17.6875 -28.515625 L 17.6875 -23.3125 L 1.296875 -23.3125 L 1.296875 -28.515625 Z M 5.34375 -35.34375 L 12.0625 -35.34375 L 12.0625 -8.578125 C 12.0625 -7.671875 12.203125 -6.976562 12.484375 -6.5 C 12.765625 -6.03125 13.132812 -5.707031 13.59375 -5.53125 C 14.050781 -5.351562 14.554688 -5.265625 15.109375 -5.265625 C 15.535156 -5.265625 15.921875 -5.296875 16.265625 -5.359375 C 16.617188 -5.421875 16.890625 -5.476562 17.078125 -5.53125 L 18.21875 -0.28125 C 17.851562 -0.15625 17.335938 -0.0195312 16.671875 0.125 C 16.015625 0.28125 15.210938 0.367188 14.265625 0.390625 C 12.578125 0.441406 11.054688 0.1875 9.703125 -0.375 C 8.359375 -0.9375 7.289062 -1.8125 6.5 -3 C 5.71875 -4.195312 5.332031 -5.6875 5.34375 -7.46875 Z M 5.34375 -35.34375 "/></g></g></g><g fill="#545454" fill-opacity="1"><g transform="translate(87.01884, 223.38227)"><g><path d="M 21.625 -12 L 21.625 -28.515625 L 28.34375 -28.515625 L 28.34375 0 L 21.828125 0 L 21.828125 -5.0625 L 21.53125 -5.0625 C 20.894531 -3.46875 19.84375 -2.160156 18.375 -1.140625 C 16.90625 -0.128906 15.097656 0.375 12.953125 0.375 C 11.085938 0.375 9.4375 -0.0390625 8 -0.875 C 6.570312 -1.71875 5.457031 -2.9375 4.65625 -4.53125 C 3.851562 -6.132812 3.453125 -8.078125 3.453125 -10.359375 L 3.453125 -28.515625 L 10.171875 -28.515625 L 10.171875 -11.40625 C 10.171875 -9.59375 10.664062 -8.15625 11.65625 -7.09375 C 12.644531 -6.03125 13.945312 -5.5 15.5625 -5.5 C 16.550781 -5.5 17.507812 -5.738281 18.4375 -6.21875 C 19.363281 -6.695312 20.125 -7.414062 20.71875 -8.375 C 21.320312 -9.34375 21.625 -10.550781 21.625 -12 Z M 21.625 -12 "/></g></g></g><g fill="#545454" fill-opacity="1"><g transform="translate(116.825839, 223.38227)"><g><path d="M 14.03125 0.5 C 11.789062 0.5 9.785156 -0.0703125 8.015625 -1.21875 C 6.242188 -2.375 4.84375 -4.046875 3.8125 -6.234375 C 2.789062 -8.429688 2.28125 -11.09375 2.28125 -14.21875 C 2.28125 -17.382812 2.800781 -20.0625 3.84375 -22.25 C 4.894531 -24.4375 6.3125 -26.085938 8.09375 -27.203125 C 9.875 -28.328125 11.859375 -28.890625 14.046875 -28.890625 C 15.722656 -28.890625 17.097656 -28.609375 18.171875 -28.046875 C 19.253906 -27.484375 20.109375 -26.804688 20.734375 -26.015625 C 21.367188 -25.234375 21.859375 -24.492188 22.203125 -23.796875 L 22.484375 -23.796875 L 22.484375 -38.015625 L 29.21875 -38.015625 L 29.21875 0 L 22.609375 0 L 22.609375 -4.5 L 22.203125 -4.5 C 21.859375 -3.800781 21.359375 -3.0625 20.703125 -2.28125 C 20.046875 -1.507812 19.175781 -0.851562 18.09375 -0.3125 C 17.019531 0.226562 15.664062 0.5 14.03125 0.5 Z M 15.90625 -5.015625 C 17.332031 -5.015625 18.546875 -5.398438 19.546875 -6.171875 C 20.546875 -6.941406 21.304688 -8.019531 21.828125 -9.40625 C 22.347656 -10.800781 22.609375 -12.421875 22.609375 -14.265625 C 22.609375 -16.109375 22.351562 -17.707031 21.84375 -19.0625 C 21.332031 -20.425781 20.578125 -21.484375 19.578125 -22.234375 C 18.578125 -22.992188 17.351562 -23.375 15.90625 -23.375 C 14.414062 -23.375 13.164062 -22.984375 12.15625 -22.203125 C 11.15625 -21.421875 10.398438 -20.34375 9.890625 -18.96875 C 9.390625 -17.59375 9.140625 -16.023438 9.140625 -14.265625 C 9.140625 -12.472656 9.394531 -10.878906 9.90625 -9.484375 C 10.414062 -8.097656 11.175781 -7.003906 12.1875 -6.203125 C 13.195312 -5.410156 14.4375 -5.015625 15.90625 -5.015625 Z M 15.90625 -5.015625 "/></g></g></g><g fill="#545454" fill-opacity="1"><g transform="translate(147.783565, 223.38227)"><g><path d="M 3.453125 0 L 3.453125 -28.515625 L 10.171875 -28.515625 L 10.171875 0 Z M 6.828125 -32.5625 C 5.765625 -32.5625 4.847656 -32.914062 4.078125 -33.625 C 3.316406 -34.34375 2.9375 -35.203125 2.9375 -36.203125 C 2.9375 -37.210938 3.316406 -38.070312 4.078125 -38.78125 C 4.847656 -39.5 5.765625 -39.859375 6.828125 -39.859375 C 7.910156 -39.859375 8.832031 -39.5 9.59375 -38.78125 C 10.351562 -38.070312 10.734375 -37.210938 10.734375 -36.203125 C 10.734375 -35.203125 10.351562 -34.34375 9.59375 -33.625 C 8.832031 -32.914062 7.910156 -32.5625 6.828125 -32.5625 Z M 6.828125 -32.5625 "/></g></g></g><g fill="#7ed957" fill-opacity="1"><g transform="translate(159.431182, 223.38227)"><g><path d="M 27.71875 -38.015625 L 34.609375 -38.015625 L 34.609375 -13.1875 C 34.609375 -10.457031 33.96875 -8.054688 32.6875 -5.984375 C 31.40625 -3.921875 29.601562 -2.3125 27.28125 -1.15625 C 24.96875 0 22.265625 0.578125 19.171875 0.578125 C 16.066406 0.578125 13.359375 0 11.046875 -1.15625 C 8.734375 -2.3125 6.9375 -3.921875 5.65625 -5.984375 C 4.382812 -8.054688 3.75 -10.457031 3.75 -13.1875 L 3.75 -38.015625 L 10.640625 -38.015625 L 10.640625 -13.75 C 10.640625 -12.164062 10.988281 -10.753906 11.6875 -9.515625 C 12.382812 -8.285156 13.367188 -7.316406 14.640625 -6.609375 C 15.921875 -5.910156 17.429688 -5.5625 19.171875 -5.5625 C 20.921875 -5.5625 22.4375 -5.910156 23.71875 -6.609375 C 25 -7.316406 25.984375 -8.285156 26.671875 -9.515625 C 27.367188 -10.753906 27.71875 -12.164062 27.71875 -13.75 Z M 27.71875 -38.015625 "/></g></g></g><g fill="#7ed957" fill-opacity="1"><g transform="translate(195.789923, 223.38227)"><g><path d="M 24.421875 -27.578125 C 24.242188 -29.191406 23.515625 -30.453125 22.234375 -31.359375 C 20.953125 -32.265625 19.289062 -32.71875 17.25 -32.71875 C 15.8125 -32.71875 14.578125 -32.5 13.546875 -32.0625 C 12.523438 -31.625 11.738281 -31.035156 11.1875 -30.296875 C 10.644531 -29.554688 10.367188 -28.707031 10.359375 -27.75 C 10.359375 -26.957031 10.539062 -26.269531 10.90625 -25.6875 C 11.269531 -25.113281 11.765625 -24.625 12.390625 -24.21875 C 13.023438 -23.8125 13.726562 -23.472656 14.5 -23.203125 C 15.269531 -22.929688 16.046875 -22.703125 16.828125 -22.515625 L 20.390625 -21.625 C 21.816406 -21.289062 23.195312 -20.835938 24.53125 -20.265625 C 25.863281 -19.703125 27.054688 -18.988281 28.109375 -18.125 C 29.171875 -17.257812 30.007812 -16.210938 30.625 -14.984375 C 31.25 -13.753906 31.5625 -12.316406 31.5625 -10.671875 C 31.5625 -8.441406 30.988281 -6.484375 29.84375 -4.796875 C 28.707031 -3.109375 27.066406 -1.789062 24.921875 -0.84375 C 22.773438 0.101562 20.179688 0.578125 17.140625 0.578125 C 14.179688 0.578125 11.613281 0.117188 9.4375 -0.796875 C 7.269531 -1.710938 5.578125 -3.046875 4.359375 -4.796875 C 3.140625 -6.554688 2.476562 -8.703125 2.375 -11.234375 L 9.15625 -11.234375 C 9.25 -9.910156 9.65625 -8.804688 10.375 -7.921875 C 11.09375 -7.046875 12.03125 -6.390625 13.1875 -5.953125 C 14.34375 -5.523438 15.640625 -5.3125 17.078125 -5.3125 C 18.578125 -5.3125 19.890625 -5.535156 21.015625 -5.984375 C 22.148438 -6.441406 23.039062 -7.070312 23.6875 -7.875 C 24.332031 -8.6875 24.660156 -9.640625 24.671875 -10.734375 C 24.660156 -11.722656 24.367188 -12.539062 23.796875 -13.1875 C 23.234375 -13.84375 22.441406 -14.390625 21.421875 -14.828125 C 20.398438 -15.265625 19.207031 -15.65625 17.84375 -16 L 13.515625 -17.125 C 10.378906 -17.925781 7.90625 -19.144531 6.09375 -20.78125 C 4.28125 -22.425781 3.375 -24.609375 3.375 -27.328125 C 3.375 -29.566406 3.984375 -31.523438 5.203125 -33.203125 C 6.421875 -34.890625 8.082031 -36.203125 10.1875 -37.140625 C 12.289062 -38.078125 14.675781 -38.546875 17.34375 -38.546875 C 20.039062 -38.546875 22.40625 -38.078125 24.4375 -37.140625 C 26.476562 -36.203125 28.078125 -34.90625 29.234375 -33.25 C 30.398438 -31.601562 31.003906 -29.710938 31.046875 -27.578125 Z M 24.421875 -27.578125 "/></g></g></g></svg>