<svg width="590" height="285" viewBox="0 0 590 285" fill="none" xmlns="http://www.w3.org/2000/svg">
<path d="M585.507 23.2317C572.538 8.82561 552.202 1.53662 533.14 0.435071C507.046 -2.95552 509.5 13.9974 502.046 32.9738C501.195 33.3097 500.515 34.0753 500.179 35.005C498.398 43.1378 490.437 54.5829 491.789 62.3719C479.164 93.0435 465.273 123.551 449 152.527C444.43 160.574 439.852 168.793 437.227 177.691C436.125 178.457 435.11 179.808 435.11 181.168C436.883 203.449 438.836 225.901 444.344 247.597C448.578 254.8 468.234 241.073 473.578 238.104C482.976 232.003 493.57 227.597 502.804 221.331C515.265 215.48 517.21 199.386 523.82 188.535C539.241 154.816 556.444 121.004 569.577 86.5201C573.046 80.8483 576.944 74.6609 576.35 67.7156C585.249 55.4267 595.671 37.5519 585.507 23.2317ZM472.641 119.824C477.047 110.668 480.859 101.348 485.179 92.1138C488.484 83.7233 497.89 71.0203 496.539 62.2938C496.703 62.1219 496.789 61.9501 496.875 61.7001C501.367 63.6453 505.859 65.4266 510.429 67.1219C492.218 107.45 473.828 147.699 455.953 188.199C453.914 182.863 449 179.05 443.414 177.949C450.953 157.613 464.422 139.988 472.641 119.824ZM513.82 68.4734C522.21 71.6921 530.679 74.7468 539.07 77.8796C531.781 97.8794 520.773 116.176 511.96 135.496C501.453 155.832 494.164 177.777 483.062 197.691C478.492 189.042 466.289 186.082 458.32 191.839C476.453 150.582 495.093 109.481 513.82 68.4734ZM499.078 216.925C491.367 221.495 483.32 225.566 475.523 229.972C466.117 224.128 455.445 220.058 444.766 217.347C443.242 206.159 442.227 194.894 441.375 183.543C449.68 184.472 452.563 193.199 451.797 200.488C451.633 203.363 456.039 204.636 457.305 202.011C458.578 199.3 460.695 196.839 463.578 195.652C469.336 193.199 476.367 196.331 478.656 202.097C479.844 204.214 478.914 207.433 481.117 208.956C482.554 209.808 484.078 209.128 485.179 208.113C493.484 200.738 499.164 208.027 499.336 216.925C499.164 216.839 499.078 216.925 499.078 216.925ZM562.288 90.4185C543.226 131.176 526.617 173.543 504.757 212.855C503.992 203.027 494.164 194.98 485.101 200.995C495.265 185.23 500.351 166.59 509.078 150.074C519.499 126.176 533.14 103.637 542.374 79.2389C549.491 81.8639 556.358 85.0826 563.304 87.9654C563.304 87.9654 563.304 87.9654 563.304 88.0513C562.968 88.8091 562.624 89.6607 562.288 90.4185ZM565.171 82.5436C543.562 72.2859 520.601 65.5906 498.656 56.1064C499.25 54.3251 499.929 52.5439 500.601 50.8486C524.921 53.1376 546.609 66.8641 568.132 77.3718C567.202 79.0671 566.186 80.8483 565.171 82.5436ZM570.249 71.6921C548.648 61.3563 527.124 47.8018 502.804 45.0049C503.57 42.9737 504.414 40.9346 505.093 38.9034C513.734 41.9581 521.195 47.6299 530.093 50.2549C538.898 53.6455 547.882 56.786 556.608 60.4266C561.272 63.3875 572.71 63.9032 570.249 71.6921ZM508.148 33.5675C509.078 31.0207 509.835 28.3957 510.601 25.7707C513.062 19.4974 513.992 11.1146 519.671 6.88032C532.546 4.92721 546.187 6.95844 558.304 11.9584C586.264 23.3958 591.014 36.7863 573.389 61.8641C552.546 50.5986 528.906 45.0049 508.148 33.5675ZM435.953 258.354C425.875 262.846 415.282 266.659 405.704 272.167C386.22 284.963 359.017 297.159 369.274 260.221C359.275 261.409 351.142 267.846 341.986 271.659C288.947 290.893 353.681 233.956 298.947 255.901C296.236 256.745 292.51 259.964 290.385 256.659C289.627 255.307 289.963 253.104 291.486 252.425C310.72 242.597 338.517 237.597 325.806 269.198C336.65 272.503 381.985 237.003 374.946 263.948C366.22 291.995 391.134 273.182 402.829 266.831C412.399 261.409 422.821 257.596 432.821 253.19C436.297 250.987 439.43 256.409 435.953 258.354Z" fill="#545454"/>
<path d="M44.0933 163.721C43.7339 160.495 42.2808 157.971 39.7183 156.159C37.1559 154.346 33.8278 153.44 29.7497 153.44C26.8747 153.44 24.406 153.878 22.3435 154.753C20.2967 155.628 18.7264 156.807 17.6248 158.284C16.5389 159.768 15.9842 161.464 15.9686 163.378C15.9686 164.964 16.328 166.338 17.0623 167.503C17.7889 168.651 18.7811 169.628 20.031 170.44C21.2967 171.253 22.7029 171.932 24.2497 172.471C25.7888 173.018 27.3435 173.471 28.9059 173.846L36.0309 175.627C38.8824 176.299 41.6402 177.206 44.312 178.346C46.9761 179.471 49.3589 180.901 51.4682 182.627C53.5932 184.362 55.265 186.455 56.4994 188.909C57.7494 191.369 58.3744 194.244 58.3744 197.533C58.3744 201.994 57.226 205.908 54.9369 209.283C52.6635 212.658 49.3823 215.299 45.0933 217.19C40.7965 219.08 35.609 220.033 29.5309 220.033C23.6091 220.033 18.4764 219.111 14.1249 217.283C9.78896 215.455 6.40618 212.783 3.96871 209.283C1.53123 205.768 0.203122 201.471 0 196.408H13.5624C13.7499 199.057 14.5623 201.268 15.9998 203.033C17.4373 204.783 19.3123 206.096 21.6248 206.971C23.9373 207.83 26.531 208.252 29.4059 208.252C32.4059 208.252 35.0309 207.807 37.2809 206.908C39.5465 205.994 41.3277 204.737 42.6246 203.127C43.9136 201.502 44.5698 199.596 44.5933 197.408C44.5698 195.432 43.9839 193.799 42.8433 192.502C41.7183 191.19 40.1324 190.096 38.0934 189.221C36.0465 188.346 33.6637 187.565 30.9372 186.877L22.281 184.627C16.0076 183.026 11.0624 180.588 7.43742 177.315C3.81246 174.026 1.99998 169.659 1.99998 164.221C1.99998 159.745 3.21872 155.831 5.65619 152.471C8.09367 149.096 11.4139 146.472 15.6248 144.597C19.8279 142.722 24.6013 141.784 29.9372 141.784C35.3278 141.784 40.0621 142.722 44.1245 144.597C48.2026 146.472 51.4057 149.065 53.7182 152.378C56.0463 155.675 57.2572 159.456 57.3432 163.721H44.0933Z" fill="#545454"/>
<path d="M94.5068 161.846V172.253H61.7259V161.846H94.5068ZM69.8195 148.19H83.2569V201.721C83.2569 203.533 83.5381 204.924 84.1006 205.877C84.6631 206.815 85.3975 207.463 86.3194 207.815C87.2334 208.174 88.2412 208.346 89.3506 208.346C90.2021 208.346 90.9756 208.283 91.663 208.158C92.3662 208.033 92.913 207.924 93.288 207.815L95.5693 218.315C94.8349 218.565 93.8036 218.838 92.4755 219.127C91.1631 219.44 89.5537 219.611 87.6631 219.658C84.2881 219.76 81.2413 219.252 78.5382 218.127C75.8507 217.002 73.7101 215.252 72.132 212.877C70.5695 210.487 69.7961 207.502 69.8195 203.94V148.19Z" fill="#545454"/>
<path d="M138.127 194.877V161.846H151.564V218.877H138.533V208.752H137.939C136.666 211.94 134.565 214.557 131.627 216.596C128.69 218.619 125.072 219.627 120.783 219.627C117.049 219.627 113.752 218.799 110.877 217.127C108.018 215.44 105.791 213.002 104.19 209.815C102.58 206.611 101.784 202.721 101.784 198.158V161.846H115.221V196.065C115.221 199.69 116.205 202.565 118.19 204.69C120.166 206.815 122.768 207.877 126.002 207.877C127.979 207.877 129.893 207.401 131.752 206.44C133.604 205.486 135.127 204.049 136.314 202.127C137.518 200.19 138.127 197.776 138.127 194.877Z" fill="#545454"/>
<path d="M182.553 219.877C178.069 219.877 174.061 218.736 170.522 216.44C166.975 214.127 164.178 210.783 162.116 206.408C160.069 202.018 159.053 196.69 159.053 190.44C159.053 184.112 160.092 178.752 162.178 174.377C164.28 170.003 167.116 166.706 170.678 164.471C174.241 162.221 178.209 161.096 182.584 161.096C185.936 161.096 188.686 161.659 190.834 162.784C192.998 163.909 194.709 165.268 195.959 166.846C197.225 168.409 198.209 169.893 198.897 171.284H199.459V142.847H212.928V218.877H199.709V209.877H198.897C198.209 211.276 197.209 212.752 195.897 214.315C194.584 215.861 192.842 217.174 190.678 218.252C188.53 219.33 185.819 219.877 182.553 219.877ZM186.303 208.846C189.155 208.846 191.584 208.08 193.584 206.533C195.584 204.994 197.1 202.838 198.147 200.065C199.186 197.276 199.709 194.034 199.709 190.346C199.709 186.659 199.193 183.463 198.178 180.752C197.154 178.026 195.647 175.909 193.647 174.409C191.647 172.893 189.194 172.128 186.303 172.128C183.319 172.128 180.819 172.909 178.803 174.471C176.803 176.034 175.287 178.19 174.272 180.94C173.272 183.69 172.772 186.83 172.772 190.346C172.772 193.932 173.28 197.119 174.303 199.908C175.319 202.682 176.842 204.869 178.866 206.471C180.881 208.057 183.366 208.846 186.303 208.846Z" fill="#545454"/>
<path d="M223.312 218.877V161.846H236.749V218.877H223.312ZM230.062 153.753C227.937 153.753 226.101 153.05 224.562 151.628C223.038 150.19 222.281 148.471 222.281 146.471C222.281 144.456 223.038 142.737 224.562 141.315C226.101 139.878 227.937 139.159 230.062 139.159C232.226 139.159 234.069 139.878 235.593 141.315C237.109 142.737 237.874 144.456 237.874 146.471C237.874 148.471 237.109 150.19 235.593 151.628C234.069 153.05 232.226 153.753 230.062 153.753Z" fill="#545454"/>
<path d="M295.138 142.847H308.919V192.502C308.919 197.963 307.637 202.768 305.075 206.908C302.513 211.033 298.903 214.252 294.263 216.565C289.638 218.877 284.231 220.033 278.044 220.033C271.833 220.033 266.419 218.877 261.794 216.565C257.169 214.252 253.576 211.033 251.013 206.908C248.466 202.768 247.201 197.963 247.201 192.502V142.847H260.982V191.377C260.982 194.549 261.677 197.369 263.075 199.846C264.466 202.307 266.435 204.244 268.982 205.658C271.544 207.057 274.56 207.752 278.044 207.752C281.544 207.752 284.575 207.057 287.138 205.658C289.7 204.244 291.669 202.307 293.044 199.846C294.434 197.369 295.138 194.549 295.138 191.377V142.847Z" fill="#7ED957"/>
<path d="M361.26 163.721C360.901 160.495 359.448 157.971 356.886 156.159C354.323 154.346 350.995 153.44 346.917 153.44C344.042 153.44 341.573 153.878 339.511 154.753C337.464 155.628 335.894 156.807 334.792 158.284C333.706 159.768 333.151 161.464 333.136 163.378C333.136 164.964 333.495 166.338 334.23 167.503C334.956 168.651 335.948 169.628 337.198 170.44C338.464 171.253 339.87 171.932 341.417 172.471C342.956 173.018 344.511 173.471 346.073 173.846L353.198 175.627C356.05 176.299 358.807 177.206 361.479 178.346C364.143 179.471 366.526 180.901 368.635 182.627C370.76 184.362 372.432 186.455 373.667 188.909C374.917 191.369 375.542 194.244 375.542 197.533C375.542 201.994 374.393 205.908 372.104 209.283C369.831 212.658 366.55 215.299 362.26 217.19C357.964 219.08 352.776 220.033 346.698 220.033C340.776 220.033 335.644 219.111 331.292 217.283C326.956 215.455 323.573 212.783 321.136 209.283C318.698 205.768 317.37 201.471 317.167 196.408H330.73C330.917 199.057 331.73 201.268 333.167 203.033C334.605 204.783 336.48 206.096 338.792 206.971C341.104 207.83 343.698 208.252 346.573 208.252C349.573 208.252 352.198 207.807 354.448 206.908C356.714 205.994 358.495 204.737 359.792 203.127C361.081 201.502 361.737 199.596 361.76 197.408C361.737 195.432 361.151 193.799 360.011 192.502C358.886 191.19 357.3 190.096 355.261 189.221C353.214 188.346 350.831 187.565 348.104 186.877L339.448 184.627C333.175 183.026 328.23 180.588 324.605 177.315C320.98 174.026 319.167 169.659 319.167 164.221C319.167 159.745 320.386 155.831 322.823 152.471C325.261 149.096 328.581 146.472 332.792 144.597C336.995 142.722 341.769 141.784 347.104 141.784C352.495 141.784 357.229 142.722 361.292 144.597C365.37 146.472 368.573 149.065 370.885 152.378C373.213 155.675 374.424 159.456 374.51 163.721H361.26Z" fill="#7ED957"/>
</svg>
