<svg xmlns="http://www.w3.org/2000/svg" xmlns:xlink="http://www.w3.org/1999/xlink" width="500" zoomAndPan="magnify" viewBox="0 0 375 374.999991" height="500" preserveAspectRatio="xMidYMid meet" version="1.0"><defs><clipPath id="ebf4aebeb1"><path d="M 253 191 L 262.5 191 L 262.5 195 L 253 195 Z M 253 191 " clip-rule="nonzero"/></clipPath><clipPath id="8963bff39e"><path d="M 77 297 L 114 297 L 114 364.847656 L 77 364.847656 Z M 77 297 " clip-rule="nonzero"/></clipPath><clipPath id="3b566dd94d"><path d="M 306 176 L 337.78125 176 L 337.78125 208 L 306 208 Z M 306 176 " clip-rule="nonzero"/></clipPath><clipPath id="861291374e"><path d="M 43.03125 274 L 178 274 L 178 329 L 43.03125 329 Z M 43.03125 274 " clip-rule="nonzero"/></clipPath></defs><rect x="-37.5" width="450" fill="#ffffff" y="-37.499999" height="449.999989" fill-opacity="1"/><rect x="-37.5" width="450" fill="#111111" y="-37.499999" height="449.999989" fill-opacity="1"/><path fill="#000000" d="M 129.949219 232.023438 C 129.15625 231.195312 120.34375 230.96875 127.867188 227.628906 C 127.832031 227.574219 124.257812 225.417969 129.632812 223.613281 C 132.960938 222.496094 130.996094 223.058594 127.238281 220.929688 C 125.722656 220.070312 125.996094 219.011719 127.140625 218.480469 C 130.785156 216.796875 131.761719 217.574219 129.011719 216.285156 C 128.371094 215.984375 128.316406 215.03125 128.828125 214.75 C 129.957031 214.132812 130.347656 214.210938 134.15625 212.144531 C 135.222656 211.566406 132.078125 210.753906 131.796875 209.09375 C 131.609375 207.984375 126.429688 208.03125 126.371094 206.550781 C 126.296875 204.726562 129.9375 204.621094 130.191406 203.789062 C 128.320312 203.015625 125.320312 202.96875 125.78125 201.28125 C 125.835938 201.089844 126.105469 200.6875 125.824219 200.425781 C 125.601562 200.21875 124.328125 199.339844 125.265625 198.648438 C 126.347656 197.847656 131.726562 195.675781 131.746094 194.875 C 130.851562 194.230469 129.828125 193.464844 131.277344 192.246094 C 135.179688 188.964844 135.804688 189.121094 134.324219 188.539062 C 129.640625 186.6875 126.625 186.066406 127.75 184.664062 C 128.59375 183.617188 131.523438 182.464844 130.945312 182.136719 C 129.871094 181.535156 126.726562 181.261719 125.757812 180.808594 C 125.003906 180.453125 125.121094 179.484375 125.867188 179.015625 C 127.128906 178.222656 127.476562 178.273438 127.15625 177.777344 C 126.699219 177.070312 126.507812 176.871094 127.027344 176.128906 C 128.078125 174.628906 123.109375 176.050781 127.109375 171.9375 C 130.175781 168.789062 130.285156 169.242188 126.714844 168.800781 C 122.855469 168.324219 119.082031 169.824219 119.742188 167.761719 C 120.613281 165.023438 128.222656 157.847656 130.652344 155.992188 C 131.445312 155.390625 128.785156 154.207031 126.625 149.351562 C 123.714844 142.8125 122.089844 141.726562 123.894531 141.257812 C 125.460938 140.855469 130.175781 143.664062 131.4375 144.511719 C 142.296875 151.832031 176.503906 135.53125 207.121094 130.882812 C 218.8125 129.109375 224.339844 129.828125 238.152344 143.273438 C 239.9375 145.011719 242.792969 147.085938 240.769531 148.199219 C 239.128906 149.101562 237.121094 149.164062 237.8125 149.777344 C 241.414062 152.984375 244.984375 153.601562 243.207031 155.292969 C 242.347656 156.113281 241.9375 155.621094 246.203125 157.949219 C 248.679688 159.300781 248.902344 159.425781 249.667969 160.085938 C 250.445312 160.757812 250.242188 162.039062 249.277344 162.355469 C 246.546875 163.246094 244.347656 163.070312 244.554688 163.902344 C 244.738281 164.636719 245.460938 165.332031 245.144531 166.171875 C 244.867188 166.890625 244.636719 167.023438 244.867188 167.371094 C 245.488281 168.289062 247.753906 169.386719 247.476562 170.765625 C 247.195312 172.167969 247.316406 171 250.230469 174.125 C 251.867188 175.875 245.699219 175.816406 245.351562 176.210938 C 244.945312 176.671875 248.523438 177.984375 248.261719 179.644531 C 248.066406 180.894531 247.8125 180.160156 251.285156 182.289062 C 254.222656 184.085938 254.5 184.140625 254.761719 184.699219 C 256.027344 187.394531 246.542969 185.894531 246.949219 187.027344 C 247.234375 187.828125 251.980469 192.015625 249.175781 192.882812 C 245.855469 193.90625 244.351562 192.199219 248.355469 195.75 C 249.242188 196.539062 262.269531 200.355469 257.550781 202.117188 C 256.714844 202.429688 247.867188 202.300781 247.886719 202.722656 C 247.929688 203.628906 251.140625 204.746094 249.027344 206.546875 C 248.773438 206.765625 249.03125 206.953125 249.210938 207.363281 C 249.789062 208.707031 247.402344 208.835938 247.398438 209.140625 C 247.382812 209.957031 253.136719 212.023438 253.148438 213.757812 C 253.15625 215.625 249.011719 214.871094 248.101562 215.496094 C 247.695312 215.773438 248.601562 216.003906 249.953125 218.113281 C 250.457031 218.894531 250.101562 219.84375 249.417969 219.902344 C 247.992188 220.03125 247.667969 219.898438 247.730469 220.226562 C 247.921875 221.207031 251.777344 223.894531 250.523438 224.785156 C 249.632812 225.414062 247.679688 224.75 247.835938 225.425781 C 247.917969 225.796875 250.464844 228.148438 248.882812 229.25 C 248.691406 229.382812 247.925781 229.65625 248.046875 229.847656 C 248.054688 229.859375 250.234375 231.6875 250.964844 232.414062 C 256.933594 238.34375 242.261719 235.015625 210.957031 239.171875 C 162.734375 245.566406 168.988281 250.5 163.265625 248.351562 C 163.207031 248.328125 144.085938 240.058594 134.855469 238.0625 C 131.601562 237.359375 124.433594 236.800781 126.585938 234.273438 C 127.414062 233.300781 129.015625 232.785156 129.949219 232.023438 Z M 150.261719 240.445312 C 150.191406 240.40625 150.144531 240.378906 150.125 240.371094 C 149.113281 239.847656 148.136719 239.246094 147.0625 238.851562 C 145.554688 238.292969 144.105469 237.589844 142.632812 236.9375 C 140.496094 235.996094 138.363281 235.003906 136.160156 234.21875 C 135.273438 233.90625 134.324219 233.578125 133.367188 233.648438 C 132.605469 233.707031 131.871094 234.007812 131.140625 234.203125 C 128.195312 234.988281 133.394531 235.21875 138.171875 236.566406 C 140.605469 237.257812 143.003906 238.074219 145.386719 238.914062 C 146.519531 239.3125 147.613281 239.738281 148.710938 240.207031 C 149.886719 240.710938 150.898438 241.550781 152.15625 241.871094 C 152.273438 241.898438 152.410156 241.917969 152.492188 241.832031 C 152.59375 241.726562 150.796875 240.734375 150.261719 240.445312 Z M 153.527344 225.140625 C 153.664062 225.347656 137.410156 212.71875 136.070312 213.320312 C 135.804688 213.441406 132.40625 214.984375 132.308594 215.261719 C 132.171875 215.644531 132.65625 215.285156 138.605469 219.304688 C 142.066406 221.644531 152.652344 225.210938 153.527344 225.140625 Z M 208.820312 198.742188 C 248.988281 195.660156 246.816406 197.550781 243.511719 194.488281 C 243.066406 194.078125 242.105469 194.113281 241.550781 194.082031 C 240.175781 193.996094 238.789062 194.046875 237.410156 194.105469 C 233.136719 194.285156 228.871094 194.707031 224.617188 195.164062 C 219.464844 195.722656 214.324219 196.378906 209.191406 197.109375 C 204.515625 197.777344 199.84375 198.5 195.199219 199.367188 C 193.355469 199.710938 191.53125 200.179688 189.710938 200.566406 C 187.953125 200.9375 186.253906 200.933594 184.613281 201.804688 C 184.433594 201.898438 184.25 202.007812 184.128906 202.175781 C 184.195312 202.085938 185.457031 201.976562 185.695312 201.925781 C 191.003906 200.710938 196.402344 200.222656 201.785156 199.558594 C 204.125 199.265625 206.46875 198.921875 208.820312 198.742188 Z M 243.839844 161.222656 C 245.742188 160.898438 246.847656 160.835938 245.292969 160.039062 C 238.632812 156.617188 239.503906 156.511719 238.578125 156.71875 C 230.703125 158.46875 222.894531 160.53125 215.1875 162.925781 C 209.46875 164.703125 203.796875 166.65625 198.234375 168.878906 C 195.089844 170.128906 192.066406 171.558594 189.019531 173.015625 C 188.269531 173.375 187.644531 173.507812 187.09375 174.214844 C 188.113281 174.046875 189 173.441406 189.996094 173.148438 C 190.695312 172.945312 191.394531 172.75 192.09375 172.554688 C 194.078125 172 196.066406 171.472656 198.0625 170.957031 C 204.023438 169.421875 210.019531 168.003906 216.035156 166.671875 C 223.992188 164.914062 231.984375 163.316406 240.011719 161.886719 C 241.285156 161.660156 242.5625 161.4375 243.839844 161.222656 Z M 137.214844 203.410156 C 141.910156 204.285156 146.523438 205.980469 150.921875 207.75 C 154.144531 209.046875 157.347656 210.402344 160.542969 211.769531 C 162.34375 212.542969 164.144531 213.324219 165.9375 214.113281 C 166.601562 214.402344 167.398438 214.933594 168.117188 215.066406 C 169.058594 215.234375 193.933594 202.535156 235.632812 200.609375 C 249.265625 199.980469 257.167969 200.910156 248.3125 198.449219 C 247.882812 198.332031 212.335938 199.738281 190.671875 203.417969 C 157.570312 209.039062 169.277344 211.59375 150.730469 206.222656 C 146.648438 205.042969 142.679688 203.574219 138.460938 202.8125 C 137.457031 202.632812 136.449219 202.484375 135.4375 202.371094 C 134.953125 202.320312 134.46875 202.273438 133.984375 202.234375 C 133.742188 202.214844 133.449219 202.214844 133.226562 202.25 C 133.363281 202.464844 133.628906 202.566406 133.867188 202.648438 C 134.226562 202.773438 134.597656 202.871094 134.96875 202.960938 C 135.710938 203.140625 136.464844 203.273438 137.214844 203.410156 Z M 173.757812 170.09375 C 186.851562 170 208.832031 155.90625 237.636719 146.765625 C 238.898438 146.363281 223.972656 131.710938 215.898438 132.507812 C 184.789062 135.570312 189.382812 137.390625 162.894531 144.457031 C 143.457031 149.640625 137.910156 148.28125 138.785156 149.003906 C 138.976562 149.160156 155.207031 159.511719 158.195312 160.972656 C 159.714844 161.710938 161.679688 170.171875 173.757812 170.09375 Z M 166.953125 183.519531 C 167.273438 183.601562 167.199219 183.496094 169.210938 181.980469 C 197.578125 160.644531 240.449219 154.949219 239.273438 153.832031 C 238.78125 153.367188 239.222656 153.882812 234.929688 150.359375 C 232.601562 148.445312 184.589844 173.90625 171.628906 172.242188 C 166.574219 171.589844 167.1875 171.253906 165.441406 171.105469 C 141.144531 169.046875 134.078125 156.921875 132.480469 157.636719 C 130.5 158.523438 124.753906 164.625 123.886719 165.757812 C 123.21875 166.625 125.535156 166.019531 134.296875 167.679688 C 159.109375 172.386719 164.707031 182.421875 166.953125 183.519531 Z M 163.246094 219.472656 C 165.703125 220.597656 245.792969 204.289062 245.753906 204.230469 C 244.058594 201.902344 245.675781 202.394531 235.230469 202.917969 C 196.125 204.882812 169.027344 217.351562 167.667969 217.109375 C 166.066406 216.828125 162.113281 214.679688 145.523438 208.078125 C 134.515625 203.703125 134.605469 204.746094 131.324219 205.660156 C 128.414062 206.472656 131.488281 204.921875 163.246094 219.472656 Z M 134.78125 182.925781 C 133.945312 183.265625 130.015625 184.914062 130.824219 185.308594 C 130.882812 185.339844 139.886719 188.625 155.195312 195.757812 C 162.191406 199.019531 161.316406 199.34375 162.546875 198.976562 C 164.101562 198.515625 168.664062 195.785156 192.109375 189.1875 C 241.175781 175.382812 246.761719 180.398438 244.140625 178.484375 C 241.273438 176.390625 241.738281 176.265625 238.449219 176.6875 C 234.613281 177.175781 220.453125 178.101562 196.152344 184.371094 C 158.699219 194.03125 171.898438 198.015625 158.214844 191.429688 C 149.957031 187.453125 141.515625 184.585938 134.78125 182.925781 Z M 246.976562 191.0625 C 247.121094 190.5625 245.070312 188.535156 243.90625 187.191406 C 243.277344 186.46875 193.648438 190.78125 169.140625 202.625 C 166.789062 204.152344 164.277344 201.214844 161.675781 200.910156 C 159.796875 200.222656 138.519531 190.414062 138.367188 190.339844 C 136.890625 189.621094 137.320312 189.621094 133.558594 192.542969 C 132.4375 193.417969 153.648438 200.574219 155.003906 201.011719 C 168.460938 205.34375 163.199219 206.808594 168.628906 204.714844 C 206.59375 190.0625 246.152344 193 246.976562 191.0625 Z M 134.058594 229.179688 C 126.226562 229.769531 139.320312 231.601562 154.792969 240.128906 C 161.660156 243.914062 160.300781 244.84375 161.972656 244.277344 C 227.160156 222.191406 253.210938 231.875 245.46875 226.167969 C 242.054688 223.648438 221.757812 227.261719 210.964844 228.894531 C 171.550781 234.863281 171.550781 239.507812 164.734375 240.558594 C 162.894531 240.84375 163.25 239.214844 155.320312 235.992188 C 149.738281 233.722656 140.019531 230.058594 134.058594 229.179688 Z M 243.652344 220.058594 C 230.371094 219.648438 190.0625 226.671875 182.695312 229.886719 C 176.277344 232.6875 178.242188 233.042969 172.402344 231.523438 C 169.871094 230.867188 164.4375 234.191406 162.394531 235.449219 C 160.324219 236.726562 155.179688 231.382812 136.511719 224.550781 C 135.59375 224.214844 135.6875 224.5625 131.988281 225.289062 C 130.742188 225.53125 130.390625 225.867188 131.625 226.175781 C 163.875 234.257812 163.730469 238.964844 165.164062 238.578125 C 173.015625 236.445312 176.070312 232.726562 201.351562 228.546875 C 244.75 221.367188 248.363281 224.070312 247.480469 222.996094 C 246.441406 221.734375 245.160156 220.789062 243.652344 220.058594 Z M 165.910156 192.730469 C 166.828125 192.601562 197.910156 177.308594 244.972656 173.832031 C 246.421875 173.722656 246.78125 173.421875 244.5625 171.976562 C 241.394531 169.914062 206.824219 172.664062 171.355469 188.097656 C 163.035156 191.71875 171.230469 188.621094 132.105469 178.910156 C 130.71875 178.5625 129.128906 179.5625 129.371094 179.742188 C 131.988281 181.699219 134.890625 178.375 165.910156 192.730469 Z M 148.875 218.753906 C 161.738281 228.167969 160.882812 228.449219 161.734375 228.175781 C 189.71875 219.210938 245.761719 207.496094 245.527344 207.066406 C 244.886719 205.894531 185.777344 218.75 173.773438 220.410156 C 157.253906 222.695312 171.710938 223.828125 138.398438 211.222656 C 136.609375 210.546875 146.960938 217.433594 148.875 218.753906 Z M 242.53125 230.09375 C 243.949219 229.980469 223.808594 231.714844 222.171875 231.863281 C 201.734375 233.714844 181.828125 239.71875 164.234375 245.730469 C 163.296875 246.050781 164.578125 246.652344 165.511719 246.988281 C 166.847656 247.464844 165.351562 246.234375 181.09375 242.378906 C 210.8125 235.105469 245 234.628906 248.402344 234.386719 C 251.265625 234.183594 244.304688 229.992188 242.53125 230.09375 Z M 242.242188 210.039062 C 201.828125 218.871094 169.925781 227.457031 168.855469 228.15625 C 168.222656 228.566406 173.410156 229.859375 174.140625 230.042969 C 179.941406 231.515625 194.046875 219.011719 242.574219 213.800781 C 247.941406 213.222656 248.890625 213.382812 248.660156 213.019531 C 248.351562 212.535156 243.226562 210.390625 242.242188 210.039062 Z M 157.109375 163.023438 C 132.878906 148.304688 126.074219 143.375 126.929688 145.042969 C 128.625 148.34375 131.078125 155.195312 142.511719 161.902344 C 149.238281 165.851562 156.804688 168.058594 160.570312 168.273438 C 161.769531 168.339844 160.011719 167.621094 157.109375 163.023438 Z M 131.722656 176.140625 C 125.4375 175.792969 146.425781 179 165.574219 186.917969 C 169.023438 188.347656 165.726562 187.378906 180.648438 182.023438 C 200.898438 174.757812 213.601562 172.882812 211.132812 172.75 C 196.871094 171.988281 186.910156 176.417969 173.796875 181.65625 C 171.046875 182.753906 167.851562 186.894531 166.398438 186.101562 C 165.066406 185.375 162.148438 181.625 160.132812 180.941406 C 155.523438 179.371094 134.542969 176.46875 131.722656 176.140625 Z M 166.300781 200.296875 C 168.722656 201.667969 166.433594 200.71875 176.0625 197.570312 C 218.050781 183.84375 241.746094 185.875 249.585938 184.273438 C 250.675781 184.054688 244.722656 181.035156 244.164062 181.050781 C 220.929688 181.730469 163.414062 198.660156 166.300781 200.296875 Z M 165.367188 229.335938 C 161.929688 230.476562 160.949219 231.132812 160.195312 230.648438 C 157.589844 228.972656 158.738281 228.59375 155.816406 227.671875 C 145.601562 224.453125 141.164062 222.996094 135.550781 219.199219 C 134.703125 218.628906 131.035156 219.160156 130.367188 219.746094 C 131.339844 220.816406 139.03125 221.953125 157.863281 231.601562 C 161.53125 233.480469 160.980469 233.972656 162.082031 233.3125 C 167.804688 229.867188 169.238281 230.691406 165.367188 229.335938 Z M 154.21875 177.222656 C 154.160156 177.222656 154.523438 177.257812 154.628906 177.15625 C 155.648438 176.199219 134.257812 168.53125 132.320312 170.070312 C 126.308594 174.847656 126.847656 172.636719 154.21875 177.222656 Z M 148.09375 203.121094 C 178.160156 211.3125 156.484375 204.671875 136.027344 196.453125 C 134.058594 195.660156 135 196.367188 130.359375 198.453125 C 127.792969 199.609375 132.277344 198.808594 148.09375 203.121094 Z M 208.890625 170.773438 C 209.511719 170.773438 243.683594 169.8125 243.742188 169.8125 C 244.570312 169.785156 242.898438 168.128906 241.957031 168.101562 C 241.898438 168.097656 214.632812 167.761719 208.890625 170.773438 Z M 211.152344 221.34375 C 211.210938 221.363281 229.285156 219.042969 229.34375 219.03125 C 240.414062 217.21875 252.296875 219.964844 244.195312 215.953125 C 242.800781 215.265625 209.355469 220.804688 211.152344 221.34375 Z M 235.371094 166.382812 C 236.929688 166.371094 238.464844 166.398438 240.054688 166.4375 C 240.429688 166.445312 243.53125 166.582031 242.683594 165.550781 C 241.972656 164.6875 242.390625 163.851562 241.46875 163.933594 C 239.714844 164.089844 228.503906 166.082031 228.25 166.335938 C 228.207031 166.378906 229.496094 166.492188 229.523438 166.492188 C 230.398438 166.488281 231.269531 166.460938 232.144531 166.441406 C 232.855469 166.425781 233.570312 166.410156 234.28125 166.398438 C 234.648438 166.390625 235.011719 166.382812 235.371094 166.382812 Z M 235.371094 166.382812 " fill-opacity="1" fill-rule="nonzero"/><path fill="#000000" d="M 210.21875 155.84375 C 204.964844 155.980469 239.050781 142.464844 234.839844 146.246094 C 234.050781 146.957031 224.386719 149.417969 212.960938 154.804688 C 210.929688 155.761719 210.675781 155.882812 210.21875 155.84375 Z M 210.21875 155.84375 " fill-opacity="1" fill-rule="nonzero"/><path fill="#000000" d="M 176.003906 168.683594 C 175.324219 168.640625 170.1875 168.316406 169.507812 167.898438 C 167.402344 166.613281 174.222656 167.691406 177.570312 167.503906 C 181.875 167.261719 187.285156 164.507812 189.863281 163.539062 C 190.175781 163.421875 191.1875 163.96875 189.367188 164.824219 C 184.875 166.941406 180.898438 168.507812 176.003906 168.683594 Z M 176.003906 168.683594 " fill-opacity="1" fill-rule="nonzero"/><path fill="#000000" d="M 170.992188 211.984375 C 173.507812 211.46875 176.066406 210.304688 178.539062 209.476562 C 179.609375 209.121094 180.691406 208.738281 181.800781 208.515625 C 181.976562 208.480469 183.148438 208.199219 182.960938 208.707031 C 182.597656 209.679688 175.828125 211.019531 169.871094 213.4375 C 169.4375 213.613281 168.988281 213.484375 169.15625 212.953125 C 169.3125 212.464844 170.292969 212.117188 170.726562 212.035156 C 170.816406 212.019531 170.902344 212 170.992188 211.984375 Z M 170.992188 211.984375 " fill-opacity="1" fill-rule="nonzero"/><path fill="#000000" d="M 178.632812 174.242188 C 178.730469 174.949219 177.230469 175.1875 170.40625 180.101562 C 168.496094 181.476562 168.289062 180.6875 168.714844 180.195312 C 169.175781 179.664062 178.59375 172.601562 178.632812 174.242188 Z M 178.632812 174.242188 " fill-opacity="1" fill-rule="nonzero"/><path fill="#000000" d="M 162.246094 227.015625 C 162.050781 227.015625 160.761719 226.550781 163.71875 225.476562 C 172.640625 222.222656 173.203125 221.878906 173.386719 222.503906 C 173.613281 223.289062 162.484375 226.980469 162.246094 227.015625 Z M 162.246094 227.015625 " fill-opacity="1" fill-rule="nonzero"/><path fill="#000000" d="M 233.636719 144.789062 C 232.96875 145.800781 228.0625 146.773438 227.855469 146.675781 C 226.316406 145.96875 231.234375 144.746094 232.886719 144.367188 C 233.1875 144.296875 233.472656 144.398438 233.636719 144.789062 Z M 233.636719 144.789062 " fill-opacity="1" fill-rule="nonzero"/><path fill="#000000" d="M 169.015625 212.230469 C 168.476562 212.476562 167.519531 212.839844 167.449219 212.347656 C 167.398438 211.996094 168.339844 211.582031 168.5625 211.46875 C 169.125 211.171875 171.398438 209.945312 172.011719 210.53125 C 172.625 211.113281 169.617188 211.925781 169.335938 212.074219 C 169.273438 212.105469 169.160156 212.164062 169.015625 212.230469 Z M 169.015625 212.230469 " fill-opacity="1" fill-rule="nonzero"/><path fill="#000000" d="M 170.949219 176.59375 C 171.367188 176.335938 173.1875 176.515625 169.101562 178.992188 C 168.746094 179.207031 166.96875 179.058594 170.949219 176.59375 Z M 170.949219 176.59375 " fill-opacity="1" fill-rule="nonzero"/><path fill="#000000" d="M 135.613281 140.914062 C 131.722656 140.4375 125.90625 137.6875 123.871094 135.820312 C 122.902344 134.933594 123.5625 134.453125 123.960938 134.570312 C 125.230469 134.949219 124.742188 136.097656 135.734375 139.898438 C 136.453125 140.148438 136.738281 140.78125 135.613281 140.914062 Z M 135.613281 140.914062 " fill-opacity="1" fill-rule="nonzero"/><g clip-path="url(#ebf4aebeb1)"><path fill="#000000" d="M 262.214844 191.539062 C 262.492188 192.40625 251.746094 196.308594 253.496094 194.292969 C 253.796875 193.945312 253.476562 194.226562 256.707031 193.003906 C 261.808594 191.074219 261.636719 191.113281 262.214844 191.539062 Z M 262.214844 191.539062 " fill-opacity="1" fill-rule="nonzero"/></g><path fill="#000000" d="M 217.097656 125.882812 C 216.851562 125.996094 208.785156 126.734375 208.460938 126.691406 C 208.070312 126.636719 207.214844 125.90625 209.183594 125.707031 C 211.445312 125.476562 220.011719 124.5 217.097656 125.882812 Z M 217.097656 125.882812 " fill-opacity="1" fill-rule="nonzero"/><path fill="#000000" d="M 121.742188 172.570312 C 122.816406 171.976562 123.222656 172.746094 122.8125 173.046875 C 116.503906 177.664062 112.496094 177.652344 121.742188 172.570312 Z M 121.742188 172.570312 " fill-opacity="1" fill-rule="nonzero"/><path fill="#000000" d="M 254.40625 229.308594 C 255.261719 229.433594 259.691406 232.425781 259.96875 232.878906 C 261.335938 235.117188 252.050781 229.386719 254.40625 229.308594 Z M 254.40625 229.308594 " fill-opacity="1" fill-rule="nonzero"/><path fill="#000000" d="M 133.378906 137.796875 C 132.753906 137.796875 128.351562 136.058594 127.316406 135.234375 C 127.039062 135.011719 127.199219 134.371094 127.675781 134.523438 C 127.96875 134.617188 134.808594 136.972656 133.378906 137.796875 Z M 133.378906 137.796875 " fill-opacity="1" fill-rule="nonzero"/><path fill="#000000" d="M 260.027344 188.765625 C 260.488281 188.574219 262.296875 189.074219 256.875 191.265625 C 256.699219 191.335938 254.816406 190.953125 260.027344 188.765625 Z M 260.027344 188.765625 " fill-opacity="1" fill-rule="nonzero"/><path fill="#000000" d="M 122.191406 211.714844 C 121.90625 211.691406 124.953125 211.960938 125.171875 212.753906 C 125.398438 213.5625 122.511719 212.722656 121.78125 212.476562 C 121.457031 212.367188 121.199219 211.726562 122.191406 211.714844 Z M 122.191406 211.714844 " fill-opacity="1" fill-rule="nonzero"/><path fill="#000000" d="M 121.101562 176.074219 C 121.042969 176.65625 118.109375 178.363281 117.824219 177.8125 C 117.464844 177.117188 121.148438 175.046875 121.101562 176.074219 Z M 121.101562 176.074219 " fill-opacity="1" fill-rule="nonzero"/><path fill="#000000" d="M 259.195312 230.710938 C 258.867188 230.425781 259.03125 229.914062 259.433594 229.964844 C 260.539062 230.101562 260.277344 231.640625 259.195312 230.710938 Z M 259.195312 230.710938 " fill-opacity="1" fill-rule="nonzero"/><path fill="#d2aaf9" d="M 176.058594 196.726562 L 87.710938 196.726562 C 87.164062 196.726562 86.617188 196.753906 86.070312 196.808594 C 85.527344 196.859375 84.984375 196.941406 84.445312 197.046875 C 83.910156 197.15625 83.378906 197.289062 82.855469 197.449219 C 82.328125 197.605469 81.8125 197.789062 81.308594 198 C 80.800781 198.210938 80.308594 198.445312 79.824219 198.703125 C 79.339844 198.960938 78.871094 199.242188 78.414062 199.546875 C 77.960938 199.851562 77.519531 200.175781 77.097656 200.523438 C 76.671875 200.871094 76.265625 201.238281 75.878906 201.628906 C 75.492188 202.015625 75.125 202.421875 74.777344 202.84375 C 74.429688 203.269531 74.105469 203.707031 73.800781 204.164062 C 73.496094 204.617188 73.214844 205.089844 72.957031 205.570312 C 72.695312 206.054688 72.460938 206.550781 72.253906 207.054688 C 72.042969 207.5625 71.859375 208.078125 71.699219 208.601562 C 71.539062 209.125 71.40625 209.65625 71.300781 210.195312 C 71.195312 210.730469 71.113281 211.273438 71.058594 211.820312 C 71.007812 212.363281 70.980469 212.910156 70.980469 213.457031 L 70.980469 219.660156 C 70.980469 220.207031 71.007812 220.753906 71.058594 221.300781 C 71.113281 221.84375 71.195312 222.386719 71.300781 222.925781 C 71.40625 223.460938 71.539062 223.992188 71.699219 224.515625 C 71.859375 225.042969 72.042969 225.558594 72.253906 226.0625 C 72.460938 226.570312 72.695312 227.0625 72.953125 227.546875 C 73.214844 228.03125 73.496094 228.5 73.800781 228.957031 C 74.101562 229.410156 74.429688 229.851562 74.777344 230.273438 C 75.125 230.699219 75.492188 231.105469 75.878906 231.492188 C 76.265625 231.878906 76.671875 232.246094 77.097656 232.59375 C 77.519531 232.941406 77.960938 233.269531 78.414062 233.570312 C 78.871094 233.875 79.339844 234.15625 79.824219 234.417969 C 80.308594 234.675781 80.800781 234.910156 81.308594 235.117188 C 81.8125 235.328125 82.328125 235.511719 82.855469 235.671875 C 83.378906 235.832031 83.910156 235.964844 84.445312 236.070312 C 84.984375 236.175781 85.523438 236.257812 86.070312 236.3125 C 86.617188 236.367188 87.164062 236.390625 87.710938 236.390625 L 176.058594 236.390625 Z M 176.058594 196.726562 " fill-opacity="1" fill-rule="nonzero"/><path fill="#ae6dec" d="M 158.453125 196.726562 C 158.453125 197.449219 158.417969 198.171875 158.347656 198.890625 C 158.277344 199.609375 158.171875 200.320312 158.03125 201.03125 C 157.886719 201.738281 157.714844 202.4375 157.503906 203.128906 C 157.292969 203.820312 157.050781 204.5 156.773438 205.167969 C 156.496094 205.835938 156.1875 206.488281 155.847656 207.125 C 155.507812 207.761719 155.136719 208.382812 154.734375 208.984375 C 154.335938 209.582031 153.902344 210.164062 153.445312 210.722656 C 152.988281 211.28125 152.503906 211.816406 151.992188 212.324219 C 151.480469 212.835938 150.945312 213.320312 150.386719 213.78125 C 149.828125 214.238281 149.25 214.667969 148.648438 215.070312 C 148.046875 215.472656 147.429688 215.84375 146.792969 216.183594 C 146.15625 216.523438 145.503906 216.832031 144.835938 217.109375 C 144.167969 217.382812 143.488281 217.628906 142.796875 217.835938 C 142.105469 218.046875 141.40625 218.222656 140.695312 218.363281 C 139.988281 218.503906 139.273438 218.609375 138.554688 218.679688 C 137.835938 218.75 137.113281 218.789062 136.394531 218.789062 L 70.980469 218.789062 L 70.980469 219.660156 C 70.980469 220.210938 71.007812 220.753906 71.058594 221.300781 C 71.113281 221.847656 71.195312 222.386719 71.300781 222.925781 C 71.40625 223.460938 71.539062 223.992188 71.699219 224.519531 C 71.859375 225.042969 72.042969 225.558594 72.253906 226.0625 C 72.464844 226.570312 72.695312 227.066406 72.957031 227.546875 C 73.214844 228.03125 73.496094 228.5 73.800781 228.957031 C 74.105469 229.410156 74.429688 229.851562 74.777344 230.273438 C 75.125 230.699219 75.492188 231.105469 75.878906 231.492188 C 76.269531 231.878906 76.671875 232.246094 77.097656 232.59375 C 77.519531 232.941406 77.960938 233.269531 78.414062 233.574219 C 78.871094 233.875 79.339844 234.15625 79.824219 234.417969 C 80.308594 234.675781 80.800781 234.910156 81.308594 235.117188 C 81.8125 235.328125 82.328125 235.511719 82.855469 235.671875 C 83.378906 235.832031 83.910156 235.964844 84.445312 236.070312 C 84.984375 236.175781 85.527344 236.257812 86.070312 236.3125 C 86.617188 236.367188 87.164062 236.390625 87.710938 236.390625 L 176.058594 236.390625 L 176.058594 196.726562 Z M 158.453125 196.726562 " fill-opacity="1" fill-rule="nonzero"/><path fill="#fe4f57" d="M 61.96875 236.390625 L 176.058594 236.390625 L 176.058594 275.675781 L 61.96875 275.675781 Z M 61.96875 236.390625 " fill-opacity="1" fill-rule="nonzero"/><path fill="#cb1925" d="M 156.722656 236.390625 C 156.722656 237.046875 156.691406 237.699219 156.628906 238.347656 C 156.5625 238.996094 156.46875 239.644531 156.339844 240.285156 C 156.214844 240.925781 156.054688 241.558594 155.867188 242.183594 C 155.675781 242.808594 155.457031 243.421875 155.207031 244.027344 C 154.957031 244.628906 154.675781 245.21875 154.367188 245.796875 C 154.0625 246.371094 153.726562 246.933594 153.363281 247.476562 C 153 248.019531 152.609375 248.542969 152.195312 249.046875 C 151.78125 249.554688 151.34375 250.035156 150.882812 250.5 C 150.417969 250.960938 149.9375 251.398438 149.429688 251.8125 C 148.925781 252.226562 148.402344 252.617188 147.859375 252.980469 C 147.316406 253.34375 146.753906 253.679688 146.179688 253.984375 C 145.601562 254.292969 145.011719 254.574219 144.410156 254.824219 C 143.804688 255.074219 143.191406 255.292969 142.566406 255.484375 C 141.941406 255.671875 141.308594 255.832031 140.667969 255.957031 C 140.027344 256.085938 139.378906 256.183594 138.730469 256.246094 C 138.078125 256.308594 137.429688 256.34375 136.773438 256.34375 L 61.96875 256.34375 L 61.96875 275.675781 L 176.058594 275.675781 L 176.058594 236.390625 Z M 156.722656 236.390625 " fill-opacity="1" fill-rule="nonzero"/><path fill="#ffa544" d="M 176.058594 327.085938 L 176.058594 275.675781 L 70.378906 275.675781 C 69.535156 275.675781 68.695312 275.71875 67.859375 275.800781 C 67.019531 275.882812 66.191406 276.007812 65.363281 276.171875 C 64.539062 276.335938 63.722656 276.539062 62.917969 276.785156 C 62.113281 277.027344 61.320312 277.3125 60.542969 277.632812 C 59.765625 277.957031 59.003906 278.316406 58.261719 278.710938 C 57.519531 279.109375 56.796875 279.542969 56.097656 280.007812 C 55.398438 280.476562 54.722656 280.976562 54.070312 281.511719 C 53.421875 282.046875 52.796875 282.609375 52.203125 283.207031 C 51.605469 283.800781 51.042969 284.421875 50.507812 285.074219 C 49.972656 285.726562 49.472656 286.402344 49.003906 287.101562 C 48.539062 287.800781 48.105469 288.523438 47.707031 289.265625 C 47.3125 290.007812 46.953125 290.765625 46.628906 291.542969 C 46.308594 292.324219 46.023438 293.113281 45.78125 293.917969 C 45.535156 294.726562 45.332031 295.542969 45.167969 296.367188 C 45.003906 297.191406 44.878906 298.023438 44.796875 298.863281 C 44.714844 299.699219 44.671875 300.539062 44.671875 301.382812 C 44.671875 302.222656 44.714844 303.0625 44.796875 303.902344 C 44.878906 304.738281 45.003906 305.570312 45.167969 306.394531 C 45.332031 307.222656 45.535156 308.039062 45.78125 308.84375 C 46.023438 309.648438 46.308594 310.441406 46.628906 311.21875 C 46.953125 311.996094 47.3125 312.757812 47.707031 313.5 C 48.105469 314.242188 48.539062 314.960938 49.003906 315.664062 C 49.472656 316.363281 49.972656 317.039062 50.507812 317.6875 C 51.042969 318.339844 51.605469 318.960938 52.203125 319.558594 C 52.796875 320.152344 53.421875 320.71875 54.070312 321.25 C 54.722656 321.785156 55.398438 322.285156 56.097656 322.753906 C 56.796875 323.222656 57.519531 323.65625 58.261719 324.050781 C 59.003906 324.449219 59.765625 324.808594 60.542969 325.128906 C 61.320312 325.453125 62.113281 325.734375 62.917969 325.980469 C 63.722656 326.222656 64.539062 326.429688 65.363281 326.59375 C 66.191406 326.757812 67.019531 326.878906 67.859375 326.960938 C 68.695312 327.046875 69.535156 327.085938 70.378906 327.085938 L 78.859375 327.085938 L 78.859375 298.832031 L 111.640625 298.832031 L 111.640625 327.085938 Z M 176.058594 327.085938 " fill-opacity="1" fill-rule="nonzero"/><path fill="#e57f3f" d="M 45.207031 306.613281 C 45.507812 308.050781 45.925781 309.449219 46.464844 310.8125 C 47 312.175781 47.652344 313.484375 48.414062 314.738281 C 49.175781 315.992188 50.039062 317.171875 51.003906 318.277344 C 51.96875 319.378906 53.019531 320.394531 54.15625 321.320312 C 55.292969 322.246094 56.5 323.070312 57.78125 323.789062 C 59.058594 324.507812 60.390625 325.109375 61.769531 325.601562 C 63.152344 326.09375 64.566406 326.464844 66.011719 326.710938 C 67.457031 326.960938 68.914062 327.085938 70.378906 327.085938 L 78.859375 327.085938 L 78.859375 306.613281 Z M 45.207031 306.613281 " fill-opacity="1" fill-rule="nonzero"/><path fill="#e57f3f" d="M 151.300781 275.675781 C 151.300781 292.761719 137.449219 306.613281 120.363281 306.613281 L 111.640625 306.613281 L 111.640625 327.085938 L 176.058594 327.085938 L 176.058594 275.675781 Z M 151.300781 275.675781 " fill-opacity="1" fill-rule="nonzero"/><path fill="#f2f0ff" d="M 271.070312 189.777344 L 271.070312 156.195312 L 175.679688 156.195312 L 175.679688 326.679688 L 300.773438 326.679688 L 300.773438 189.777344 Z M 271.070312 189.777344 " fill-opacity="1" fill-rule="nonzero"/><path fill="#d6cefb" d="M 273.527344 189.777344 L 273.527344 234.878906 C 273.527344 270.53125 244.625 299.4375 208.972656 299.4375 L 175.679688 299.4375 L 175.679688 326.679688 L 300.773438 326.679688 L 300.773438 189.777344 Z M 273.527344 189.777344 " fill-opacity="1" fill-rule="nonzero"/><path fill="#d2aaf9" d="M 271.070312 189.777344 L 300.773438 189.777344 L 271.070312 156.195312 Z M 271.070312 189.777344 " fill-opacity="1" fill-rule="nonzero"/><path fill="#5fb974" d="M 78.859375 363.039062 L 95.28125 350.640625 L 111.640625 363.039062 L 111.640625 298.832031 L 78.859375 298.832031 Z M 78.859375 363.039062 " fill-opacity="1" fill-rule="nonzero"/><path fill="#457e5e" d="M 100.480469 298.832031 L 100.480469 354.582031 L 111.640625 363.039062 L 111.640625 298.832031 Z M 100.480469 298.832031 " fill-opacity="1" fill-rule="nonzero"/><g clip-path="url(#8963bff39e)"><path fill="#292250" d="M 111.640625 364.679688 C 111.273438 364.683594 110.941406 364.570312 110.648438 364.347656 L 95.277344 352.699219 L 79.847656 364.351562 C 79.601562 364.539062 79.320312 364.644531 79.011719 364.675781 C 78.699219 364.703125 78.40625 364.648438 78.128906 364.507812 C 77.847656 364.371094 77.628906 364.167969 77.464844 363.902344 C 77.300781 363.640625 77.21875 363.351562 77.21875 363.039062 L 77.21875 298.832031 C 77.21875 298.613281 77.257812 298.40625 77.34375 298.203125 C 77.425781 298.003906 77.542969 297.824219 77.699219 297.671875 C 77.851562 297.515625 78.03125 297.398438 78.230469 297.316406 C 78.433594 297.230469 78.640625 297.191406 78.859375 297.191406 L 111.640625 297.191406 C 111.859375 297.191406 112.066406 297.230469 112.269531 297.316406 C 112.46875 297.398438 112.648438 297.515625 112.800781 297.671875 C 112.957031 297.824219 113.074219 298.003906 113.15625 298.203125 C 113.242188 298.40625 113.28125 298.613281 113.28125 298.832031 L 113.28125 363.039062 C 113.28125 363.257812 113.242188 363.46875 113.15625 363.667969 C 113.074219 363.871094 112.957031 364.046875 112.800781 364.199219 C 112.648438 364.355469 112.46875 364.472656 112.269531 364.554688 C 112.066406 364.640625 111.859375 364.679688 111.640625 364.679688 Z M 80.5 300.472656 L 80.5 359.746094 L 94.289062 349.332031 C 94.582031 349.109375 94.914062 349 95.28125 349 C 95.648438 349 95.976562 349.109375 96.269531 349.332031 L 110 359.738281 L 110 300.472656 Z M 80.5 300.472656 " fill-opacity="1" fill-rule="nonzero"/></g><path fill="#292250" d="M 176.027344 299.71875 L 147.089844 299.71875 C 146.871094 299.71875 146.660156 299.679688 146.460938 299.59375 C 146.257812 299.511719 146.082031 299.394531 145.925781 299.238281 C 145.773438 299.085938 145.65625 298.910156 145.570312 298.707031 C 145.488281 298.507812 145.445312 298.296875 145.445312 298.078125 C 145.445312 297.863281 145.488281 297.652344 145.570312 297.449219 C 145.65625 297.25 145.773438 297.070312 145.925781 296.917969 C 146.082031 296.765625 146.257812 296.644531 146.460938 296.5625 C 146.660156 296.480469 146.871094 296.4375 147.089844 296.4375 L 176.027344 296.4375 C 176.246094 296.4375 176.453125 296.480469 176.65625 296.5625 C 176.855469 296.644531 177.035156 296.765625 177.1875 296.917969 C 177.339844 297.070312 177.460938 297.25 177.542969 297.449219 C 177.625 297.652344 177.667969 297.863281 177.667969 298.078125 C 177.667969 298.296875 177.625 298.507812 177.542969 298.707031 C 177.460938 298.910156 177.339844 299.085938 177.1875 299.238281 C 177.035156 299.394531 176.855469 299.511719 176.65625 299.59375 C 176.453125 299.679688 176.246094 299.71875 176.027344 299.71875 Z M 176.027344 299.71875 " fill-opacity="1" fill-rule="nonzero"/><path fill="#292250" d="M 150.390625 256.785156 L 63.695312 256.785156 C 63.480469 256.785156 63.269531 256.746094 63.070312 256.660156 C 62.867188 256.578125 62.691406 256.460938 62.535156 256.304688 C 62.382812 256.152344 62.261719 255.972656 62.179688 255.773438 C 62.097656 255.570312 62.054688 255.363281 62.054688 255.144531 C 62.054688 254.925781 62.097656 254.71875 62.179688 254.515625 C 62.261719 254.316406 62.382812 254.136719 62.535156 253.984375 C 62.691406 253.828125 62.867188 253.710938 63.070312 253.628906 C 63.269531 253.542969 63.480469 253.503906 63.695312 253.503906 L 150.390625 253.503906 C 150.609375 253.503906 150.816406 253.542969 151.019531 253.628906 C 151.21875 253.710938 151.398438 253.828125 151.550781 253.984375 C 151.707031 254.136719 151.824219 254.316406 151.90625 254.515625 C 151.992188 254.71875 152.03125 254.925781 152.03125 255.144531 C 152.03125 255.363281 151.992188 255.570312 151.90625 255.773438 C 151.824219 255.972656 151.707031 256.152344 151.550781 256.304688 C 151.398438 256.460938 151.21875 256.578125 151.019531 256.660156 C 150.816406 256.746094 150.609375 256.785156 150.390625 256.785156 Z M 150.390625 256.785156 " fill-opacity="1" fill-rule="nonzero"/><path fill="#292250" d="M 175.445312 218.808594 L 152.867188 218.808594 C 152.648438 218.808594 152.441406 218.765625 152.238281 218.683594 C 152.039062 218.597656 151.859375 218.480469 151.707031 218.324219 C 151.554688 218.171875 151.433594 217.996094 151.351562 217.792969 C 151.269531 217.59375 151.226562 217.382812 151.226562 217.164062 C 151.226562 216.949219 151.269531 216.738281 151.351562 216.539062 C 151.433594 216.335938 151.554688 216.160156 151.707031 216.003906 C 151.859375 215.851562 152.039062 215.730469 152.238281 215.648438 C 152.441406 215.566406 152.648438 215.523438 152.867188 215.523438 L 175.445312 215.523438 C 175.664062 215.523438 175.871094 215.566406 176.074219 215.648438 C 176.273438 215.730469 176.453125 215.851562 176.605469 216.003906 C 176.757812 216.160156 176.878906 216.335938 176.960938 216.539062 C 177.042969 216.738281 177.085938 216.949219 177.085938 217.164062 C 177.085938 217.382812 177.042969 217.59375 176.960938 217.792969 C 176.878906 217.996094 176.757812 218.171875 176.605469 218.324219 C 176.453125 218.480469 176.273438 218.597656 176.074219 218.683594 C 175.871094 218.765625 175.664062 218.808594 175.445312 218.808594 Z M 175.445312 218.808594 " fill-opacity="1" fill-rule="nonzero"/><path fill="#292250" d="M 301.121094 191.917969 L 271.425781 191.917969 C 271.207031 191.917969 270.996094 191.878906 270.796875 191.792969 C 270.59375 191.710938 270.417969 191.59375 270.265625 191.4375 C 270.109375 191.285156 269.992188 191.105469 269.90625 190.90625 C 269.824219 190.703125 269.78125 190.496094 269.78125 190.277344 L 269.78125 156.703125 C 269.78125 156.363281 269.878906 156.050781 270.074219 155.769531 C 270.269531 155.488281 270.523438 155.289062 270.84375 155.167969 C 271.160156 155.046875 271.488281 155.027344 271.816406 155.109375 C 272.148438 155.191406 272.429688 155.359375 272.652344 155.617188 L 302.347656 189.191406 C 302.5625 189.433594 302.695312 189.710938 302.742188 190.03125 C 302.789062 190.351562 302.75 190.65625 302.617188 190.953125 C 302.484375 191.246094 302.28125 191.480469 302.011719 191.65625 C 301.738281 191.832031 301.441406 191.917969 301.121094 191.917969 Z M 273.066406 188.636719 L 297.476562 188.636719 L 273.066406 161.035156 Z M 273.066406 188.636719 " fill-opacity="1" fill-rule="nonzero"/><path fill="#292250" d="M 197.078125 188.839844 L 189.617188 188.839844 C 189.398438 188.839844 189.1875 188.796875 188.988281 188.714844 C 188.785156 188.632812 188.609375 188.511719 188.453125 188.359375 C 188.300781 188.207031 188.183594 188.027344 188.097656 187.828125 C 188.015625 187.625 187.972656 187.414062 187.972656 187.199219 C 187.972656 186.980469 188.015625 186.769531 188.097656 186.570312 C 188.183594 186.367188 188.300781 186.191406 188.453125 186.039062 C 188.609375 185.882812 188.785156 185.765625 188.988281 185.683594 C 189.1875 185.597656 189.398438 185.558594 189.617188 185.558594 L 197.078125 185.558594 C 197.292969 185.558594 197.503906 185.597656 197.703125 185.683594 C 197.90625 185.765625 198.082031 185.882812 198.238281 186.039062 C 198.390625 186.191406 198.511719 186.367188 198.59375 186.570312 C 198.675781 186.769531 198.71875 186.980469 198.71875 187.199219 C 198.71875 187.414062 198.675781 187.625 198.59375 187.828125 C 198.507812 188.027344 198.390625 188.207031 198.238281 188.359375 C 198.082031 188.511719 197.90625 188.632812 197.703125 188.714844 C 197.503906 188.796875 197.292969 188.839844 197.078125 188.839844 Z M 197.078125 188.839844 " fill-opacity="1" fill-rule="nonzero"/><path fill="#292250" d="M 197.078125 181.378906 L 189.617188 181.378906 C 189.398438 181.378906 189.1875 181.335938 188.988281 181.253906 C 188.785156 181.171875 188.609375 181.050781 188.453125 180.898438 C 188.300781 180.746094 188.183594 180.566406 188.097656 180.367188 C 188.015625 180.164062 187.972656 179.957031 187.972656 179.738281 C 187.972656 179.519531 188.015625 179.3125 188.097656 179.109375 C 188.183594 178.910156 188.300781 178.730469 188.453125 178.578125 C 188.609375 178.421875 188.785156 178.304688 188.988281 178.222656 C 189.1875 178.136719 189.398438 178.097656 189.617188 178.097656 L 197.078125 178.097656 C 197.292969 178.097656 197.503906 178.136719 197.703125 178.222656 C 197.90625 178.304688 198.082031 178.421875 198.238281 178.578125 C 198.390625 178.730469 198.511719 178.910156 198.59375 179.109375 C 198.675781 179.3125 198.71875 179.519531 198.71875 179.738281 C 198.71875 179.957031 198.675781 180.164062 198.59375 180.367188 C 198.507812 180.566406 198.390625 180.746094 198.238281 180.898438 C 198.082031 181.050781 197.90625 181.171875 197.703125 181.253906 C 197.503906 181.335938 197.292969 181.378906 197.078125 181.378906 Z M 197.078125 181.378906 " fill-opacity="1" fill-rule="nonzero"/><path fill="#292250" d="M 197.078125 173.941406 L 189.617188 173.941406 C 189.398438 173.941406 189.1875 173.902344 188.988281 173.816406 C 188.785156 173.734375 188.609375 173.617188 188.453125 173.460938 C 188.300781 173.308594 188.183594 173.132812 188.097656 172.929688 C 188.015625 172.730469 187.972656 172.519531 187.972656 172.300781 C 187.972656 172.085938 188.015625 171.875 188.097656 171.671875 C 188.183594 171.472656 188.300781 171.296875 188.453125 171.140625 C 188.609375 170.988281 188.785156 170.867188 188.988281 170.785156 C 189.1875 170.703125 189.398438 170.660156 189.617188 170.660156 L 197.078125 170.660156 C 197.292969 170.660156 197.503906 170.703125 197.703125 170.785156 C 197.90625 170.867188 198.082031 170.988281 198.238281 171.140625 C 198.390625 171.296875 198.511719 171.472656 198.59375 171.671875 C 198.675781 171.875 198.71875 172.085938 198.71875 172.300781 C 198.71875 172.519531 198.675781 172.730469 198.59375 172.929688 C 198.507812 173.132812 198.390625 173.308594 198.238281 173.460938 C 198.082031 173.617188 197.90625 173.734375 197.703125 173.816406 C 197.503906 173.902344 197.292969 173.941406 197.078125 173.941406 Z M 197.078125 173.941406 " fill-opacity="1" fill-rule="nonzero"/><path fill="#292250" d="M 189.617188 188.839844 C 189.398438 188.839844 189.1875 188.796875 188.988281 188.714844 C 188.785156 188.632812 188.609375 188.511719 188.453125 188.359375 C 188.300781 188.207031 188.183594 188.027344 188.097656 187.828125 C 188.015625 187.625 187.972656 187.414062 187.972656 187.199219 L 187.972656 172.277344 C 187.972656 172.058594 188.015625 171.851562 188.097656 171.648438 C 188.183594 171.449219 188.300781 171.269531 188.453125 171.117188 C 188.609375 170.960938 188.785156 170.84375 188.988281 170.761719 C 189.1875 170.675781 189.398438 170.636719 189.617188 170.636719 C 189.832031 170.636719 190.042969 170.675781 190.242188 170.761719 C 190.445312 170.84375 190.621094 170.960938 190.777344 171.117188 C 190.929688 171.269531 191.050781 171.449219 191.132812 171.648438 C 191.214844 171.851562 191.257812 172.058594 191.257812 172.277344 L 191.257812 187.199219 C 191.257812 187.414062 191.214844 187.625 191.132812 187.828125 C 191.050781 188.027344 190.929688 188.207031 190.777344 188.359375 C 190.621094 188.511719 190.445312 188.632812 190.242188 188.714844 C 190.042969 188.796875 189.832031 188.839844 189.617188 188.839844 Z M 189.617188 188.839844 " fill-opacity="1" fill-rule="nonzero"/><path fill="#292250" d="M 239.414062 188.839844 C 239.195312 188.839844 238.988281 188.796875 238.785156 188.714844 C 238.585938 188.632812 238.40625 188.511719 238.253906 188.359375 C 238.097656 188.207031 237.980469 188.027344 237.898438 187.828125 C 237.8125 187.625 237.773438 187.414062 237.773438 187.199219 L 237.773438 172.277344 C 237.773438 172.058594 237.8125 171.851562 237.898438 171.648438 C 237.980469 171.449219 238.097656 171.269531 238.253906 171.117188 C 238.40625 170.960938 238.585938 170.84375 238.785156 170.761719 C 238.988281 170.675781 239.195312 170.636719 239.414062 170.636719 C 239.632812 170.636719 239.839844 170.675781 240.042969 170.761719 C 240.242188 170.84375 240.421875 170.960938 240.574219 171.117188 C 240.726562 171.269531 240.847656 171.449219 240.929688 171.648438 C 241.011719 171.851562 241.054688 172.058594 241.054688 172.277344 L 241.054688 187.199219 C 241.054688 187.414062 241.011719 187.625 240.929688 187.828125 C 240.847656 188.027344 240.726562 188.207031 240.574219 188.359375 C 240.421875 188.511719 240.242188 188.632812 240.042969 188.714844 C 239.839844 188.796875 239.632812 188.839844 239.414062 188.839844 Z M 239.414062 188.839844 " fill-opacity="1" fill-rule="nonzero"/><path fill="#292250" d="M 246.996094 181.296875 C 246.550781 181.296875 246.171875 181.144531 245.851562 180.832031 L 238.269531 173.453125 C 238.113281 173.300781 237.992188 173.125 237.90625 172.925781 C 237.820312 172.726562 237.773438 172.515625 237.773438 172.296875 C 237.769531 172.082031 237.808594 171.871094 237.886719 171.667969 C 237.96875 171.46875 238.085938 171.289062 238.238281 171.132812 C 238.386719 170.976562 238.566406 170.855469 238.765625 170.769531 C 238.964844 170.683594 239.171875 170.636719 239.390625 170.636719 C 239.609375 170.632812 239.820312 170.671875 240.019531 170.75 C 240.222656 170.832031 240.402344 170.949219 240.558594 171.101562 L 248.140625 178.480469 C 248.378906 178.710938 248.535156 178.992188 248.601562 179.320312 C 248.671875 179.648438 248.644531 179.964844 248.515625 180.273438 C 248.390625 180.582031 248.191406 180.832031 247.914062 181.019531 C 247.636719 181.203125 247.332031 181.296875 246.996094 181.296875 Z M 246.996094 181.296875 " fill-opacity="1" fill-rule="nonzero"/><path fill="#292250" d="M 254.558594 188.839844 C 254.34375 188.839844 254.132812 188.796875 253.933594 188.714844 C 253.730469 188.632812 253.554688 188.511719 253.398438 188.359375 C 253.246094 188.207031 253.125 188.027344 253.042969 187.828125 C 252.960938 187.625 252.917969 187.414062 252.917969 187.199219 L 252.917969 172.277344 C 252.917969 172.058594 252.960938 171.851562 253.042969 171.648438 C 253.125 171.449219 253.246094 171.269531 253.398438 171.117188 C 253.554688 170.960938 253.730469 170.84375 253.933594 170.761719 C 254.132812 170.675781 254.34375 170.636719 254.558594 170.636719 C 254.777344 170.636719 254.988281 170.675781 255.1875 170.761719 C 255.390625 170.84375 255.566406 170.960938 255.71875 171.117188 C 255.875 171.269531 255.992188 171.449219 256.078125 171.648438 C 256.160156 171.851562 256.203125 172.058594 256.203125 172.277344 L 256.203125 187.199219 C 256.203125 187.414062 256.160156 187.625 256.078125 187.828125 C 255.992188 188.027344 255.875 188.207031 255.71875 188.359375 C 255.566406 188.511719 255.390625 188.632812 255.1875 188.714844 C 254.988281 188.796875 254.777344 188.839844 254.558594 188.839844 Z M 254.558594 188.839844 " fill-opacity="1" fill-rule="nonzero"/><path fill="#292250" d="M 247 181.296875 C 246.667969 181.296875 246.363281 181.203125 246.085938 181.019531 C 245.808594 180.832031 245.605469 180.582031 245.480469 180.273438 C 245.355469 179.964844 245.324219 179.644531 245.394531 179.320312 C 245.460938 178.992188 245.617188 178.710938 245.855469 178.480469 L 253.4375 171.101562 C 253.59375 170.949219 253.773438 170.832031 253.976562 170.75 C 254.179688 170.671875 254.390625 170.632812 254.605469 170.636719 C 254.824219 170.636719 255.03125 170.683594 255.234375 170.769531 C 255.433594 170.855469 255.609375 170.976562 255.761719 171.132812 C 255.914062 171.289062 256.027344 171.464844 256.109375 171.667969 C 256.191406 171.871094 256.226562 172.082031 256.226562 172.296875 C 256.222656 172.515625 256.179688 172.726562 256.09375 172.925781 C 256.007812 173.125 255.886719 173.300781 255.730469 173.453125 L 248.144531 180.832031 C 247.828125 181.144531 247.445312 181.296875 247 181.296875 Z M 247 181.296875 " fill-opacity="1" fill-rule="nonzero"/><path fill="#292250" d="M 215.328125 188.839844 C 214.78125 188.839844 214.34375 188.621094 214.011719 188.183594 L 202.78125 173.265625 C 202.652344 173.089844 202.5625 172.898438 202.507812 172.6875 C 202.457031 172.476562 202.445312 172.265625 202.476562 172.050781 C 202.507812 171.835938 202.578125 171.636719 202.6875 171.449219 C 202.796875 171.261719 202.941406 171.105469 203.113281 170.972656 C 203.285156 170.84375 203.476562 170.75 203.6875 170.695312 C 203.898438 170.640625 204.109375 170.628906 204.324219 170.660156 C 204.539062 170.6875 204.742188 170.757812 204.929688 170.867188 C 205.117188 170.976562 205.273438 171.117188 205.40625 171.289062 L 216.636719 186.210938 C 216.824219 186.460938 216.929688 186.738281 216.960938 187.046875 C 216.988281 187.359375 216.933594 187.652344 216.792969 187.929688 C 216.65625 188.210938 216.453125 188.429688 216.1875 188.59375 C 215.925781 188.757812 215.636719 188.839844 215.324219 188.839844 Z M 215.328125 188.839844 " fill-opacity="1" fill-rule="nonzero"/><path fill="#292250" d="M 204.09375 188.839844 C 203.78125 188.839844 203.496094 188.757812 203.230469 188.59375 C 202.964844 188.429688 202.765625 188.210938 202.625 187.929688 C 202.488281 187.652344 202.433594 187.359375 202.460938 187.046875 C 202.488281 186.738281 202.597656 186.460938 202.785156 186.210938 L 214.011719 171.289062 C 214.144531 171.117188 214.304688 170.976562 214.492188 170.867188 C 214.679688 170.757812 214.878906 170.6875 215.09375 170.660156 C 215.308594 170.628906 215.523438 170.640625 215.730469 170.695312 C 215.941406 170.75 216.132812 170.84375 216.304688 170.972656 C 216.480469 171.105469 216.621094 171.261719 216.730469 171.449219 C 216.84375 171.636719 216.914062 171.835938 216.945312 172.050781 C 216.972656 172.265625 216.964844 172.476562 216.910156 172.6875 C 216.855469 172.898438 216.765625 173.089844 216.636719 173.261719 L 205.40625 188.183594 C 205.078125 188.621094 204.640625 188.839844 204.09375 188.839844 Z M 204.09375 188.839844 " fill-opacity="1" fill-rule="nonzero"/><path fill="#292250" d="M 220.648438 188.839844 C 220.519531 188.839844 220.386719 188.824219 220.261719 188.792969 C 220.132812 188.761719 220.011719 188.714844 219.894531 188.65625 C 219.777344 188.59375 219.667969 188.519531 219.570312 188.433594 C 219.46875 188.347656 219.382812 188.25 219.308594 188.140625 C 219.230469 188.035156 219.167969 187.917969 219.121094 187.796875 C 219.074219 187.675781 219.039062 187.546875 219.023438 187.417969 C 219.003906 187.285156 219.003906 187.15625 219.015625 187.023438 C 219.03125 186.894531 219.058594 186.765625 219.105469 186.644531 L 224.472656 171.722656 C 224.546875 171.515625 224.65625 171.335938 224.800781 171.175781 C 224.949219 171.015625 225.121094 170.886719 225.316406 170.796875 C 225.511719 170.703125 225.71875 170.652344 225.9375 170.640625 C 226.152344 170.632812 226.363281 170.664062 226.570312 170.738281 C 226.773438 170.808594 226.957031 170.917969 227.117188 171.066406 C 227.277344 171.210938 227.40625 171.382812 227.496094 171.578125 C 227.589844 171.777344 227.644531 171.984375 227.652344 172.199219 C 227.664062 172.417969 227.632812 172.628906 227.558594 172.832031 L 222.195312 187.753906 C 222.078125 188.078125 221.875 188.34375 221.59375 188.542969 C 221.308594 188.742188 220.996094 188.839844 220.648438 188.839844 Z M 220.648438 188.839844 " fill-opacity="1" fill-rule="nonzero"/><path fill="#292250" d="M 231.515625 188.839844 C 231.167969 188.839844 230.851562 188.742188 230.570312 188.542969 C 230.285156 188.34375 230.085938 188.078125 229.96875 187.753906 L 224.601562 172.832031 C 224.53125 172.628906 224.496094 172.417969 224.507812 172.199219 C 224.519531 171.980469 224.570312 171.773438 224.664062 171.578125 C 224.753906 171.378906 224.882812 171.207031 225.042969 171.0625 C 225.203125 170.914062 225.386719 170.804688 225.59375 170.730469 C 225.796875 170.660156 226.007812 170.625 226.226562 170.636719 C 226.441406 170.648438 226.648438 170.699219 226.847656 170.792969 C 227.042969 170.882812 227.214844 171.011719 227.363281 171.171875 C 227.507812 171.332031 227.617188 171.515625 227.691406 171.722656 L 233.058594 186.644531 C 233.101562 186.765625 233.132812 186.894531 233.144531 187.023438 C 233.160156 187.15625 233.15625 187.285156 233.140625 187.417969 C 233.121094 187.546875 233.089844 187.675781 233.042969 187.796875 C 232.992188 187.917969 232.933594 188.035156 232.855469 188.140625 C 232.78125 188.25 232.691406 188.347656 232.59375 188.433594 C 232.496094 188.519531 232.386719 188.59375 232.269531 188.65625 C 232.152344 188.714844 232.03125 188.761719 231.902344 188.792969 C 231.777344 188.824219 231.644531 188.839844 231.515625 188.839844 Z M 231.515625 188.839844 " fill-opacity="1" fill-rule="nonzero"/><path fill="#292250" d="M 229.078125 183.921875 L 222.871094 183.921875 C 222.652344 183.921875 222.441406 183.882812 222.242188 183.796875 C 222.039062 183.714844 221.863281 183.597656 221.710938 183.441406 C 221.554688 183.289062 221.4375 183.113281 221.351562 182.910156 C 221.269531 182.710938 221.226562 182.5 221.226562 182.28125 C 221.226562 182.066406 221.269531 181.855469 221.351562 181.652344 C 221.4375 181.453125 221.554688 181.277344 221.710938 181.121094 C 221.863281 180.96875 222.039062 180.847656 222.242188 180.765625 C 222.441406 180.683594 222.652344 180.640625 222.871094 180.640625 L 229.078125 180.640625 C 229.296875 180.640625 229.503906 180.683594 229.707031 180.765625 C 229.90625 180.847656 230.085938 180.96875 230.238281 181.121094 C 230.394531 181.277344 230.511719 181.453125 230.59375 181.652344 C 230.679688 181.855469 230.71875 182.066406 230.71875 182.28125 C 230.71875 182.5 230.679688 182.710938 230.59375 182.910156 C 230.511719 183.113281 230.394531 183.289062 230.238281 183.441406 C 230.085938 183.597656 229.90625 183.714844 229.707031 183.796875 C 229.503906 183.882812 229.296875 183.921875 229.078125 183.921875 Z M 229.078125 183.921875 " fill-opacity="1" fill-rule="nonzero"/><path fill="#292250" d="M 210.914062 232.429688 L 191.640625 232.429688 C 191.421875 232.429688 191.210938 232.390625 191.011719 232.304688 C 190.808594 232.222656 190.632812 232.105469 190.476562 231.949219 C 190.324219 231.796875 190.207031 231.617188 190.121094 231.417969 C 190.039062 231.214844 189.996094 231.007812 189.996094 230.789062 L 189.996094 211.511719 C 189.996094 211.292969 190.039062 211.085938 190.121094 210.882812 C 190.207031 210.683594 190.324219 210.503906 190.476562 210.351562 C 190.632812 210.199219 190.808594 210.078125 191.011719 209.996094 C 191.210938 209.914062 191.421875 209.871094 191.640625 209.871094 L 210.914062 209.871094 C 211.132812 209.871094 211.34375 209.914062 211.542969 209.996094 C 211.746094 210.078125 211.921875 210.199219 212.078125 210.351562 C 212.230469 210.503906 212.347656 210.683594 212.433594 210.882812 C 212.515625 211.085938 212.558594 211.292969 212.558594 211.511719 L 212.558594 230.789062 C 212.558594 231.007812 212.515625 231.214844 212.433594 231.417969 C 212.347656 231.617188 212.230469 231.796875 212.078125 231.949219 C 211.921875 232.105469 211.746094 232.222656 211.542969 232.304688 C 211.34375 232.390625 211.132812 232.429688 210.914062 232.429688 Z M 193.28125 229.148438 L 209.273438 229.148438 L 209.273438 213.152344 L 193.28125 213.152344 Z M 193.28125 229.148438 " fill-opacity="1" fill-rule="nonzero"/><path fill="#292250" d="M 257.871094 213.683594 L 229.019531 213.683594 C 228.804688 213.683594 228.59375 213.640625 228.390625 213.558594 C 228.191406 213.472656 228.015625 213.355469 227.859375 213.203125 C 227.707031 213.046875 227.585938 212.871094 227.503906 212.667969 C 227.421875 212.46875 227.378906 212.257812 227.378906 212.042969 C 227.378906 211.824219 227.421875 211.613281 227.503906 211.414062 C 227.585938 211.210938 227.707031 211.035156 227.859375 210.878906 C 228.015625 210.726562 228.191406 210.609375 228.390625 210.523438 C 228.59375 210.441406 228.804688 210.398438 229.019531 210.398438 L 257.871094 210.398438 C 258.085938 210.398438 258.296875 210.441406 258.496094 210.523438 C 258.699219 210.609375 258.875 210.726562 259.03125 210.878906 C 259.183594 211.035156 259.304688 211.210938 259.386719 211.414062 C 259.46875 211.613281 259.511719 211.824219 259.511719 212.042969 C 259.511719 212.257812 259.46875 212.46875 259.386719 212.667969 C 259.304688 212.871094 259.183594 213.046875 259.03125 213.203125 C 258.875 213.355469 258.699219 213.472656 258.496094 213.558594 C 258.296875 213.640625 258.085938 213.683594 257.871094 213.683594 Z M 257.871094 213.683594 " fill-opacity="1" fill-rule="nonzero"/><path fill="#292250" d="M 284.171875 222.734375 L 229.019531 222.734375 C 228.804688 222.734375 228.59375 222.691406 228.390625 222.609375 C 228.191406 222.523438 228.015625 222.40625 227.859375 222.253906 C 227.707031 222.097656 227.585938 221.921875 227.503906 221.71875 C 227.421875 221.519531 227.378906 221.308594 227.378906 221.09375 C 227.378906 220.875 227.421875 220.664062 227.503906 220.464844 C 227.585938 220.261719 227.707031 220.085938 227.859375 219.929688 C 228.015625 219.777344 228.191406 219.660156 228.390625 219.574219 C 228.59375 219.492188 228.804688 219.449219 229.019531 219.449219 L 284.171875 219.449219 C 284.390625 219.449219 284.601562 219.492188 284.800781 219.574219 C 285.003906 219.660156 285.179688 219.777344 285.335938 219.929688 C 285.488281 220.085938 285.605469 220.261719 285.691406 220.464844 C 285.773438 220.664062 285.816406 220.875 285.816406 221.09375 C 285.816406 221.308594 285.773438 221.519531 285.691406 221.71875 C 285.605469 221.921875 285.488281 222.097656 285.335938 222.253906 C 285.179688 222.40625 285.003906 222.523438 284.800781 222.609375 C 284.601562 222.691406 284.390625 222.734375 284.171875 222.734375 Z M 284.171875 222.734375 " fill-opacity="1" fill-rule="nonzero"/><path fill="#292250" d="M 284.171875 231.785156 L 229.019531 231.785156 C 228.804688 231.785156 228.59375 231.742188 228.390625 231.660156 C 228.191406 231.574219 228.015625 231.457031 227.859375 231.304688 C 227.707031 231.148438 227.585938 230.972656 227.503906 230.769531 C 227.421875 230.570312 227.378906 230.359375 227.378906 230.144531 C 227.378906 229.925781 227.421875 229.714844 227.503906 229.515625 C 227.585938 229.3125 227.707031 229.136719 227.859375 228.980469 C 228.015625 228.828125 228.191406 228.710938 228.390625 228.625 C 228.59375 228.542969 228.804688 228.5 229.019531 228.5 L 284.171875 228.5 C 284.390625 228.5 284.601562 228.542969 284.800781 228.625 C 285.003906 228.710938 285.179688 228.828125 285.335938 228.980469 C 285.488281 229.136719 285.605469 229.3125 285.691406 229.515625 C 285.773438 229.714844 285.816406 229.925781 285.816406 230.144531 C 285.816406 230.359375 285.773438 230.570312 285.691406 230.769531 C 285.605469 230.972656 285.488281 231.148438 285.335938 231.304688 C 285.179688 231.457031 285.003906 231.574219 284.800781 231.660156 C 284.601562 231.742188 284.390625 231.785156 284.171875 231.785156 Z M 284.171875 231.785156 " fill-opacity="1" fill-rule="nonzero"/><path fill="#292250" d="M 210.914062 271.902344 L 191.640625 271.902344 C 191.421875 271.902344 191.210938 271.859375 191.011719 271.777344 C 190.808594 271.695312 190.632812 271.574219 190.476562 271.421875 C 190.324219 271.269531 190.207031 271.089844 190.121094 270.890625 C 190.039062 270.6875 189.996094 270.480469 189.996094 270.261719 L 189.996094 250.984375 C 189.996094 250.765625 190.039062 250.558594 190.121094 250.355469 C 190.207031 250.15625 190.324219 249.976562 190.476562 249.824219 C 190.632812 249.667969 190.808594 249.550781 191.011719 249.46875 C 191.210938 249.382812 191.421875 249.34375 191.640625 249.34375 L 210.914062 249.34375 C 211.132812 249.34375 211.34375 249.382812 211.542969 249.46875 C 211.746094 249.550781 211.921875 249.667969 212.078125 249.824219 C 212.230469 249.976562 212.347656 250.15625 212.433594 250.355469 C 212.515625 250.558594 212.558594 250.765625 212.558594 250.984375 L 212.558594 270.261719 C 212.558594 270.480469 212.515625 270.6875 212.433594 270.890625 C 212.347656 271.089844 212.230469 271.269531 212.078125 271.421875 C 211.921875 271.574219 211.746094 271.695312 211.542969 271.777344 C 211.34375 271.859375 211.132812 271.902344 210.914062 271.902344 Z M 193.28125 268.621094 L 209.273438 268.621094 L 209.273438 252.625 L 193.28125 252.625 Z M 193.28125 268.621094 " fill-opacity="1" fill-rule="nonzero"/><path fill="#292250" d="M 257.871094 253.15625 L 229.019531 253.15625 C 228.804688 253.15625 228.59375 253.113281 228.390625 253.03125 C 228.191406 252.945312 228.015625 252.828125 227.859375 252.671875 C 227.707031 252.519531 227.585938 252.34375 227.503906 252.140625 C 227.421875 251.941406 227.378906 251.730469 227.378906 251.511719 C 227.378906 251.296875 227.421875 251.085938 227.503906 250.886719 C 227.585938 250.683594 227.707031 250.507812 227.859375 250.351562 C 228.015625 250.199219 228.191406 250.078125 228.390625 249.996094 C 228.59375 249.914062 228.804688 249.871094 229.019531 249.871094 L 257.871094 249.871094 C 258.085938 249.871094 258.296875 249.914062 258.496094 249.996094 C 258.699219 250.078125 258.875 250.199219 259.03125 250.351562 C 259.183594 250.507812 259.304688 250.683594 259.386719 250.886719 C 259.46875 251.085938 259.511719 251.296875 259.511719 251.511719 C 259.511719 251.730469 259.46875 251.941406 259.386719 252.140625 C 259.304688 252.34375 259.183594 252.519531 259.03125 252.671875 C 258.875 252.828125 258.699219 252.945312 258.496094 253.03125 C 258.296875 253.113281 258.085938 253.15625 257.871094 253.15625 Z M 257.871094 253.15625 " fill-opacity="1" fill-rule="nonzero"/><path fill="#292250" d="M 277.855469 262.207031 L 229.019531 262.207031 C 228.804688 262.207031 228.59375 262.164062 228.390625 262.082031 C 228.191406 261.996094 228.015625 261.878906 227.859375 261.722656 C 227.707031 261.570312 227.585938 261.394531 227.503906 261.191406 C 227.421875 260.992188 227.378906 260.78125 227.378906 260.5625 C 227.378906 260.347656 227.421875 260.136719 227.503906 259.9375 C 227.585938 259.734375 227.707031 259.558594 227.859375 259.402344 C 228.015625 259.25 228.191406 259.128906 228.390625 259.046875 C 228.59375 258.964844 228.804688 258.921875 229.019531 258.921875 L 277.855469 258.921875 C 278.074219 258.921875 278.28125 258.964844 278.484375 259.046875 C 278.683594 259.128906 278.863281 259.25 279.015625 259.402344 C 279.171875 259.558594 279.289062 259.734375 279.371094 259.9375 C 279.457031 260.136719 279.496094 260.347656 279.496094 260.5625 C 279.496094 260.78125 279.457031 260.992188 279.371094 261.191406 C 279.289062 261.394531 279.171875 261.570312 279.015625 261.722656 C 278.863281 261.878906 278.683594 261.996094 278.484375 262.082031 C 278.28125 262.164062 278.074219 262.207031 277.855469 262.207031 Z M 277.855469 262.207031 " fill-opacity="1" fill-rule="nonzero"/><path fill="#292250" d="M 276.363281 271.253906 L 229.019531 271.253906 C 228.804688 271.253906 228.59375 271.214844 228.390625 271.128906 C 228.191406 271.046875 228.015625 270.929688 227.859375 270.773438 C 227.707031 270.621094 227.585938 270.445312 227.503906 270.242188 C 227.421875 270.042969 227.378906 269.832031 227.378906 269.613281 C 227.378906 269.398438 227.421875 269.1875 227.503906 268.984375 C 227.585938 268.785156 227.707031 268.609375 227.859375 268.453125 C 228.015625 268.300781 228.191406 268.179688 228.390625 268.097656 C 228.59375 268.015625 228.804688 267.972656 229.019531 267.972656 L 276.359375 267.972656 C 276.578125 267.972656 276.789062 268.015625 276.988281 268.097656 C 277.191406 268.179688 277.367188 268.300781 277.523438 268.453125 C 277.675781 268.609375 277.792969 268.785156 277.878906 268.984375 C 277.960938 269.1875 278.003906 269.398438 278.003906 269.613281 C 278.003906 269.832031 277.960938 270.042969 277.878906 270.242188 C 277.792969 270.445312 277.675781 270.621094 277.523438 270.773438 C 277.367188 270.929688 277.191406 271.046875 276.988281 271.128906 C 276.789062 271.214844 276.578125 271.253906 276.359375 271.253906 Z M 276.363281 271.253906 " fill-opacity="1" fill-rule="nonzero"/><path fill="#292250" d="M 210.914062 311.375 L 191.640625 311.375 C 191.421875 311.375 191.210938 311.332031 191.011719 311.25 C 190.808594 311.167969 190.632812 311.046875 190.476562 310.894531 C 190.324219 310.738281 190.207031 310.5625 190.121094 310.359375 C 190.039062 310.160156 189.996094 309.949219 189.996094 309.734375 L 189.996094 290.457031 C 189.996094 290.238281 190.039062 290.027344 190.121094 289.828125 C 190.207031 289.625 190.324219 289.449219 190.476562 289.296875 C 190.632812 289.140625 190.808594 289.023438 191.011719 288.941406 C 191.210938 288.855469 191.421875 288.816406 191.640625 288.816406 L 210.914062 288.816406 C 211.132812 288.816406 211.34375 288.855469 211.542969 288.941406 C 211.746094 289.023438 211.921875 289.140625 212.078125 289.296875 C 212.230469 289.449219 212.347656 289.625 212.433594 289.828125 C 212.515625 290.027344 212.558594 290.238281 212.558594 290.457031 L 212.558594 309.734375 C 212.558594 309.949219 212.515625 310.160156 212.433594 310.359375 C 212.347656 310.5625 212.230469 310.738281 212.078125 310.894531 C 211.921875 311.046875 211.746094 311.167969 211.542969 311.25 C 211.34375 311.332031 211.132812 311.375 210.914062 311.375 Z M 193.28125 308.089844 L 209.273438 308.089844 L 209.273438 292.097656 L 193.28125 292.097656 Z M 193.28125 308.089844 " fill-opacity="1" fill-rule="nonzero"/><path fill="#292250" d="M 257.871094 292.625 L 229.019531 292.625 C 228.804688 292.625 228.59375 292.585938 228.390625 292.5 C 228.191406 292.417969 228.015625 292.300781 227.859375 292.144531 C 227.707031 291.992188 227.585938 291.8125 227.503906 291.613281 C 227.421875 291.410156 227.378906 291.203125 227.378906 290.984375 C 227.378906 290.765625 227.421875 290.558594 227.503906 290.355469 C 227.585938 290.15625 227.707031 289.976562 227.859375 289.824219 C 228.015625 289.671875 228.191406 289.550781 228.390625 289.46875 C 228.59375 289.386719 228.804688 289.34375 229.019531 289.34375 L 257.871094 289.34375 C 258.085938 289.34375 258.296875 289.386719 258.496094 289.46875 C 258.699219 289.550781 258.875 289.671875 259.03125 289.824219 C 259.183594 289.976562 259.304688 290.15625 259.386719 290.355469 C 259.46875 290.558594 259.511719 290.765625 259.511719 290.984375 C 259.511719 291.203125 259.46875 291.410156 259.386719 291.613281 C 259.304688 291.8125 259.183594 291.992188 259.03125 292.144531 C 258.875 292.300781 258.699219 292.417969 258.496094 292.5 C 258.296875 292.585938 258.085938 292.625 257.871094 292.625 Z M 257.871094 292.625 " fill-opacity="1" fill-rule="nonzero"/><path fill="#292250" d="M 284.171875 301.675781 L 229.019531 301.675781 C 228.804688 301.675781 228.59375 301.636719 228.390625 301.550781 C 228.191406 301.46875 228.015625 301.351562 227.859375 301.195312 C 227.707031 301.042969 227.585938 300.863281 227.503906 300.664062 C 227.421875 300.460938 227.378906 300.253906 227.378906 300.035156 C 227.378906 299.816406 227.421875 299.609375 227.503906 299.40625 C 227.585938 299.207031 227.707031 299.027344 227.859375 298.875 C 228.015625 298.722656 228.191406 298.601562 228.390625 298.519531 C 228.59375 298.4375 228.804688 298.394531 229.019531 298.394531 L 284.171875 298.394531 C 284.390625 298.394531 284.601562 298.4375 284.800781 298.519531 C 285.003906 298.601562 285.179688 298.722656 285.335938 298.875 C 285.488281 299.027344 285.605469 299.207031 285.691406 299.40625 C 285.773438 299.609375 285.816406 299.816406 285.816406 300.035156 C 285.816406 300.253906 285.773438 300.460938 285.691406 300.664062 C 285.605469 300.863281 285.488281 301.042969 285.335938 301.195312 C 285.179688 301.351562 285.003906 301.46875 284.800781 301.550781 C 284.601562 301.636719 284.390625 301.675781 284.171875 301.675781 Z M 284.171875 301.675781 " fill-opacity="1" fill-rule="nonzero"/><path fill="#292250" d="M 284.171875 310.726562 L 229.019531 310.726562 C 228.804688 310.726562 228.59375 310.6875 228.390625 310.601562 C 228.191406 310.519531 228.015625 310.402344 227.859375 310.246094 C 227.707031 310.09375 227.585938 309.914062 227.503906 309.714844 C 227.421875 309.511719 227.378906 309.304688 227.378906 309.085938 C 227.378906 308.867188 227.421875 308.660156 227.503906 308.457031 C 227.585938 308.257812 227.707031 308.078125 227.859375 307.925781 C 228.015625 307.773438 228.191406 307.652344 228.390625 307.570312 C 228.59375 307.488281 228.804688 307.445312 229.019531 307.445312 L 284.171875 307.445312 C 284.390625 307.445312 284.601562 307.488281 284.800781 307.570312 C 285.003906 307.652344 285.179688 307.773438 285.335938 307.925781 C 285.488281 308.078125 285.605469 308.257812 285.691406 308.457031 C 285.773438 308.660156 285.816406 308.867188 285.816406 309.085938 C 285.816406 309.304688 285.773438 309.511719 285.691406 309.714844 C 285.605469 309.914062 285.488281 310.09375 285.335938 310.246094 C 285.179688 310.402344 285.003906 310.519531 284.800781 310.601562 C 284.601562 310.6875 284.390625 310.726562 284.171875 310.726562 Z M 284.171875 310.726562 " fill-opacity="1" fill-rule="nonzero"/><path fill="#292250" d="M 202.875 264.867188 C 202.421875 264.867188 202.035156 264.707031 201.714844 264.382812 L 196.234375 258.90625 C 196.082031 258.75 195.960938 258.574219 195.878906 258.375 C 195.796875 258.171875 195.753906 257.960938 195.753906 257.746094 C 195.753906 257.527344 195.796875 257.316406 195.878906 257.117188 C 195.960938 256.914062 196.082031 256.738281 196.234375 256.585938 C 196.386719 256.429688 196.566406 256.3125 196.765625 256.226562 C 196.96875 256.144531 197.175781 256.101562 197.394531 256.101562 C 197.613281 256.101562 197.820312 256.144531 198.023438 256.226562 C 198.222656 256.3125 198.402344 256.429688 198.554688 256.585938 L 202.875 260.902344 L 217.882812 245.894531 C 218.035156 245.738281 218.214844 245.621094 218.414062 245.535156 C 218.617188 245.453125 218.828125 245.410156 219.042969 245.410156 C 219.261719 245.410156 219.472656 245.453125 219.671875 245.535156 C 219.875 245.617188 220.050781 245.738281 220.207031 245.890625 C 220.359375 246.046875 220.480469 246.222656 220.5625 246.425781 C 220.644531 246.625 220.6875 246.835938 220.6875 247.054688 C 220.6875 247.273438 220.644531 247.480469 220.5625 247.683594 C 220.476562 247.882812 220.359375 248.0625 220.203125 248.214844 L 204.035156 264.382812 C 203.714844 264.707031 203.328125 264.867188 202.875 264.867188 Z M 202.875 264.867188 " fill-opacity="1" fill-rule="nonzero"/><path fill="#b9b9b9" d="M 294.25 273.4375 L 278.460938 282.691406 L 275.878906 264.578125 L 308.539062 196.851562 L 326.910156 205.710938 Z M 294.25 273.4375 " fill-opacity="1" fill-rule="nonzero"/><path fill="#ffa544" d="M 317.71875 177.816406 L 336.089844 186.675781 L 326.914062 205.707031 L 308.542969 196.847656 Z M 317.71875 177.816406 " fill-opacity="1" fill-rule="nonzero"/><path fill="#838283" d="M 308.539062 196.851562 L 308.460938 197.007812 L 319.820312 202.484375 L 287.160156 270.214844 L 277.488281 275.882812 L 278.460938 282.691406 L 294.25 273.4375 L 326.910156 205.710938 Z M 308.539062 196.851562 " fill-opacity="1" fill-rule="nonzero"/><path fill="#e57f3f" d="M 317.71875 177.816406 L 317.640625 177.976562 L 329 183.453125 L 319.898438 202.328125 L 326.910156 205.710938 L 336.089844 186.675781 Z M 317.71875 177.816406 " fill-opacity="1" fill-rule="nonzero"/><path fill="#292250" d="M 278.460938 284.332031 C 278.261719 284.332031 278.074219 284.296875 277.886719 284.230469 C 277.703125 284.160156 277.535156 284.0625 277.386719 283.929688 C 277.238281 283.800781 277.113281 283.652344 277.019531 283.476562 C 276.925781 283.304688 276.863281 283.117188 276.835938 282.921875 L 274.253906 264.808594 C 274.207031 264.480469 274.253906 264.164062 274.398438 263.867188 L 307.0625 196.136719 C 307.15625 195.941406 307.285156 195.769531 307.445312 195.625 C 307.609375 195.480469 307.792969 195.371094 308 195.300781 C 308.203125 195.230469 308.414062 195.199219 308.632812 195.210938 C 308.851562 195.222656 309.054688 195.277344 309.253906 195.371094 L 327.625 204.230469 C 327.820312 204.324219 327.992188 204.453125 328.136719 204.617188 C 328.28125 204.777344 328.390625 204.960938 328.460938 205.167969 C 328.535156 205.375 328.5625 205.585938 328.550781 205.800781 C 328.539062 206.019531 328.484375 206.226562 328.390625 206.421875 L 295.730469 274.152344 C 295.585938 274.453125 295.367188 274.6875 295.082031 274.855469 L 279.292969 284.109375 C 279.035156 284.257812 278.757812 284.332031 278.460938 284.332031 Z M 277.574219 264.839844 L 279.742188 280.039062 L 292.988281 272.273438 L 324.71875 206.476562 L 309.304688 199.042969 Z M 294.25 273.4375 Z M 294.25 273.4375 " fill-opacity="1" fill-rule="nonzero"/><g clip-path="url(#3b566dd94d)"><path fill="#292250" d="M 326.910156 207.351562 C 326.660156 207.351562 326.421875 207.296875 326.199219 207.1875 L 307.828125 198.328125 C 307.628906 198.234375 307.460938 198.105469 307.316406 197.941406 C 307.167969 197.78125 307.0625 197.597656 306.988281 197.390625 C 306.917969 197.183594 306.886719 196.972656 306.898438 196.757812 C 306.914062 196.539062 306.964844 196.332031 307.0625 196.136719 L 316.238281 177.105469 C 316.332031 176.90625 316.460938 176.738281 316.625 176.59375 C 316.785156 176.449219 316.96875 176.339844 317.175781 176.265625 C 317.382812 176.195312 317.59375 176.164062 317.808594 176.179688 C 318.027344 176.191406 318.234375 176.242188 318.429688 176.339844 L 336.800781 185.199219 C 337 185.292969 337.167969 185.421875 337.3125 185.582031 C 337.460938 185.746094 337.566406 185.929688 337.640625 186.136719 C 337.710938 186.339844 337.742188 186.550781 337.726562 186.769531 C 337.714844 186.988281 337.664062 187.191406 337.566406 187.390625 L 328.390625 206.421875 C 328.253906 206.707031 328.050781 206.933594 327.785156 207.101562 C 327.515625 207.265625 327.226562 207.351562 326.910156 207.351562 Z M 310.730469 196.085938 L 326.144531 203.519531 L 333.898438 187.441406 L 318.484375 180.007812 Z M 310.730469 196.085938 " fill-opacity="1" fill-rule="nonzero"/></g><path fill="#292250" d="M 301.121094 328.785156 L 176.058594 328.785156 C 175.84375 328.785156 175.632812 328.742188 175.429688 328.660156 C 175.230469 328.578125 175.054688 328.457031 174.898438 328.304688 C 174.746094 328.148438 174.625 327.972656 174.542969 327.769531 C 174.460938 327.570312 174.417969 327.359375 174.417969 327.144531 L 174.417969 156.703125 C 174.417969 156.484375 174.460938 156.277344 174.542969 156.074219 C 174.625 155.875 174.746094 155.695312 174.898438 155.542969 C 175.054688 155.390625 175.230469 155.269531 175.429688 155.1875 C 175.632812 155.105469 175.84375 155.0625 176.058594 155.0625 L 271.425781 155.0625 C 271.640625 155.0625 271.851562 155.105469 272.050781 155.1875 C 272.253906 155.269531 272.429688 155.390625 272.585938 155.542969 C 272.738281 155.695312 272.859375 155.875 272.941406 156.074219 C 273.023438 156.277344 273.066406 156.484375 273.066406 156.703125 L 273.066406 188.636719 L 301.121094 188.636719 C 301.335938 188.636719 301.546875 188.675781 301.746094 188.761719 C 301.949219 188.84375 302.125 188.960938 302.28125 189.117188 C 302.433594 189.269531 302.550781 189.449219 302.636719 189.648438 C 302.71875 189.851562 302.761719 190.058594 302.761719 190.277344 L 302.761719 212.238281 C 302.761719 212.488281 302.707031 212.726562 302.597656 212.949219 L 277.574219 264.839844 L 279.742188 280.039062 L 292.988281 272.273438 L 299.640625 258.484375 C 299.804688 258.136719 300.0625 257.882812 300.40625 257.714844 C 300.753906 257.550781 301.109375 257.511719 301.484375 257.59375 C 301.859375 257.679688 302.164062 257.871094 302.402344 258.171875 C 302.640625 258.472656 302.761719 258.8125 302.761719 259.195312 L 302.761719 327.144531 C 302.761719 327.359375 302.71875 327.570312 302.636719 327.769531 C 302.550781 327.972656 302.433594 328.148438 302.28125 328.304688 C 302.125 328.457031 301.949219 328.578125 301.746094 328.660156 C 301.546875 328.742188 301.335938 328.785156 301.121094 328.785156 Z M 177.699219 325.5 L 299.476562 325.5 L 299.476562 266.378906 L 295.730469 274.152344 C 295.585938 274.453125 295.367188 274.6875 295.082031 274.855469 L 279.292969 284.109375 C 279.175781 284.175781 279.050781 284.230469 278.921875 284.265625 C 278.792969 284.304688 278.660156 284.328125 278.527344 284.332031 C 278.394531 284.335938 278.261719 284.328125 278.128906 284.300781 C 277.996094 284.273438 277.871094 284.230469 277.75 284.171875 C 277.628906 284.113281 277.515625 284.039062 277.410156 283.953125 C 277.308594 283.867188 277.214844 283.769531 277.136719 283.660156 C 277.058594 283.550781 276.992188 283.433594 276.941406 283.3125 C 276.890625 283.1875 276.855469 283.058594 276.835938 282.921875 L 274.253906 264.8125 C 274.207031 264.480469 274.253906 264.167969 274.398438 263.867188 L 299.476562 211.863281 L 299.476562 191.917969 L 271.425781 191.917969 C 271.207031 191.917969 270.996094 191.878906 270.796875 191.792969 C 270.59375 191.710938 270.417969 191.59375 270.265625 191.4375 C 270.109375 191.285156 269.992188 191.105469 269.90625 190.90625 C 269.824219 190.703125 269.78125 190.496094 269.785156 190.277344 L 269.785156 158.34375 L 177.699219 158.34375 Z M 294.25 273.4375 Z M 294.25 273.4375 " fill-opacity="1" fill-rule="nonzero"/><g clip-path="url(#861291374e)"><path fill="#292250" d="M 176.058594 328.726562 L 111.640625 328.726562 C 111.421875 328.726562 111.214844 328.6875 111.011719 328.601562 C 110.8125 328.519531 110.632812 328.402344 110.480469 328.246094 C 110.328125 328.09375 110.207031 327.914062 110.125 327.714844 C 110.042969 327.511719 110 327.304688 110 327.085938 L 110 300.472656 L 80.5 300.472656 L 80.5 327.085938 C 80.5 327.304688 80.457031 327.511719 80.375 327.714844 C 80.292969 327.914062 80.171875 328.09375 80.019531 328.246094 C 79.867188 328.402344 79.6875 328.519531 79.488281 328.601562 C 79.285156 328.6875 79.078125 328.726562 78.859375 328.726562 L 70.378906 328.726562 C 55.300781 328.726562 43.03125 316.460938 43.03125 301.382812 C 43.03125 286.304688 55.300781 274.035156 70.378906 274.035156 L 176.058594 274.035156 C 176.277344 274.035156 176.484375 274.078125 176.6875 274.160156 C 176.886719 274.246094 177.066406 274.363281 177.21875 274.515625 C 177.375 274.671875 177.492188 274.847656 177.574219 275.050781 C 177.660156 275.25 177.699219 275.460938 177.699219 275.675781 L 177.699219 327.085938 C 177.699219 327.304688 177.660156 327.515625 177.574219 327.714844 C 177.492188 327.917969 177.375 328.09375 177.21875 328.246094 C 177.066406 328.402344 176.886719 328.519531 176.6875 328.601562 C 176.484375 328.6875 176.277344 328.726562 176.058594 328.726562 Z M 113.28125 325.445312 L 174.417969 325.445312 L 174.417969 277.316406 L 70.378906 277.316406 C 57.109375 277.316406 46.316406 288.113281 46.316406 301.382812 C 46.316406 314.648438 57.109375 325.445312 70.378906 325.445312 L 77.21875 325.445312 L 77.21875 298.832031 C 77.21875 298.613281 77.257812 298.40625 77.34375 298.203125 C 77.425781 298.003906 77.542969 297.824219 77.699219 297.671875 C 77.851562 297.515625 78.03125 297.398438 78.230469 297.316406 C 78.429688 297.230469 78.640625 297.191406 78.859375 297.191406 L 111.640625 297.191406 C 111.859375 297.191406 112.066406 297.230469 112.269531 297.316406 C 112.46875 297.398438 112.648438 297.515625 112.800781 297.671875 C 112.957031 297.824219 113.074219 298.003906 113.15625 298.203125 C 113.242188 298.40625 113.28125 298.613281 113.28125 298.832031 Z M 113.28125 325.445312 " fill-opacity="1" fill-rule="nonzero"/></g><path fill="#292250" d="M 176.058594 277.316406 L 61.96875 277.316406 C 61.75 277.316406 61.542969 277.277344 61.339844 277.191406 C 61.140625 277.109375 60.960938 276.992188 60.808594 276.835938 C 60.652344 276.683594 60.535156 276.507812 60.453125 276.304688 C 60.367188 276.105469 60.328125 275.894531 60.328125 275.675781 L 60.328125 236.390625 C 60.328125 236.175781 60.367188 235.964844 60.453125 235.765625 C 60.535156 235.5625 60.652344 235.386719 60.808594 235.230469 C 60.960938 235.078125 61.140625 234.960938 61.339844 234.875 C 61.542969 234.792969 61.75 234.75 61.96875 234.75 L 176.058594 234.75 C 176.277344 234.75 176.484375 234.792969 176.6875 234.875 C 176.886719 234.960938 177.066406 235.078125 177.21875 235.230469 C 177.375 235.386719 177.492188 235.5625 177.574219 235.765625 C 177.660156 235.964844 177.699219 236.175781 177.699219 236.390625 L 177.699219 275.675781 C 177.699219 275.894531 177.660156 276.105469 177.574219 276.304688 C 177.492188 276.507812 177.375 276.683594 177.21875 276.835938 C 177.066406 276.992188 176.886719 277.109375 176.6875 277.191406 C 176.484375 277.277344 176.277344 277.316406 176.058594 277.316406 Z M 63.609375 274.035156 L 174.417969 274.035156 L 174.417969 238.035156 L 63.609375 238.035156 Z M 63.609375 274.035156 " fill-opacity="1" fill-rule="nonzero"/><path fill="#292250" d="M 176.058594 238.035156 L 87.710938 238.035156 C 87.109375 238.03125 86.507812 238.003906 85.910156 237.941406 C 85.3125 237.882812 84.71875 237.796875 84.128906 237.675781 C 83.539062 237.558594 82.957031 237.414062 82.378906 237.238281 C 81.804688 237.0625 81.238281 236.859375 80.683594 236.628906 C 80.128906 236.398438 79.585938 236.140625 79.054688 235.859375 C 78.523438 235.574219 78.007812 235.265625 77.507812 234.929688 C 77.007812 234.597656 76.527344 234.238281 76.0625 233.855469 C 75.59375 233.476562 75.152344 233.070312 74.726562 232.644531 C 74.300781 232.21875 73.894531 231.773438 73.515625 231.308594 C 73.132812 230.84375 72.773438 230.363281 72.441406 229.863281 C 72.105469 229.363281 71.796875 228.847656 71.511719 228.316406 C 71.230469 227.785156 70.972656 227.242188 70.742188 226.6875 C 70.511719 226.132812 70.308594 225.566406 70.132812 224.992188 C 69.957031 224.414062 69.8125 223.832031 69.695312 223.242188 C 69.578125 222.652344 69.488281 222.058594 69.429688 221.460938 C 69.367188 220.863281 69.339844 220.261719 69.335938 219.660156 L 69.335938 213.457031 C 69.339844 212.855469 69.367188 212.257812 69.429688 211.660156 C 69.488281 211.058594 69.578125 210.464844 69.695312 209.875 C 69.8125 209.285156 69.957031 208.703125 70.132812 208.128906 C 70.308594 207.550781 70.511719 206.988281 70.742188 206.429688 C 70.972656 205.875 71.230469 205.332031 71.511719 204.800781 C 71.796875 204.269531 72.105469 203.757812 72.441406 203.257812 C 72.773438 202.757812 73.132812 202.273438 73.515625 201.808594 C 73.894531 201.34375 74.300781 200.898438 74.726562 200.472656 C 75.152344 200.046875 75.597656 199.644531 76.0625 199.261719 C 76.527344 198.878906 77.007812 198.523438 77.507812 198.1875 C 78.007812 197.855469 78.523438 197.542969 79.054688 197.261719 C 79.585938 196.976562 80.128906 196.71875 80.683594 196.488281 C 81.238281 196.257812 81.804688 196.054688 82.378906 195.882812 C 82.957031 195.707031 83.539062 195.558594 84.128906 195.441406 C 84.71875 195.324219 85.3125 195.234375 85.910156 195.175781 C 86.507812 195.117188 87.109375 195.085938 87.710938 195.085938 L 176.058594 195.085938 C 176.277344 195.085938 176.484375 195.128906 176.6875 195.210938 C 176.886719 195.292969 177.066406 195.414062 177.21875 195.566406 C 177.375 195.71875 177.492188 195.898438 177.574219 196.097656 C 177.660156 196.300781 177.699219 196.507812 177.699219 196.726562 L 177.699219 236.390625 C 177.699219 236.609375 177.660156 236.820312 177.574219 237.019531 C 177.492188 237.222656 177.375 237.398438 177.21875 237.554688 C 177.066406 237.707031 176.886719 237.824219 176.6875 237.910156 C 176.484375 237.992188 176.277344 238.035156 176.058594 238.035156 Z M 87.710938 198.367188 C 86.71875 198.371094 85.738281 198.46875 84.769531 198.660156 C 83.796875 198.855469 82.851562 199.140625 81.9375 199.519531 C 81.023438 199.902344 80.152344 200.367188 79.332031 200.917969 C 78.507812 201.46875 77.746094 202.09375 77.046875 202.792969 C 76.34375 203.492188 75.71875 204.253906 75.167969 205.078125 C 74.617188 205.902344 74.152344 206.773438 73.773438 207.6875 C 73.394531 208.601562 73.105469 209.542969 72.914062 210.515625 C 72.71875 211.488281 72.621094 212.46875 72.621094 213.457031 L 72.621094 219.660156 C 72.621094 220.652344 72.71875 221.632812 72.914062 222.601562 C 73.105469 223.574219 73.394531 224.519531 73.773438 225.433594 C 74.152344 226.347656 74.617188 227.21875 75.167969 228.039062 C 75.71875 228.863281 76.34375 229.625 77.046875 230.324219 C 77.746094 231.027344 78.507812 231.652344 79.332031 232.203125 C 80.15625 232.753906 81.023438 233.21875 81.9375 233.597656 C 82.851562 233.976562 83.796875 234.265625 84.769531 234.457031 C 85.738281 234.652344 86.71875 234.75 87.710938 234.75 L 174.417969 234.75 L 174.417969 198.367188 Z M 87.710938 198.367188 " fill-opacity="1" fill-rule="nonzero"/></svg>