<svg width="231" height="46" viewBox="0 0 231 46" fill="none" xmlns="http://www.w3.org/2000/svg">
<path d="M230.139 3.67835C228.086 1.39739 224.866 0.243298 221.848 0.0688862C217.716 -0.467956 218.105 2.21626 216.925 5.22084C216.79 5.27403 216.682 5.39526 216.629 5.54246C216.347 6.83014 215.087 8.64229 215.301 9.87554C213.302 14.7319 211.102 19.5622 208.526 24.1501C207.802 25.4242 207.077 26.7255 206.662 28.1344C206.487 28.2556 206.327 28.4696 206.327 28.6848C206.607 32.2127 206.917 35.7677 207.789 39.2027C208.459 40.3432 211.571 38.1699 212.417 37.6998C213.905 36.7338 215.583 36.0361 217.045 35.0441C219.018 34.1176 219.326 31.5694 220.372 29.8513C222.814 24.5125 225.538 19.159 227.617 13.699C228.166 12.801 228.784 11.8213 228.69 10.7216C230.099 8.77588 231.749 5.94571 230.139 3.67835ZM212.269 18.9722C212.967 17.5225 213.57 16.0468 214.254 14.5847C214.777 13.2562 216.267 11.2449 216.053 9.86317C216.079 9.83596 216.092 9.80875 216.106 9.76916C216.817 10.0772 217.528 10.3592 218.252 10.6276C215.369 17.0128 212.457 23.3857 209.627 29.7981C209.304 28.9532 208.526 28.3496 207.641 28.1752C208.835 24.9554 210.968 22.1648 212.269 18.9722ZM218.789 10.8416C220.117 11.3512 221.458 11.8349 222.787 12.3309C221.633 15.4975 219.89 18.3945 218.495 21.4535C216.831 24.6734 215.677 28.148 213.919 31.301C213.195 29.9317 211.263 29.4629 210.002 30.3745C212.873 23.8421 215.824 17.3344 218.789 10.8416ZM216.455 34.3464C215.234 35.07 213.96 35.7145 212.725 36.4121C211.236 35.4869 209.546 34.8424 207.855 34.4132C207.614 32.6419 207.453 30.8582 207.319 29.0609C208.633 29.2081 209.09 30.5898 208.969 31.7438C208.943 32.199 209.64 32.4007 209.841 31.9851C210.042 31.5558 210.378 31.1662 210.834 30.9782C211.746 30.5898 212.859 31.0858 213.221 31.9987C213.409 32.3339 213.262 32.8435 213.611 33.0847C213.839 33.2195 214.08 33.1119 214.254 32.9511C215.569 31.7834 216.468 32.9375 216.496 34.3464C216.468 34.3328 216.455 34.3464 216.455 34.3464ZM226.463 14.3162C223.445 20.7695 220.815 27.4776 217.354 33.702C217.233 32.1459 215.677 30.8718 214.242 31.8242C215.851 29.328 216.656 26.3767 218.038 23.7617C219.688 19.9778 221.848 16.4092 223.31 12.5461C224.437 12.9618 225.524 13.4714 226.624 13.9278C226.624 13.9278 226.624 13.9278 226.624 13.9414C226.571 14.0614 226.516 14.1963 226.463 14.3162ZM226.92 13.0694C223.498 11.4453 219.863 10.3852 216.388 8.8835C216.482 8.60147 216.59 8.31944 216.696 8.05102C220.547 8.41345 223.98 10.5868 227.388 12.2505C227.241 12.5189 227.08 12.801 226.92 13.0694ZM227.724 11.3512C224.303 9.71474 220.895 7.5686 217.045 7.12577C217.166 6.80416 217.3 6.48131 217.407 6.1597C218.775 6.64335 219.957 7.54139 221.366 7.95701C222.76 8.49385 224.182 8.99111 225.564 9.56754C226.302 10.0363 228.113 10.118 227.724 11.3512ZM217.891 5.31485C218.038 4.9116 218.158 4.49598 218.279 4.08036C218.669 3.08708 218.816 1.75982 219.715 1.08938C221.754 0.780141 223.914 1.10175 225.832 1.89341C230.259 3.70433 231.011 5.82448 228.221 9.79514C224.921 8.01144 221.178 7.12577 217.891 5.31485ZM206.46 40.906C204.864 41.6173 203.187 42.2209 201.671 43.093C198.586 45.1191 194.278 47.05 195.903 41.2017C194.319 41.3897 193.032 42.409 191.582 43.0126C183.184 46.058 193.434 37.043 184.767 40.5176C184.338 40.6512 183.748 41.1609 183.412 40.6376C183.292 40.4236 183.345 40.0748 183.586 39.9672C186.632 38.4111 191.033 37.6194 189.02 42.6229C190.737 43.1462 197.915 37.5254 196.801 41.7917C195.419 46.2324 199.364 43.2538 201.215 42.2481C202.731 41.3897 204.381 40.7861 205.964 40.0884C206.515 39.7396 207.011 40.598 206.46 40.906Z" fill="#545454"/>
<path d="M44.8884 14.5759V19.5186H29.3183V14.5759H44.8884ZM33.1626 8.0896H39.545V33.5154C39.545 34.3762 39.6786 35.0368 39.9457 35.4895C40.2129 35.9347 40.5617 36.2427 40.9996 36.4097C41.4337 36.5804 41.9124 36.662 42.4393 36.662C42.8438 36.662 43.2111 36.6324 43.5377 36.573C43.8717 36.5136 44.1314 36.4617 44.3095 36.4097L45.393 41.3969C45.0442 41.5156 44.5544 41.6455 43.9236 41.7828C43.3002 41.9312 42.5358 42.0129 41.6378 42.0351C40.0348 42.0834 38.5876 41.8422 37.3037 41.3078C36.0272 40.7735 35.0105 39.9423 34.2609 38.8142C33.5188 37.6788 33.1514 36.2613 33.1626 34.5692V8.0896Z" fill="#545454"/>
<path d="M106.068 41.664V14.5759H112.45V41.664H106.068ZM109.274 10.7316C108.264 10.7316 107.392 10.3976 106.661 9.72228C105.938 9.03951 105.578 8.22315 105.578 7.27321C105.578 6.31585 105.938 5.49949 106.661 4.82414C107.392 4.14137 108.264 3.79999 109.274 3.79999C110.302 3.79999 111.177 4.14137 111.901 4.82414C112.621 5.49949 112.984 6.31585 112.984 7.27321C112.984 8.22315 112.621 9.03951 111.901 9.72228C111.177 10.3976 110.302 10.7316 109.274 10.7316Z" fill="#545454"/>
<path d="M65.6069 30.2647V14.5759H71.9893V41.664H65.7999V36.8549H65.5179C64.913 38.3689 63.9148 39.612 62.5196 40.5805C61.1244 41.5416 59.4063 42.0203 57.3691 42.0203C55.5954 42.0203 54.0295 41.6269 52.664 40.8328C51.3058 40.0313 50.2483 38.8736 49.4876 37.3596C48.7232 35.8382 48.3447 33.9903 48.3447 31.8232V14.5759H54.7271V30.8288C54.7271 32.5505 55.1947 33.9161 56.1372 34.9254C57.076 35.9347 58.3117 36.4394 59.8479 36.4394C60.7867 36.4394 61.6958 36.213 62.579 35.7566C63.4584 35.3039 64.182 34.6211 64.746 33.7083C65.3175 32.788 65.6069 31.6414 65.6069 30.2647Z" fill="#545454"/>
<path d="M86.7082 42.139C84.5783 42.139 82.6747 41.5973 80.9937 40.5063C79.3091 39.4079 77.9806 37.8198 77.001 35.7418C76.0288 33.6563 75.5464 31.1256 75.5464 28.1571C75.5464 25.1514 76.0399 22.6059 77.0307 20.5279C78.0289 18.4499 79.3759 16.884 81.0679 15.8227C82.76 14.754 84.6451 14.2197 86.7231 14.2197C88.3149 14.2197 89.6211 14.4868 90.6416 15.0212C91.6694 15.5555 92.4821 16.2012 93.0758 16.9507C93.6769 17.6929 94.1445 18.3979 94.471 19.0584H94.7382V5.55145H101.135V41.664H94.8569V37.3893H94.471C94.1445 38.0535 93.6695 38.7549 93.0461 39.497C92.4227 40.2317 91.5952 40.8551 90.5673 41.3672C89.5469 41.8793 88.2593 42.139 86.7082 42.139ZM88.4893 36.8995C89.8438 36.8995 90.9978 36.5359 91.9477 35.8011C92.8977 35.0701 93.6175 34.046 94.1148 32.7287C94.6083 31.4039 94.8569 29.864 94.8569 28.1125C94.8569 26.3611 94.612 24.8434 94.1296 23.5558C93.6435 22.2608 92.9274 21.2552 91.9774 20.5427C91.0275 19.8228 89.8623 19.4592 88.4893 19.4592C87.0719 19.4592 85.8844 19.8303 84.9271 20.5724C83.9771 21.3145 83.2573 22.3387 82.7749 23.6449C82.2999 24.951 82.0624 26.4427 82.0624 28.1125C82.0624 29.8158 82.3036 31.3297 82.7897 32.6545C83.2721 33.9718 83.9957 35.0108 84.9568 35.7714C85.9141 36.5247 87.0941 36.8995 88.4893 36.8995Z" fill="#545454"/>
<path d="M140.183 5.55145H146.729V29.1367C146.729 31.7305 146.12 34.0126 144.903 35.9792C143.686 37.9385 141.972 39.4673 139.767 40.5657C137.571 41.6641 135.003 42.2132 132.064 42.2132C129.114 42.2132 126.543 41.6641 124.346 40.5657C122.149 39.4673 120.442 37.9385 119.225 35.9792C118.015 34.0126 117.414 31.7305 117.414 29.1367V5.55145H123.96V28.6024C123.96 30.1089 124.29 31.4485 124.954 32.6248C125.615 33.7936 126.55 34.7139 127.76 35.3855C128.977 36.0498 130.409 36.38 132.064 36.38C133.726 36.38 135.166 36.0498 136.383 35.3855C137.6 34.7139 138.536 33.7936 139.189 32.6248C139.849 31.4485 140.183 30.1089 140.183 28.6024V5.55145Z" fill="#7ED957"/>
<path d="M171.59 15.4664C171.419 13.9339 170.729 12.7354 169.512 11.8745C168.295 11.0136 166.714 10.5832 164.777 10.5832C163.411 10.5832 162.239 10.791 161.259 11.2066C160.287 11.6222 159.541 12.1825 159.018 12.8838C158.502 13.5888 158.239 14.3941 158.231 15.3032C158.231 16.0565 158.402 16.7095 158.751 17.2624C159.096 17.8079 159.567 18.2717 160.161 18.6577C160.762 19.0436 161.43 19.3664 162.165 19.6224C162.896 19.8822 163.634 20.0974 164.376 20.2755L167.76 21.1216C169.115 21.4407 170.425 21.8711 171.694 22.4129C172.959 22.9472 174.091 23.6263 175.093 24.4464C176.102 25.2701 176.896 26.2646 177.482 27.4298C178.076 28.5986 178.373 29.9642 178.373 31.5264C178.373 33.6452 177.828 35.5043 176.74 37.1073C175.66 38.7103 174.102 39.9645 172.065 40.8625C170.024 41.7605 167.56 42.2132 164.673 42.2132C161.86 42.2132 159.422 41.7754 157.356 40.9071C155.296 40.0387 153.689 38.7697 152.532 37.1073C151.374 35.4375 150.743 33.3966 150.647 30.992H157.088C157.177 32.25 157.563 33.3001 158.246 34.1387C158.929 34.9699 159.819 35.5933 160.918 36.0089C162.016 36.4171 163.248 36.6175 164.614 36.6175C166.039 36.6175 167.285 36.406 168.354 35.9792C169.43 35.5451 170.276 34.9477 170.892 34.1833C171.505 33.4114 171.816 32.506 171.827 31.467C171.816 30.5282 171.538 29.7527 170.996 29.1367C170.462 28.5133 169.709 27.9938 168.74 27.5782C167.768 27.1626 166.636 26.7915 165.341 26.465L161.23 25.3963C158.25 24.6356 155.901 23.4779 154.179 21.9231C152.457 20.3609 151.597 18.2866 151.597 15.7039C151.597 13.5777 152.175 11.7186 153.333 10.123C154.491 8.52 156.068 7.27321 158.068 6.38264C160.064 5.49207 162.332 5.04678 164.866 5.04678C167.426 5.04678 169.675 5.49207 171.605 6.38264C173.542 7.27321 175.063 8.50516 176.161 10.0785C177.267 11.6444 177.842 13.4404 177.883 15.4664H171.59Z" fill="#7ED957"/>
<path d="M20.9432 15.4664C20.7725 13.9339 20.0823 12.7354 18.8652 11.8745C17.6481 11.0136 16.0674 10.5832 14.1304 10.5832C12.7648 10.5832 11.5922 10.791 10.6126 11.2066C9.64042 11.6222 8.89456 12.1825 8.37135 12.8838C7.85557 13.5888 7.59211 14.3941 7.58468 15.3032C7.58468 16.0565 7.75538 16.7095 8.10418 17.2624C8.44928 17.8079 8.92054 18.2717 9.51425 18.6577C10.1154 19.0436 10.7833 19.3664 11.518 19.6224C12.249 19.8822 12.9875 20.0974 13.7296 20.2755L17.1138 21.1216C18.4682 21.4407 19.7781 21.8711 21.0471 22.4129C22.3125 22.9472 23.4442 23.6263 24.4461 24.4464C25.4554 25.2701 26.2495 26.2646 26.8358 27.4298C27.4295 28.5986 27.7264 29.9642 27.7264 31.5264C27.7264 33.6452 27.1809 35.5043 26.0937 37.1073C25.0139 38.7103 23.4554 39.9645 21.4182 40.8625C19.3773 41.7605 16.9134 42.2132 14.0265 42.2132C11.2138 42.2132 8.77582 41.7754 6.70896 40.9071C4.64952 40.0387 3.04278 38.7697 1.88504 37.1073C0.727298 35.4375 0.0964779 33.3966 0 30.992H6.44179C6.53084 32.25 6.91676 33.3001 7.59953 34.1387C8.2823 34.9699 9.17287 35.5933 10.2712 36.0089C11.3696 36.4171 12.6016 36.6175 13.9671 36.6175C15.392 36.6175 16.6388 36.406 17.7075 35.9792C18.7836 35.5451 19.6296 34.9477 20.2456 34.1833C20.8579 33.4114 21.1696 32.506 21.1807 31.467C21.1696 30.5282 20.8913 29.7527 20.3495 29.1367C19.8152 28.5133 19.0619 27.9938 18.0934 27.5782C17.1212 27.1626 15.9894 26.7915 14.6944 26.465L10.5829 25.3963C7.60324 24.6356 5.25436 23.4779 3.53259 21.9231C1.81082 20.3609 0.949941 18.2866 0.949941 15.7039C0.949941 13.5777 1.52881 11.7186 2.68655 10.123C3.84429 8.52 5.42134 7.27321 7.42141 6.38264C9.41777 5.49207 11.685 5.04678 14.2194 5.04678C16.7798 5.04678 19.0285 5.49207 20.9581 6.38264C22.8951 7.27321 24.4164 8.50516 25.5148 10.0785C26.6206 11.6444 27.1958 13.4404 27.2366 15.4664H20.9432Z" fill="#545454"/>
</svg>
