<svg xmlns="http://www.w3.org/2000/svg" xmlns:xlink="http://www.w3.org/1999/xlink" width="500" zoomAndPan="magnify" viewBox="0 0 375 374.999991" height="500" preserveAspectRatio="xMidYMid meet" version="1.0"><rect x="-37.5" width="450" fill="#ffffff" y="-37.499999" height="449.999989" fill-opacity="1"/><rect x="-37.5" width="450" fill="#ffffff" y="-37.499999" height="449.999989" fill-opacity="1"/><path fill="#545454" d="M 334.953125 63.671875 C 321.996094 49.273438 301.667969 41.988281 282.609375 40.886719 C 256.523438 37.5 258.980469 54.441406 251.527344 73.410156 C 250.679688 73.75 250 74.511719 249.664062 75.445312 C 247.882812 83.574219 239.921875 95.011719 241.277344 102.800781 C 228.65625 133.460938 214.765625 163.953125 198.503906 192.921875 C 193.933594 200.96875 189.359375 209.183594 186.734375 218.074219 C 185.632812 218.839844 184.613281 220.195312 184.613281 221.546875 C 186.394531 243.824219 188.339844 266.269531 193.847656 287.953125 C 198.082031 295.152344 217.730469 281.429688 223.066406 278.464844 C 232.46875 272.367188 243.054688 267.964844 252.289062 261.695312 C 264.738281 255.851562 266.6875 239.757812 273.292969 228.917969 C 288.707031 195.207031 305.902344 161.414062 319.03125 126.941406 C 322.503906 121.265625 326.398438 115.082031 325.804688 108.136719 C 334.699219 95.855469 345.117188 77.984375 334.953125 63.671875 Z M 222.136719 160.226562 C 226.539062 151.078125 230.351562 141.761719 234.671875 132.53125 C 237.976562 124.144531 247.375 111.441406 246.019531 102.71875 C 246.191406 102.546875 246.273438 102.378906 246.359375 102.125 C 250.847656 104.074219 255.335938 105.851562 259.910156 107.546875 C 241.703125 147.863281 223.320312 188.09375 205.449219 228.578125 C 203.417969 223.242188 198.503906 219.429688 192.914062 218.328125 C 200.453125 198.003906 213.921875 180.386719 222.136719 160.226562 Z M 263.300781 108.898438 C 271.683594 112.117188 280.152344 115.167969 288.539062 118.300781 C 281.253906 138.289062 270.246094 156.585938 261.4375 175.894531 C 250.933594 196.222656 243.648438 218.160156 232.554688 238.066406 C 227.980469 229.425781 215.785156 226.460938 207.820312 232.21875 C 225.949219 190.972656 244.582031 149.894531 263.300781 108.898438 Z M 248.5625 257.292969 C 240.855469 261.863281 232.808594 265.929688 225.015625 270.335938 C 215.613281 264.492188 204.941406 260.425781 194.269531 257.714844 C 192.746094 246.535156 191.730469 235.269531 190.882812 223.921875 C 199.183594 224.851562 202.0625 233.574219 201.300781 240.859375 C 201.132812 243.738281 205.535156 245.011719 206.804688 242.382812 C 208.078125 239.675781 210.195312 237.21875 213.074219 236.03125 C 218.832031 233.574219 225.863281 236.710938 228.148438 242.46875 C 229.335938 244.585938 228.402344 247.804688 230.605469 249.328125 C 232.046875 250.175781 233.570312 249.5 234.671875 248.484375 C 242.972656 241.113281 248.648438 248.398438 248.816406 257.292969 C 248.648438 257.207031 248.5625 257.292969 248.5625 257.292969 Z M 311.746094 130.835938 C 292.691406 171.578125 276.089844 213.925781 254.238281 253.226562 C 253.472656 243.402344 243.648438 235.355469 234.585938 241.367188 C 244.75 225.613281 249.832031 206.980469 258.554688 190.464844 C 268.972656 166.578125 282.609375 144.050781 291.84375 119.65625 C 298.957031 122.28125 305.816406 125.5 312.761719 128.378906 C 312.761719 128.378906 312.761719 128.378906 312.761719 128.464844 C 312.425781 129.226562 312.085938 130.074219 311.746094 130.835938 Z M 314.625 122.960938 C 293.027344 112.710938 270.074219 106.019531 248.136719 96.535156 C 248.730469 94.753906 249.410156 92.976562 250.085938 91.28125 C 274.394531 93.570312 296.078125 107.292969 317.589844 117.792969 C 316.660156 119.488281 315.644531 121.265625 314.625 122.960938 Z M 319.707031 112.117188 C 298.109375 101.785156 276.597656 88.234375 252.289062 85.4375 C 253.050781 83.40625 253.898438 81.375 254.574219 79.339844 C 263.214844 82.390625 270.667969 88.066406 279.5625 90.691406 C 288.371094 94.078125 297.347656 97.210938 306.070312 100.855469 C 310.730469 103.820312 322.164062 104.328125 319.707031 112.117188 Z M 257.625 74.003906 C 258.554688 71.464844 259.320312 68.839844 260.082031 66.210938 C 262.535156 59.945312 263.46875 51.558594 269.144531 47.324219 C 282.019531 45.375 295.652344 47.410156 307.765625 52.40625 C 335.714844 63.839844 340.460938 77.222656 322.84375 102.292969 C 302.007812 91.027344 278.375 85.4375 257.625 74.003906 Z M 185.460938 298.707031 C 175.382812 303.199219 164.796875 307.007812 155.226562 312.515625 C 135.746094 325.304688 108.554688 337.5 118.804688 300.570312 C 108.808594 301.757812 100.679688 308.195312 91.53125 312.007812 C 38.511719 331.230469 103.21875 274.316406 48.503906 296.253906 C 45.796875 297.097656 42.070312 300.316406 39.949219 297.015625 C 39.1875 295.660156 39.527344 293.457031 41.050781 292.78125 C 60.277344 282.953125 88.058594 277.957031 75.355469 309.550781 C 86.195312 312.851562 131.507812 277.363281 124.480469 304.296875 C 115.753906 332.332031 140.65625 313.53125 152.34375 307.179688 C 161.914062 301.757812 172.332031 297.945312 182.328125 293.542969 C 185.800781 291.339844 188.933594 296.761719 185.460938 298.707031 Z M 185.460938 298.707031 " fill-opacity="1" fill-rule="nonzero"/></svg>