<svg xmlns="http://www.w3.org/2000/svg" xmlns:xlink="http://www.w3.org/1999/xlink" width="500" zoomAndPan="magnify" viewBox="0 0 375 374.999991" height="500" preserveAspectRatio="xMidYMid meet" version="1.0"><defs><clipPath id="85c1d92079"><path d="M 151 136.703125 L 332.507812 136.703125 L 332.507812 331 L 151 331 Z M 151 136.703125 " clip-rule="nonzero"/></clipPath><clipPath id="36b9916fe9"><path d="M 246 189 L 332.507812 189 L 332.507812 331 L 246 331 Z M 246 189 " clip-rule="nonzero"/></clipPath><clipPath id="a1698da067"><path d="M 71 160 L 225 160 L 225 337.703125 L 71 337.703125 Z M 71 160 " clip-rule="nonzero"/></clipPath><clipPath id="0ce05f1993"><path d="M 223 251 L 332.507812 251 L 332.507812 317 L 223 317 Z M 223 251 " clip-rule="nonzero"/></clipPath><clipPath id="a0eae42fca"><path d="M 42.257812 250 L 113 250 L 113 322 L 42.257812 322 Z M 42.257812 250 " clip-rule="nonzero"/></clipPath></defs><rect x="-37.5" width="450" fill="#ffffff" y="-37.499999" height="449.999989" fill-opacity="1"/><rect x="-37.5" width="450" fill="#111111" y="-37.499999" height="449.999989" fill-opacity="1"/><path fill="#6bb4e6" d="M 152.25 271.503906 L 257.765625 329.757812 L 331.40625 195.882812 L 225.890625 137.628906 L 152.25 271.503906 " fill-opacity="1" fill-rule="nonzero"/><g clip-path="url(#85c1d92079)"><path fill="#231f20" d="M 152.25 271.503906 L 151.851562 272.226562 L 257.367188 330.484375 C 257.558594 330.585938 257.78125 330.613281 257.996094 330.550781 C 258.207031 330.492188 258.382812 330.347656 258.492188 330.15625 L 332.132812 196.28125 C 332.234375 196.085938 332.261719 195.867188 332.199219 195.652344 C 332.140625 195.4375 331.996094 195.261719 331.804688 195.15625 L 226.289062 136.902344 C 225.890625 136.683594 225.386719 136.828125 225.167969 137.226562 L 151.527344 271.101562 C 151.417969 271.292969 151.394531 271.523438 151.453125 271.730469 C 151.515625 271.941406 151.660156 272.121094 151.851562 272.226562 L 152.25 271.503906 L 152.972656 271.902344 L 226.214844 138.753906 L 330.28125 196.207031 L 257.4375 328.628906 L 152.648438 270.777344 L 152.25 271.503906 L 152.972656 271.902344 L 152.25 271.503906 " fill-opacity="1" fill-rule="nonzero"/></g><path fill="#fde5db" d="M 291.828125 197.996094 L 279.125 221.082031 L 218.507812 187.613281 L 231.207031 164.527344 L 291.828125 197.996094 " fill-opacity="1" fill-rule="nonzero"/><path fill="#231f20" d="M 291.828125 197.996094 L 291.101562 197.59375 L 278.800781 219.957031 L 219.628906 187.289062 L 231.53125 165.652344 L 291.425781 198.71875 L 291.828125 197.996094 L 291.101562 197.59375 L 291.828125 197.996094 L 292.226562 197.269531 L 231.601562 163.800781 C 231.203125 163.582031 230.699219 163.726562 230.480469 164.125 L 217.78125 187.214844 C 217.675781 187.40625 217.648438 187.632812 217.710938 187.84375 C 217.773438 188.054688 217.914062 188.234375 218.105469 188.339844 L 278.726562 221.808594 C 278.917969 221.914062 279.144531 221.9375 279.355469 221.875 C 279.566406 221.816406 279.742188 221.675781 279.851562 221.484375 L 292.546875 198.394531 C 292.65625 198.199219 292.679688 197.976562 292.617188 197.765625 C 292.558594 197.550781 292.417969 197.375 292.226562 197.269531 L 291.828125 197.996094 " fill-opacity="1" fill-rule="nonzero"/><path fill="#fde5db" d="M 277.730469 223.617188 L 274.597656 229.3125 L 213.976562 195.84375 L 217.109375 190.152344 L 277.730469 223.617188 " fill-opacity="1" fill-rule="nonzero"/><path fill="#231f20" d="M 277.730469 223.617188 L 277.003906 223.21875 L 274.273438 228.183594 L 215.101562 195.519531 L 217.433594 191.277344 L 277.332031 224.34375 L 277.730469 223.617188 L 277.003906 223.21875 L 277.730469 223.617188 L 278.128906 222.890625 L 217.511719 189.425781 C 217.109375 189.203125 216.605469 189.351562 216.386719 189.75 L 213.253906 195.445312 C 213.148438 195.636719 213.125 195.867188 213.183594 196.074219 C 213.242188 196.285156 213.390625 196.464844 213.578125 196.570312 L 274.199219 230.039062 C 274.390625 230.144531 274.617188 230.167969 274.828125 230.109375 C 275.042969 230.046875 275.214844 229.90625 275.320312 229.710938 L 278.457031 224.019531 C 278.558594 223.824219 278.585938 223.601562 278.523438 223.386719 C 278.464844 223.175781 278.320312 222.996094 278.128906 222.890625 L 277.730469 223.617188 " fill-opacity="1" fill-rule="nonzero"/><path fill="#2d54ad" d="M 320.488281 189.851562 L 331.40625 195.882812 L 257.765625 329.757812 L 246.847656 323.726562 L 320.488281 189.851562 " fill-opacity="1" fill-rule="nonzero"/><g clip-path="url(#36b9916fe9)"><path fill="#231f20" d="M 320.488281 189.851562 L 320.089844 190.578125 L 330.28125 196.207031 L 257.4375 328.628906 L 247.972656 323.402344 L 321.210938 190.25 L 320.488281 189.851562 L 320.089844 190.578125 L 320.488281 189.851562 L 319.761719 189.453125 L 246.121094 323.328125 C 246.015625 323.519531 245.992188 323.75 246.050781 323.957031 C 246.113281 324.164062 246.253906 324.347656 246.449219 324.453125 L 257.367188 330.484375 C 257.558594 330.585938 257.78125 330.613281 257.996094 330.550781 C 258.207031 330.492188 258.382812 330.347656 258.492188 330.15625 L 332.132812 196.28125 C 332.234375 196.085938 332.261719 195.867188 332.199219 195.652344 C 332.140625 195.4375 331.996094 195.261719 331.804688 195.15625 L 320.886719 189.128906 C 320.484375 188.90625 319.984375 189.050781 319.761719 189.453125 L 320.488281 189.851562 " fill-opacity="1" fill-rule="nonzero"/></g><path fill="#8e6bbc" d="M 106.359375 336.855469 L 223.875 310.253906 L 190.246094 161.15625 L 72.734375 187.757812 L 106.359375 336.855469 " fill-opacity="1" fill-rule="nonzero"/><g clip-path="url(#a1698da067)"><path fill="#231f20" d="M 106.359375 336.855469 L 106.542969 337.660156 L 224.058594 311.058594 C 224.273438 311.011719 224.457031 310.882812 224.574219 310.695312 C 224.691406 310.507812 224.730469 310.285156 224.683594 310.070312 L 191.054688 160.972656 C 190.953125 160.527344 190.511719 160.246094 190.066406 160.347656 L 72.550781 186.949219 C 72.105469 187.046875 71.824219 187.492188 71.925781 187.9375 L 105.554688 337.035156 C 105.601562 337.25 105.730469 337.4375 105.917969 337.554688 C 106.105469 337.671875 106.324219 337.710938 106.542969 337.660156 L 106.359375 336.855469 L 107.167969 336.671875 L 73.722656 188.382812 L 189.625 162.144531 L 222.886719 309.625 L 106.175781 336.046875 L 106.359375 336.855469 L 107.167969 336.671875 L 106.359375 336.855469 " fill-opacity="1" fill-rule="nonzero"/></g><path fill="#2d54ad" d="M 184.644531 167.769531 C 185.878906 167.488281 187.09375 167.921875 187.894531 168.785156 L 196.910156 166.746094 L 197.746094 170.457031 L 188.480469 172.554688 C 188.046875 173.476562 187.222656 174.203125 186.152344 174.445312 C 184.3125 174.863281 182.484375 173.707031 182.066406 171.859375 C 181.648438 170.015625 182.804688 168.183594 184.644531 167.769531 " fill-opacity="1" fill-rule="nonzero"/><path fill="#231f20" d="M 184.644531 167.769531 L 184.828125 168.574219 C 185.019531 168.53125 185.207031 168.511719 185.394531 168.511719 C 186.117188 168.511719 186.800781 168.824219 187.289062 169.347656 C 187.488281 169.566406 187.789062 169.660156 188.078125 169.59375 L 196.285156 167.734375 L 196.757812 169.832031 L 188.296875 171.746094 C 188.046875 171.804688 187.839844 171.972656 187.730469 172.203125 C 187.394531 172.910156 186.777344 173.453125 185.972656 173.636719 C 185.777344 173.683594 185.585938 173.703125 185.394531 173.703125 C 184.214844 173.703125 183.140625 172.882812 182.871094 171.679688 C 182.828125 171.480469 182.808594 171.289062 182.808594 171.101562 C 182.808594 169.917969 183.625 168.84375 184.828125 168.574219 L 184.644531 167.769531 L 184.464844 166.960938 C 182.492188 167.402344 181.15625 169.152344 181.15625 171.101562 C 181.15625 171.410156 181.1875 171.730469 181.257812 172.046875 C 181.703125 174.015625 183.453125 175.359375 185.394531 175.359375 C 185.707031 175.359375 186.019531 175.324219 186.335938 175.253906 C 187.667969 174.953125 188.699219 174.042969 189.226562 172.910156 L 188.480469 172.554688 L 188.664062 173.363281 L 197.929688 171.265625 C 198.144531 171.214844 198.328125 171.085938 198.445312 170.898438 C 198.566406 170.710938 198.601562 170.488281 198.554688 170.273438 L 197.71875 166.5625 C 197.617188 166.117188 197.171875 165.835938 196.726562 165.9375 L 187.714844 167.976562 L 187.894531 168.785156 L 188.5 168.222656 C 187.714844 167.371094 186.59375 166.855469 185.394531 166.855469 C 185.085938 166.855469 184.773438 166.886719 184.464844 166.960938 L 184.644531 167.769531 " fill-opacity="1" fill-rule="nonzero"/><path fill="#2d54ad" d="M 188.378906 184.324219 C 189.613281 184.042969 190.828125 184.476562 191.628906 185.339844 L 200.644531 183.300781 L 201.480469 187.011719 L 192.214844 189.109375 C 191.78125 190.03125 190.957031 190.757812 189.886719 191 C 188.046875 191.421875 186.214844 190.261719 185.800781 188.417969 C 185.382812 186.574219 186.539062 184.738281 188.378906 184.324219 " fill-opacity="1" fill-rule="nonzero"/><path fill="#231f20" d="M 188.378906 184.324219 L 188.5625 185.132812 C 188.753906 185.085938 188.941406 185.0625 189.125 185.0625 C 189.847656 185.0625 190.535156 185.378906 191.023438 185.902344 C 191.222656 186.125 191.523438 186.214844 191.8125 186.148438 L 200.019531 184.292969 L 200.492188 186.386719 L 192.03125 188.304688 C 191.785156 188.359375 191.574219 188.527344 191.46875 188.757812 C 191.132812 189.464844 190.511719 190.007812 189.707031 190.191406 C 189.511719 190.238281 189.316406 190.257812 189.128906 190.257812 C 187.949219 190.257812 186.878906 189.4375 186.605469 188.234375 C 186.5625 188.039062 186.542969 187.847656 186.542969 187.65625 C 186.542969 186.472656 187.359375 185.398438 188.5625 185.132812 L 188.199219 183.515625 C 186.226562 183.960938 184.886719 185.710938 184.886719 187.65625 C 184.886719 187.96875 184.921875 188.285156 184.992188 188.597656 C 185.4375 190.570312 187.1875 191.914062 189.128906 191.914062 C 189.4375 191.914062 189.753906 191.882812 190.070312 191.808594 C 191.398438 191.507812 192.429688 190.597656 192.960938 189.464844 L 192.214844 189.109375 L 192.394531 189.917969 L 201.664062 187.820312 C 202.105469 187.722656 202.386719 187.277344 202.285156 186.832031 L 201.449219 183.121094 C 201.402344 182.90625 201.269531 182.71875 201.085938 182.601562 C 200.902344 182.484375 200.671875 182.445312 200.460938 182.492188 L 191.445312 184.53125 L 191.628906 185.339844 L 192.234375 184.777344 C 191.445312 183.929688 190.328125 183.410156 189.125 183.40625 C 188.820312 183.40625 188.507812 183.441406 188.195312 183.515625 L 188.378906 184.324219 " fill-opacity="1" fill-rule="nonzero"/><path fill="#2d54ad" d="M 192.113281 200.878906 C 193.347656 200.597656 194.558594 201.03125 195.359375 201.894531 L 204.378906 199.855469 L 205.21875 203.570312 L 195.949219 205.664062 C 195.515625 206.589844 194.6875 207.3125 193.621094 207.554688 C 191.777344 207.972656 189.949219 206.816406 189.535156 204.972656 C 189.121094 203.128906 190.273438 201.296875 192.113281 200.878906 " fill-opacity="1" fill-rule="nonzero"/><path fill="#231f20" d="M 192.113281 200.878906 L 192.296875 201.6875 C 192.488281 201.640625 192.675781 201.621094 192.859375 201.621094 C 193.582031 201.621094 194.265625 201.933594 194.753906 202.460938 C 194.957031 202.679688 195.257812 202.769531 195.542969 202.703125 L 203.75 200.847656 L 204.226562 202.945312 L 195.765625 204.859375 C 195.519531 204.914062 195.308594 205.082031 195.199219 205.3125 C 194.867188 206.023438 194.246094 206.566406 193.4375 206.75 C 193.246094 206.792969 193.050781 206.8125 192.863281 206.8125 C 191.683594 206.8125 190.609375 205.996094 190.339844 204.789062 C 190.296875 204.59375 190.277344 204.402344 190.277344 204.214844 C 190.277344 203.03125 191.089844 201.953125 192.292969 201.6875 L 192.113281 200.878906 L 191.929688 200.070312 C 189.957031 200.515625 188.621094 202.265625 188.621094 204.214844 C 188.621094 204.523438 188.65625 204.839844 188.726562 205.152344 C 189.175781 207.128906 190.917969 208.46875 192.863281 208.46875 C 193.175781 208.46875 193.488281 208.433594 193.804688 208.363281 C 195.132812 208.0625 196.164062 207.152344 196.699219 206.019531 L 195.949219 205.664062 L 196.128906 206.472656 L 205.398438 204.378906 C 205.613281 204.328125 205.796875 204.199219 205.914062 204.011719 C 206.03125 203.824219 206.070312 203.601562 206.019531 203.386719 L 205.183594 199.671875 C 205.082031 199.226562 204.640625 198.945312 204.195312 199.046875 L 195.179688 201.089844 L 195.359375 201.894531 L 195.96875 201.332031 C 195.179688 200.484375 194.0625 199.964844 192.859375 199.964844 C 192.554688 199.964844 192.242188 200 191.929688 200.070312 L 192.113281 200.878906 " fill-opacity="1" fill-rule="nonzero"/><path fill="#2d54ad" d="M 195.847656 217.433594 C 197.078125 217.15625 198.292969 217.589844 199.09375 218.453125 L 208.113281 216.410156 L 208.949219 220.125 L 199.683594 222.222656 C 199.25 223.144531 198.421875 223.871094 197.355469 224.113281 C 195.511719 224.53125 193.683594 223.375 193.265625 221.53125 C 192.855469 219.683594 194.007812 217.851562 195.847656 217.433594 " fill-opacity="1" fill-rule="nonzero"/><path fill="#231f20" d="M 195.847656 217.433594 L 196.027344 218.242188 C 196.21875 218.199219 196.40625 218.175781 196.59375 218.175781 C 197.316406 218.175781 198 218.488281 198.488281 219.015625 C 198.691406 219.234375 198.988281 219.324219 199.277344 219.257812 L 207.484375 217.402344 L 207.960938 219.5 L 199.5 221.414062 C 199.253906 221.472656 199.042969 221.640625 198.933594 221.871094 C 198.601562 222.578125 197.980469 223.121094 197.171875 223.304688 C 196.980469 223.351562 196.789062 223.371094 196.597656 223.371094 C 195.417969 223.371094 194.34375 222.550781 194.074219 221.34375 C 194.03125 221.148438 194.011719 220.957031 194.011719 220.769531 C 194.011719 219.582031 194.824219 218.511719 196.027344 218.242188 L 195.667969 216.625 C 193.691406 217.070312 192.355469 218.820312 192.355469 220.769531 C 192.355469 221.082031 192.390625 221.394531 192.460938 221.710938 C 192.910156 223.6875 194.652344 225.023438 196.597656 225.023438 C 196.90625 225.023438 197.222656 224.992188 197.535156 224.921875 C 198.867188 224.621094 199.898438 223.710938 200.429688 222.578125 L 199.683594 222.222656 L 199.863281 223.03125 L 209.132812 220.933594 C 209.347656 220.882812 209.53125 220.753906 209.648438 220.566406 C 209.765625 220.378906 209.804688 220.15625 209.753906 219.941406 L 208.917969 216.226562 C 208.816406 215.78125 208.375 215.5 207.929688 215.605469 L 198.910156 217.644531 L 199.09375 218.453125 L 199.699219 217.886719 C 198.910156 217.039062 197.792969 216.519531 196.59375 216.519531 C 196.285156 216.519531 195.976562 216.554688 195.667969 216.625 L 195.847656 217.433594 " fill-opacity="1" fill-rule="nonzero"/><path fill="#2d54ad" d="M 199.582031 233.988281 C 200.8125 233.707031 202.027344 234.144531 202.828125 235.007812 L 211.84375 232.96875 L 212.679688 236.679688 L 203.417969 238.777344 C 202.984375 239.699219 202.160156 240.425781 201.085938 240.667969 C 199.246094 241.085938 197.417969 239.925781 197 238.082031 C 196.585938 236.238281 197.742188 234.40625 199.582031 233.988281 " fill-opacity="1" fill-rule="nonzero"/><path fill="#231f20" d="M 199.582031 233.988281 L 199.765625 234.796875 C 199.957031 234.753906 200.144531 234.730469 200.328125 234.730469 C 201.050781 234.730469 201.738281 235.046875 202.226562 235.574219 C 202.425781 235.789062 202.722656 235.882812 203.011719 235.816406 L 211.222656 233.957031 L 211.695312 236.054688 L 203.234375 237.96875 C 202.984375 238.027344 202.773438 238.195312 202.664062 238.425781 C 202.332031 239.136719 201.714844 239.675781 200.90625 239.859375 C 200.714844 239.902344 200.523438 239.921875 200.332031 239.921875 C 199.148438 239.921875 198.078125 239.105469 197.808594 237.898438 C 197.765625 237.707031 197.742188 237.511719 197.742188 237.324219 C 197.742188 236.140625 198.558594 235.066406 199.761719 234.796875 L 199.765625 234.796875 L 199.582031 233.988281 L 199.402344 233.179688 C 197.425781 233.625 196.089844 235.378906 196.089844 237.324219 C 196.089844 237.636719 196.125 237.949219 196.195312 238.265625 C 196.644531 240.238281 198.386719 241.578125 200.332031 241.578125 C 200.640625 241.578125 200.957031 241.546875 201.269531 241.476562 C 202.605469 241.175781 203.632812 240.265625 204.164062 239.128906 L 203.417969 238.777344 L 203.597656 239.585938 L 212.863281 237.488281 C 213.082031 237.441406 213.265625 237.308594 213.382812 237.121094 C 213.5 236.933594 213.539062 236.714844 213.488281 236.496094 L 212.652344 232.785156 C 212.550781 232.339844 212.109375 232.058594 211.660156 232.160156 L 202.648438 234.199219 L 202.828125 235.007812 L 203.433594 234.441406 C 202.648438 233.59375 201.53125 233.074219 200.328125 233.074219 C 200.019531 233.074219 199.710938 233.109375 199.398438 233.179688 L 199.402344 233.179688 L 199.582031 233.988281 " fill-opacity="1" fill-rule="nonzero"/><path fill="#2d54ad" d="M 203.316406 250.542969 C 204.546875 250.261719 205.765625 250.699219 206.5625 251.5625 L 215.578125 249.523438 L 216.414062 253.234375 L 207.152344 255.335938 C 206.714844 256.257812 205.890625 256.984375 204.824219 257.226562 C 202.980469 257.640625 201.152344 256.484375 200.738281 254.640625 C 200.316406 252.796875 201.472656 250.960938 203.316406 250.542969 " fill-opacity="1" fill-rule="nonzero"/><path fill="#231f20" d="M 203.316406 250.542969 L 203.5 251.347656 C 203.691406 251.308594 203.878906 251.289062 204.0625 251.289062 C 204.78125 251.285156 205.46875 251.597656 205.960938 252.128906 C 206.15625 252.34375 206.457031 252.4375 206.746094 252.371094 L 214.953125 250.515625 L 215.429688 252.613281 L 206.96875 254.527344 C 206.71875 254.582031 206.511719 254.75 206.402344 254.980469 C 206.066406 255.691406 205.445312 256.234375 204.640625 256.417969 C 204.449219 256.460938 204.253906 256.480469 204.066406 256.480469 C 202.882812 256.480469 201.8125 255.660156 201.542969 254.457031 C 201.496094 254.261719 201.476562 254.066406 201.476562 253.882812 C 201.476562 252.695312 202.296875 251.621094 203.5 251.351562 L 203.132812 249.734375 C 201.164062 250.179688 199.824219 251.933594 199.824219 253.882812 C 199.824219 254.191406 199.859375 254.503906 199.929688 254.820312 C 200.375 256.792969 202.121094 258.136719 204.066406 258.136719 C 204.375 258.136719 204.691406 258.101562 205.003906 258.03125 C 206.339844 257.730469 207.367188 256.820312 207.898438 255.6875 L 207.152344 255.335938 L 207.335938 256.140625 L 216.597656 254.042969 C 216.8125 253.996094 216.996094 253.867188 217.117188 253.675781 C 217.234375 253.488281 217.269531 253.269531 217.222656 253.050781 L 216.386719 249.339844 C 216.285156 248.894531 215.839844 248.613281 215.398438 248.714844 L 206.382812 250.757812 L 206.5625 251.5625 L 207.167969 251 C 206.382812 250.148438 205.261719 249.628906 204.0625 249.628906 C 203.753906 249.628906 203.441406 249.664062 203.132812 249.734375 L 203.316406 250.542969 " fill-opacity="1" fill-rule="nonzero"/><path fill="#2d54ad" d="M 207.050781 267.097656 C 208.28125 266.820312 209.496094 267.257812 210.300781 268.121094 L 219.3125 266.078125 L 220.152344 269.792969 L 210.882812 271.890625 C 210.449219 272.8125 209.625 273.539062 208.554688 273.78125 C 206.714844 274.195312 204.886719 273.042969 204.46875 271.195312 C 204.054688 269.347656 205.207031 267.515625 207.050781 267.097656 " fill-opacity="1" fill-rule="nonzero"/><path fill="#231f20" d="M 207.050781 267.097656 L 207.230469 267.90625 C 207.425781 267.863281 207.609375 267.84375 207.796875 267.84375 C 208.515625 267.84375 209.203125 268.15625 209.691406 268.683594 C 209.890625 268.898438 210.191406 268.992188 210.480469 268.925781 L 218.691406 267.070312 L 219.160156 269.167969 L 210.699219 271.082031 C 210.453125 271.136719 210.242188 271.308594 210.132812 271.535156 C 209.796875 272.246094 209.183594 272.789062 208.375 272.972656 C 208.183594 273.015625 207.988281 273.035156 207.800781 273.035156 C 206.617188 273.035156 205.546875 272.21875 205.273438 271.011719 C 205.230469 270.820312 205.210938 270.625 205.210938 270.4375 C 205.210938 269.25 206.027344 268.179688 207.230469 267.90625 L 207.050781 267.097656 L 206.867188 266.289062 C 204.894531 266.738281 203.558594 268.488281 203.558594 270.4375 C 203.558594 270.75 203.589844 271.0625 203.660156 271.375 C 204.109375 273.351562 205.859375 274.691406 207.800781 274.691406 C 208.109375 274.691406 208.421875 274.65625 208.738281 274.589844 C 210.070312 274.285156 211.101562 273.378906 211.628906 272.242188 L 210.882812 271.890625 L 211.066406 272.699219 L 220.335938 270.597656 C 220.550781 270.550781 220.734375 270.421875 220.851562 270.234375 C 220.96875 270.046875 221.007812 269.824219 220.957031 269.609375 L 220.121094 265.894531 C 220.019531 265.445312 219.574219 265.167969 219.128906 265.269531 L 210.117188 267.3125 L 210.300781 268.121094 L 210.902344 267.554688 C 210.117188 266.703125 208.996094 266.1875 207.796875 266.183594 C 207.488281 266.183594 207.175781 266.21875 206.867188 266.289062 L 207.050781 267.097656 " fill-opacity="1" fill-rule="nonzero"/><path fill="#2d54ad" d="M 210.78125 283.65625 C 212.015625 283.375 213.230469 283.8125 214.03125 284.675781 L 223.046875 282.636719 L 223.886719 286.347656 L 214.617188 288.445312 C 214.183594 289.367188 213.355469 290.09375 212.292969 290.335938 C 210.449219 290.753906 208.621094 289.59375 208.203125 287.75 C 207.789062 285.902344 208.941406 284.074219 210.78125 283.65625 " fill-opacity="1" fill-rule="nonzero"/><path fill="#231f20" d="M 210.78125 283.65625 L 210.964844 284.464844 C 211.15625 284.421875 211.34375 284.398438 211.53125 284.398438 C 212.253906 284.398438 212.9375 284.710938 213.425781 285.238281 C 213.628906 285.457031 213.925781 285.546875 214.214844 285.484375 L 222.421875 283.625 L 222.894531 285.722656 L 214.433594 287.636719 C 214.1875 287.691406 213.976562 287.859375 213.867188 288.089844 C 213.535156 288.800781 212.914062 289.34375 212.109375 289.527344 C 211.914062 289.566406 211.71875 289.589844 211.53125 289.589844 C 210.351562 289.589844 209.28125 288.769531 209.007812 287.566406 C 208.964844 287.375 208.945312 287.179688 208.945312 286.992188 C 208.945312 285.808594 209.761719 284.734375 210.964844 284.464844 L 210.78125 283.65625 L 210.601562 282.847656 C 208.628906 283.292969 207.289062 285.046875 207.289062 286.992188 C 207.289062 287.300781 207.324219 287.617188 207.398438 287.933594 C 207.84375 289.90625 209.589844 291.246094 211.53125 291.246094 C 211.84375 291.246094 212.15625 291.214844 212.472656 291.140625 C 213.800781 290.839844 214.832031 289.933594 215.363281 288.796875 L 214.617188 288.445312 L 214.796875 289.253906 L 224.066406 287.15625 C 224.28125 287.105469 224.464844 286.976562 224.585938 286.789062 C 224.699219 286.601562 224.738281 286.382812 224.691406 286.164062 L 223.851562 282.453125 C 223.753906 282.003906 223.3125 281.726562 222.867188 281.828125 L 213.847656 283.867188 L 214.03125 284.675781 L 214.636719 284.113281 C 213.847656 283.257812 212.730469 282.742188 211.53125 282.742188 C 211.222656 282.742188 210.910156 282.777344 210.597656 282.847656 L 210.78125 283.65625 " fill-opacity="1" fill-rule="nonzero"/><path fill="#254690" d="M 211.9375 304.304688 C 212.351562 306.148438 214.179688 307.308594 216.023438 306.890625 C 217.867188 306.472656 219.019531 304.640625 218.605469 302.792969 C 218.1875 300.953125 216.359375 299.792969 214.515625 300.207031 C 212.675781 300.625 211.523438 302.460938 211.9375 304.304688 " fill-opacity="1" fill-rule="nonzero"/><path fill="#231f20" d="M 211.9375 304.304688 L 211.128906 304.484375 C 211.578125 306.464844 213.324219 307.804688 215.269531 307.804688 C 215.578125 307.804688 215.890625 307.769531 216.203125 307.699219 L 216.207031 307.699219 C 218.175781 307.25 219.515625 305.5 219.515625 303.550781 C 219.515625 303.238281 219.480469 302.925781 219.410156 302.613281 C 218.964844 300.636719 217.214844 299.296875 215.273438 299.296875 C 214.964844 299.296875 214.648438 299.332031 214.328125 299.402344 L 214.332031 299.398438 C 212.363281 299.851562 211.023438 301.601562 211.023438 303.542969 C 211.023438 303.855469 211.058594 304.171875 211.132812 304.488281 L 212.742188 304.121094 C 212.699219 303.925781 212.679688 303.734375 212.679688 303.542969 C 212.679688 302.363281 213.492188 301.289062 214.695312 301.015625 L 214.703125 301.015625 C 214.890625 300.972656 215.082031 300.953125 215.273438 300.953125 C 216.457031 300.953125 217.527344 301.773438 217.796875 302.976562 C 217.839844 303.171875 217.863281 303.363281 217.863281 303.550781 C 217.859375 304.738281 217.042969 305.808594 215.839844 306.082031 L 215.84375 306.082031 C 215.648438 306.125 215.457031 306.144531 215.269531 306.144531 C 214.085938 306.144531 213.011719 305.328125 212.742188 304.121094 L 211.9375 304.304688 " fill-opacity="1" fill-rule="nonzero"/><path fill="#2d54ad" d="M 215.730469 305.589844 L 227.617188 302.902344 L 226.78125 299.191406 L 214.890625 301.878906 L 215.730469 305.589844 " fill-opacity="1" fill-rule="nonzero"/><path fill="#231f20" d="M 215.730469 305.589844 L 215.910156 306.398438 L 227.800781 303.710938 C 228.015625 303.660156 228.199219 303.53125 228.316406 303.34375 C 228.433594 303.160156 228.472656 302.9375 228.421875 302.71875 L 227.585938 299.007812 C 227.484375 298.558594 227.042969 298.28125 226.597656 298.382812 L 214.710938 301.070312 C 214.265625 301.171875 213.984375 301.613281 214.085938 302.0625 L 214.925781 305.777344 C 214.972656 305.992188 215.101562 306.175781 215.289062 306.292969 C 215.476562 306.410156 215.695312 306.449219 215.910156 306.398438 L 215.730469 305.589844 L 216.539062 305.410156 L 215.882812 302.503906 L 226.15625 300.179688 L 226.628906 302.277344 L 215.546875 304.785156 L 215.730469 305.589844 L 216.539062 305.410156 L 215.730469 305.589844 " fill-opacity="1" fill-rule="nonzero"/><path fill="#fde5db" d="M 105.703125 243.007812 L 173.214844 227.722656 L 164.28125 188.117188 L 96.769531 203.398438 L 105.703125 243.007812 " fill-opacity="1" fill-rule="nonzero"/><path fill="#231f20" d="M 105.703125 243.007812 L 105.886719 243.816406 L 173.398438 228.53125 C 173.613281 228.484375 173.796875 228.355469 173.914062 228.167969 C 174.035156 227.980469 174.070312 227.757812 174.023438 227.542969 L 165.089844 187.933594 C 164.988281 187.488281 164.546875 187.207031 164.097656 187.308594 L 96.585938 202.589844 C 96.140625 202.691406 95.863281 203.132812 95.964844 203.578125 L 104.894531 243.191406 C 104.945312 243.40625 105.074219 243.589844 105.261719 243.707031 C 105.449219 243.828125 105.671875 243.863281 105.886719 243.816406 L 105.703125 243.007812 L 106.507812 242.824219 L 97.761719 204.023438 L 163.660156 189.109375 L 172.226562 227.097656 L 105.523438 242.199219 L 105.703125 243.007812 L 106.507812 242.824219 L 105.703125 243.007812 " fill-opacity="1" fill-rule="nonzero"/><path fill="#fcce2c" d="M 277.78125 268.171875 C 294.050781 268.171875 307.785156 280.773438 310.765625 297.929688 L 244.789062 297.929688 C 247.769531 280.765625 261.484375 268.171875 277.78125 268.171875 Z M 327.46875 296.792969 C 324.476562 271.578125 303.207031 252.625 277.78125 252.625 C 252.3125 252.625 231.078125 271.566406 228.089844 296.792969 L 224.324219 296.792969 L 224.324219 315.207031 L 331.21875 315.207031 L 331.21875 296.792969 L 327.46875 296.792969 " fill-opacity="1" fill-rule="nonzero"/><g clip-path="url(#0ce05f1993)"><path fill="#231f20" d="M 277.78125 268.171875 L 277.78125 269 C 285.699219 269 293 272.0625 298.699219 277.230469 C 304.402344 282.398438 308.492188 289.671875 309.949219 298.070312 L 310.765625 297.929688 L 310.765625 297.101562 L 244.789062 297.101562 L 244.789062 297.929688 L 245.601562 298.070312 C 247.0625 289.667969 251.148438 282.394531 256.84375 277.230469 C 262.542969 272.0625 269.847656 269 277.78125 269 L 277.78125 267.34375 C 269.414062 267.34375 261.710938 270.578125 255.734375 276 C 249.757812 281.421875 245.496094 289.027344 243.976562 297.785156 C 243.929688 298.027344 244 298.273438 244.15625 298.464844 C 244.3125 298.652344 244.542969 298.757812 244.789062 298.757812 L 310.765625 298.757812 C 311.011719 298.757812 311.242188 298.652344 311.398438 298.460938 C 311.554688 298.273438 311.621094 298.027344 311.582031 297.785156 C 310.058594 289.03125 305.792969 281.425781 299.8125 276.003906 C 293.832031 270.578125 286.128906 267.34375 277.78125 267.34375 Z M 327.46875 296.792969 L 328.289062 296.695312 C 325.25 271.066406 303.628906 251.796875 277.78125 251.796875 C 251.898438 251.796875 230.308594 271.054688 227.265625 296.695312 L 228.089844 296.792969 L 228.089844 295.964844 L 224.324219 295.964844 C 224.105469 295.964844 223.890625 296.054688 223.738281 296.207031 C 223.582031 296.363281 223.496094 296.574219 223.496094 296.792969 L 223.496094 315.207031 C 223.496094 315.425781 223.582031 315.636719 223.738281 315.792969 C 223.890625 315.945312 224.105469 316.035156 224.324219 316.035156 L 331.21875 316.035156 C 331.441406 316.035156 331.648438 315.949219 331.804688 315.792969 C 331.960938 315.636719 332.046875 315.425781 332.046875 315.207031 L 332.046875 296.792969 C 332.046875 296.574219 331.960938 296.363281 331.804688 296.207031 C 331.652344 296.054688 331.4375 295.964844 331.21875 295.964844 L 327.46875 295.964844 L 327.46875 296.792969 L 328.289062 296.695312 L 327.46875 296.792969 L 327.46875 297.621094 L 330.390625 297.621094 L 330.390625 314.375 L 225.148438 314.375 L 225.148438 297.621094 L 228.089844 297.621094 C 228.507812 297.621094 228.859375 297.308594 228.910156 296.890625 C 231.855469 272.078125 252.734375 253.457031 277.78125 253.457031 C 302.792969 253.457031 323.703125 272.09375 326.648438 296.890625 C 326.695312 297.308594 327.050781 297.621094 327.46875 297.621094 L 327.46875 296.792969 " fill-opacity="1" fill-rule="nonzero"/></g><path fill="#fcce2c" d="M 224.324219 297.003906 C 224.929688 296.949219 225.535156 296.882812 226.132812 296.792969 L 224.324219 296.792969 L 224.324219 297.003906 " fill-opacity="1" fill-rule="nonzero"/><path fill="#231f20" d="M 224.324219 297.003906 L 224.390625 297.828125 C 225.015625 297.773438 225.636719 297.707031 226.257812 297.613281 C 226.683594 297.546875 226.988281 297.164062 226.957031 296.730469 C 226.925781 296.296875 226.566406 295.964844 226.132812 295.964844 L 224.324219 295.964844 C 224.105469 295.964844 223.890625 296.054688 223.738281 296.207031 C 223.582031 296.363281 223.496094 296.574219 223.496094 296.792969 L 223.496094 297.003906 C 223.496094 297.234375 223.59375 297.453125 223.761719 297.613281 C 223.933594 297.765625 224.160156 297.84375 224.390625 297.828125 L 224.324219 297.003906 L 225.148438 297.003906 L 225.148438 296.792969 L 224.324219 296.792969 L 224.324219 297.621094 L 226.132812 297.621094 L 226.132812 296.792969 L 226.015625 295.972656 C 225.433594 296.058594 224.84375 296.125 224.253906 296.175781 L 224.324219 297.003906 L 225.148438 297.003906 L 224.324219 297.003906 " fill-opacity="1" fill-rule="nonzero"/><path fill="#231f20" d="M 229.113281 315.207031 L 229.113281 305.511719 C 229.113281 305.050781 228.742188 304.679688 228.289062 304.679688 C 227.832031 304.679688 227.460938 305.050781 227.460938 305.511719 L 227.460938 315.207031 C 227.460938 315.664062 227.832031 316.035156 228.289062 316.035156 C 228.742188 316.035156 229.113281 315.664062 229.113281 315.207031 " fill-opacity="1" fill-rule="nonzero"/><path fill="#231f20" d="M 232.207031 315.207031 L 232.207031 308.074219 C 232.207031 307.617188 231.835938 307.246094 231.378906 307.246094 C 230.925781 307.246094 230.554688 307.617188 230.554688 308.074219 L 230.554688 315.207031 C 230.554688 315.664062 230.925781 316.035156 231.378906 316.035156 C 231.835938 316.035156 232.207031 315.664062 232.207031 315.207031 " fill-opacity="1" fill-rule="nonzero"/><path fill="#231f20" d="M 235.300781 315.207031 L 235.300781 305.511719 C 235.300781 305.050781 234.925781 304.679688 234.472656 304.679688 C 234.015625 304.679688 233.644531 305.050781 233.644531 305.511719 L 233.644531 315.207031 C 233.644531 315.664062 234.015625 316.035156 234.472656 316.035156 C 234.925781 316.035156 235.300781 315.664062 235.300781 315.207031 " fill-opacity="1" fill-rule="nonzero"/><path fill="#231f20" d="M 238.390625 315.207031 L 238.390625 308.074219 C 238.390625 307.617188 238.023438 307.246094 237.566406 307.246094 C 237.109375 307.246094 236.738281 307.617188 236.738281 308.074219 L 236.738281 315.207031 C 236.738281 315.664062 237.109375 316.035156 237.566406 316.035156 C 238.023438 316.035156 238.390625 315.664062 238.390625 315.207031 " fill-opacity="1" fill-rule="nonzero"/><path fill="#231f20" d="M 241.484375 315.207031 L 241.484375 305.511719 C 241.484375 305.050781 241.117188 304.679688 240.65625 304.679688 C 240.199219 304.679688 239.832031 305.050781 239.832031 305.511719 L 239.832031 315.207031 C 239.832031 315.664062 240.199219 316.035156 240.65625 316.035156 C 241.117188 316.035156 241.484375 315.664062 241.484375 315.207031 " fill-opacity="1" fill-rule="nonzero"/><path fill="#231f20" d="M 244.578125 315.207031 L 244.578125 308.074219 C 244.578125 307.617188 244.207031 307.246094 243.75 307.246094 C 243.296875 307.246094 242.925781 307.617188 242.925781 308.074219 L 242.925781 315.207031 C 242.925781 315.664062 243.296875 316.035156 243.75 316.035156 C 244.207031 316.035156 244.578125 315.664062 244.578125 315.207031 " fill-opacity="1" fill-rule="nonzero"/><path fill="#231f20" d="M 247.671875 315.207031 L 247.671875 305.511719 C 247.671875 305.050781 247.300781 304.679688 246.84375 304.679688 C 246.386719 304.679688 246.015625 305.050781 246.015625 305.511719 L 246.015625 315.207031 C 246.015625 315.664062 246.386719 316.035156 246.84375 316.035156 C 247.300781 316.035156 247.671875 315.664062 247.671875 315.207031 " fill-opacity="1" fill-rule="nonzero"/><path fill="#231f20" d="M 250.761719 315.207031 L 250.761719 308.074219 C 250.761719 307.617188 250.390625 307.246094 249.933594 307.246094 C 249.480469 307.246094 249.109375 307.617188 249.109375 308.074219 L 249.109375 315.207031 C 249.109375 315.664062 249.480469 316.035156 249.933594 316.035156 C 250.390625 316.035156 250.761719 315.664062 250.761719 315.207031 " fill-opacity="1" fill-rule="nonzero"/><path fill="#231f20" d="M 253.855469 315.207031 L 253.855469 305.511719 C 253.855469 305.050781 253.484375 304.679688 253.027344 304.679688 C 252.574219 304.679688 252.199219 305.050781 252.199219 305.511719 L 252.199219 315.207031 C 252.199219 315.664062 252.574219 316.035156 253.027344 316.035156 C 253.484375 316.035156 253.855469 315.664062 253.855469 315.207031 " fill-opacity="1" fill-rule="nonzero"/><path fill="#231f20" d="M 256.945312 315.207031 L 256.945312 308.074219 C 256.945312 307.617188 256.578125 307.246094 256.121094 307.246094 C 255.664062 307.246094 255.296875 307.617188 255.296875 308.074219 L 255.296875 315.207031 C 255.296875 315.664062 255.664062 316.035156 256.121094 316.035156 C 256.578125 316.035156 256.945312 315.664062 256.945312 315.207031 " fill-opacity="1" fill-rule="nonzero"/><path fill="#231f20" d="M 260.039062 315.207031 L 260.039062 305.511719 C 260.039062 305.050781 259.671875 304.679688 259.214844 304.679688 C 258.757812 304.679688 258.390625 305.050781 258.390625 305.511719 L 258.390625 315.207031 C 258.390625 315.664062 258.757812 316.035156 259.214844 316.035156 C 259.671875 316.035156 260.039062 315.664062 260.039062 315.207031 " fill-opacity="1" fill-rule="nonzero"/><path fill="#231f20" d="M 263.136719 315.207031 L 263.136719 308.074219 C 263.136719 307.617188 262.765625 307.246094 262.308594 307.246094 C 261.851562 307.246094 261.480469 307.617188 261.480469 308.074219 L 261.480469 315.207031 C 261.480469 315.664062 261.851562 316.035156 262.308594 316.035156 C 262.765625 316.035156 263.136719 315.664062 263.136719 315.207031 " fill-opacity="1" fill-rule="nonzero"/><path fill="#231f20" d="M 266.226562 315.207031 L 266.226562 305.511719 C 266.226562 305.050781 265.855469 304.679688 265.398438 304.679688 C 264.941406 304.679688 264.570312 305.050781 264.570312 305.511719 L 264.570312 315.207031 C 264.570312 315.664062 264.941406 316.035156 265.398438 316.035156 C 265.855469 316.035156 266.226562 315.664062 266.226562 315.207031 " fill-opacity="1" fill-rule="nonzero"/><path fill="#231f20" d="M 269.320312 315.207031 L 269.320312 308.074219 C 269.320312 307.617188 268.949219 307.246094 268.492188 307.246094 C 268.035156 307.246094 267.664062 307.617188 267.664062 308.074219 L 267.664062 315.207031 C 267.664062 315.664062 268.035156 316.035156 268.492188 316.035156 C 268.949219 316.035156 269.320312 315.664062 269.320312 315.207031 " fill-opacity="1" fill-rule="nonzero"/><path fill="#231f20" d="M 272.410156 315.207031 L 272.410156 305.511719 C 272.410156 305.050781 272.042969 304.679688 271.585938 304.679688 C 271.128906 304.679688 270.757812 305.050781 270.757812 305.511719 L 270.757812 315.207031 C 270.757812 315.664062 271.128906 316.035156 271.585938 316.035156 C 272.042969 316.035156 272.410156 315.664062 272.410156 315.207031 " fill-opacity="1" fill-rule="nonzero"/><path fill="#231f20" d="M 275.503906 315.207031 L 275.503906 308.074219 C 275.503906 307.617188 275.132812 307.246094 274.679688 307.246094 C 274.21875 307.246094 273.851562 307.617188 273.851562 308.074219 L 273.851562 315.207031 C 273.851562 315.664062 274.21875 316.035156 274.679688 316.035156 C 275.132812 316.035156 275.503906 315.664062 275.503906 315.207031 " fill-opacity="1" fill-rule="nonzero"/><path fill="#231f20" d="M 278.597656 315.207031 L 278.597656 305.511719 C 278.597656 305.050781 278.226562 304.679688 277.769531 304.679688 C 277.3125 304.679688 276.945312 305.050781 276.945312 305.511719 L 276.945312 315.207031 C 276.945312 315.664062 277.3125 316.035156 277.769531 316.035156 C 278.226562 316.035156 278.597656 315.664062 278.597656 315.207031 " fill-opacity="1" fill-rule="nonzero"/><path fill="#231f20" d="M 281.6875 315.207031 L 281.6875 308.074219 C 281.6875 307.617188 281.316406 307.246094 280.859375 307.246094 C 280.402344 307.246094 280.035156 307.617188 280.035156 308.074219 L 280.035156 315.207031 C 280.035156 315.664062 280.402344 316.035156 280.859375 316.035156 C 281.316406 316.035156 281.6875 315.664062 281.6875 315.207031 " fill-opacity="1" fill-rule="nonzero"/><path fill="#231f20" d="M 284.78125 315.207031 L 284.78125 305.511719 C 284.78125 305.050781 284.410156 304.679688 283.957031 304.679688 C 283.5 304.679688 283.128906 305.050781 283.128906 305.511719 L 283.128906 315.207031 C 283.128906 315.664062 283.5 316.035156 283.957031 316.035156 C 284.410156 316.035156 284.78125 315.664062 284.78125 315.207031 " fill-opacity="1" fill-rule="nonzero"/><path fill="#231f20" d="M 287.878906 315.207031 L 287.878906 308.074219 C 287.878906 307.617188 287.507812 307.246094 287.050781 307.246094 C 286.59375 307.246094 286.222656 307.617188 286.222656 308.074219 L 286.222656 315.207031 C 286.222656 315.664062 286.59375 316.035156 287.050781 316.035156 C 287.507812 316.035156 287.878906 315.664062 287.878906 315.207031 " fill-opacity="1" fill-rule="nonzero"/><path fill="#231f20" d="M 290.96875 315.207031 L 290.96875 305.511719 C 290.96875 305.050781 290.597656 304.679688 290.144531 304.679688 C 289.6875 304.679688 289.316406 305.050781 289.316406 305.511719 L 289.316406 315.207031 C 289.316406 315.664062 289.6875 316.035156 290.144531 316.035156 C 290.597656 316.035156 290.96875 315.664062 290.96875 315.207031 " fill-opacity="1" fill-rule="nonzero"/><path fill="#231f20" d="M 294.058594 315.207031 L 294.058594 308.074219 C 294.058594 307.617188 293.691406 307.246094 293.234375 307.246094 C 292.777344 307.246094 292.40625 307.617188 292.40625 308.074219 L 292.40625 315.207031 C 292.40625 315.664062 292.777344 316.035156 293.234375 316.035156 C 293.691406 316.035156 294.058594 315.664062 294.058594 315.207031 " fill-opacity="1" fill-rule="nonzero"/><path fill="#231f20" d="M 297.152344 315.207031 L 297.152344 305.511719 C 297.152344 305.050781 296.78125 304.679688 296.324219 304.679688 C 295.867188 304.679688 295.5 305.050781 295.5 305.511719 L 295.5 315.207031 C 295.5 315.664062 295.867188 316.035156 296.324219 316.035156 C 296.78125 316.035156 297.152344 315.664062 297.152344 315.207031 " fill-opacity="1" fill-rule="nonzero"/><path fill="#231f20" d="M 300.242188 315.207031 L 300.242188 308.074219 C 300.242188 307.617188 299.875 307.246094 299.414062 307.246094 C 298.960938 307.246094 298.589844 307.617188 298.589844 308.074219 L 298.589844 315.207031 C 298.589844 315.664062 298.960938 316.035156 299.414062 316.035156 C 299.875 316.035156 300.242188 315.664062 300.242188 315.207031 " fill-opacity="1" fill-rule="nonzero"/><path fill="#231f20" d="M 303.339844 315.207031 L 303.339844 305.511719 C 303.339844 305.050781 302.96875 304.679688 302.511719 304.679688 C 302.054688 304.679688 301.683594 305.050781 301.683594 305.511719 L 301.683594 315.207031 C 301.683594 315.664062 302.054688 316.035156 302.511719 316.035156 C 302.96875 316.035156 303.339844 315.664062 303.339844 315.207031 " fill-opacity="1" fill-rule="nonzero"/><path fill="#231f20" d="M 306.433594 315.207031 L 306.433594 308.074219 C 306.433594 307.617188 306.0625 307.246094 305.605469 307.246094 C 305.148438 307.246094 304.777344 307.617188 304.777344 308.074219 L 304.777344 315.207031 C 304.777344 315.664062 305.148438 316.035156 305.605469 316.035156 C 306.0625 316.035156 306.433594 315.664062 306.433594 315.207031 " fill-opacity="1" fill-rule="nonzero"/><path fill="#231f20" d="M 309.523438 315.207031 L 309.523438 305.511719 C 309.523438 305.050781 309.152344 304.679688 308.699219 304.679688 C 308.242188 304.679688 307.867188 305.050781 307.867188 305.511719 L 307.867188 315.207031 C 307.867188 315.664062 308.242188 316.035156 308.699219 316.035156 C 309.152344 316.035156 309.523438 315.664062 309.523438 315.207031 " fill-opacity="1" fill-rule="nonzero"/><path fill="#231f20" d="M 312.613281 315.207031 L 312.613281 308.074219 C 312.613281 307.617188 312.246094 307.246094 311.789062 307.246094 C 311.332031 307.246094 310.964844 307.617188 310.964844 308.074219 L 310.964844 315.207031 C 310.964844 315.664062 311.332031 316.035156 311.789062 316.035156 C 312.246094 316.035156 312.613281 315.664062 312.613281 315.207031 " fill-opacity="1" fill-rule="nonzero"/><path fill="#231f20" d="M 315.707031 315.207031 L 315.707031 305.511719 C 315.707031 305.050781 315.339844 304.679688 314.882812 304.679688 C 314.425781 304.679688 314.054688 305.050781 314.054688 305.511719 L 314.054688 315.207031 C 314.054688 315.664062 314.425781 316.035156 314.882812 316.035156 C 315.339844 316.035156 315.707031 315.664062 315.707031 315.207031 " fill-opacity="1" fill-rule="nonzero"/><path fill="#231f20" d="M 318.800781 315.207031 L 318.800781 308.074219 C 318.800781 307.617188 318.429688 307.246094 317.976562 307.246094 C 317.519531 307.246094 317.148438 307.617188 317.148438 308.074219 L 317.148438 315.207031 C 317.148438 315.664062 317.519531 316.035156 317.976562 316.035156 C 318.429688 316.035156 318.800781 315.664062 318.800781 315.207031 " fill-opacity="1" fill-rule="nonzero"/><path fill="#231f20" d="M 321.894531 315.207031 L 321.894531 305.511719 C 321.894531 305.050781 321.523438 304.679688 321.066406 304.679688 C 320.613281 304.679688 320.242188 305.050781 320.242188 305.511719 L 320.242188 315.207031 C 320.242188 315.664062 320.613281 316.035156 321.066406 316.035156 C 321.523438 316.035156 321.894531 315.664062 321.894531 315.207031 " fill-opacity="1" fill-rule="nonzero"/><path fill="#231f20" d="M 324.988281 315.207031 L 324.988281 308.074219 C 324.988281 307.617188 324.617188 307.246094 324.160156 307.246094 C 323.703125 307.246094 323.332031 307.617188 323.332031 308.074219 L 323.332031 315.207031 C 323.332031 315.664062 323.703125 316.035156 324.160156 316.035156 C 324.617188 316.035156 324.988281 315.664062 324.988281 315.207031 " fill-opacity="1" fill-rule="nonzero"/><path fill="#231f20" d="M 328.078125 315.207031 L 328.078125 305.511719 C 328.078125 305.050781 327.710938 304.679688 327.253906 304.679688 C 326.796875 304.679688 326.425781 305.050781 326.425781 305.511719 L 326.425781 315.207031 C 326.425781 315.664062 326.796875 316.035156 327.253906 316.035156 C 327.710938 316.035156 328.078125 315.664062 328.078125 315.207031 " fill-opacity="1" fill-rule="nonzero"/><path fill="#6bb4e6" d="M 131.347656 281.851562 L 131.183594 292.65625 L 108.183594 292.300781 L 108.351562 281.496094 L 131.347656 281.851562 " fill-opacity="1" fill-rule="nonzero"/><path fill="#231f20" d="M 131.347656 281.851562 L 130.523438 281.839844 L 130.371094 291.8125 L 109.023438 291.484375 L 109.164062 282.335938 L 131.335938 282.679688 L 131.347656 281.851562 L 130.523438 281.839844 L 131.347656 281.851562 L 131.363281 281.023438 L 108.363281 280.667969 C 107.90625 280.660156 107.527344 281.027344 107.523438 281.484375 L 107.355469 292.285156 C 107.347656 292.746094 107.710938 293.121094 108.167969 293.128906 L 131.171875 293.484375 C 131.390625 293.484375 131.601562 293.402344 131.761719 293.25 C 131.914062 293.097656 132.007812 292.886719 132.011719 292.667969 L 132.175781 281.863281 C 132.183594 281.644531 132.09375 281.429688 131.945312 281.277344 C 131.792969 281.117188 131.582031 281.023438 131.363281 281.023438 L 131.347656 281.851562 " fill-opacity="1" fill-rule="nonzero"/><path fill="#2d54ad" d="M 78.15625 251.742188 C 97.082031 252.035156 112.1875 267.640625 111.894531 286.597656 C 111.601562 305.558594 96.027344 320.6875 77.101562 320.398438 C 58.175781 320.105469 43.074219 304.5 43.363281 285.542969 C 43.65625 266.582031 59.230469 251.449219 78.15625 251.742188 " fill-opacity="1" fill-rule="nonzero"/><g clip-path="url(#a0eae42fca)"><path fill="#231f20" d="M 78.15625 251.742188 L 78.144531 252.570312 C 96.4375 252.855469 111.074219 267.796875 111.074219 286.058594 C 111.074219 286.234375 111.070312 286.40625 111.066406 286.585938 C 110.789062 304.910156 95.871094 319.574219 77.636719 319.574219 C 77.464844 319.574219 77.289062 319.570312 77.113281 319.566406 L 77.117188 319.566406 C 58.820312 319.289062 44.1875 304.339844 44.1875 286.078125 C 44.1875 285.902344 44.1875 285.726562 44.1875 285.554688 C 44.472656 267.230469 59.390625 252.566406 77.617188 252.566406 C 77.796875 252.566406 77.96875 252.566406 78.140625 252.570312 L 78.144531 252.570312 L 78.15625 251.742188 L 78.175781 250.914062 C 77.984375 250.910156 77.800781 250.910156 77.617188 250.910156 C 58.488281 250.910156 42.832031 266.296875 42.539062 285.53125 L 42.539062 285.527344 C 42.53125 285.710938 42.53125 285.898438 42.53125 286.078125 C 42.53125 305.246094 57.890625 320.929688 77.089844 321.226562 L 77.09375 321.226562 C 77.273438 321.226562 77.453125 321.230469 77.636719 321.230469 C 96.773438 321.230469 112.425781 305.84375 112.722656 286.609375 C 112.722656 286.425781 112.726562 286.242188 112.726562 286.058594 C 112.722656 266.890625 97.367188 251.210938 78.171875 250.914062 L 78.175781 250.914062 L 78.15625 251.742188 " fill-opacity="1" fill-rule="nonzero"/></g><path fill="#6bb4e6" d="M 78.039062 259.316406 C 92.785156 259.542969 104.558594 271.707031 104.332031 286.484375 C 104.105469 301.257812 91.964844 313.050781 77.21875 312.820312 C 62.46875 312.59375 50.703125 300.429688 50.925781 285.660156 C 51.152344 270.882812 63.289062 259.089844 78.039062 259.316406 " fill-opacity="1" fill-rule="nonzero"/><path fill="#231f20" d="M 78.039062 259.316406 L 78.027344 260.144531 C 92.179688 260.363281 103.507812 271.925781 103.507812 286.058594 C 103.507812 286.199219 103.507812 286.332031 103.503906 286.472656 C 103.289062 300.648438 91.742188 312 77.636719 311.996094 C 77.503906 311.996094 77.367188 311.996094 77.230469 311.992188 C 63.074219 311.777344 51.75 300.207031 51.75 286.078125 C 51.75 285.941406 51.75 285.808594 51.753906 285.675781 L 51.753906 285.671875 C 51.972656 271.488281 63.511719 260.140625 77.621094 260.140625 C 77.757812 260.140625 77.890625 260.140625 78.023438 260.144531 L 78.027344 260.144531 L 78.039062 259.316406 L 78.0625 258.492188 C 77.910156 258.488281 77.761719 258.484375 77.621094 258.484375 C 62.609375 258.488281 50.332031 270.558594 50.097656 285.644531 C 50.097656 285.789062 50.097656 285.933594 50.097656 286.078125 C 50.097656 301.113281 62.140625 313.417969 77.207031 313.652344 C 77.351562 313.652344 77.496094 313.652344 77.636719 313.652344 C 92.644531 313.652344 104.925781 301.578125 105.15625 286.496094 C 105.15625 286.347656 105.160156 286.203125 105.160156 286.058594 C 105.160156 271.023438 93.113281 258.722656 78.054688 258.492188 L 78.0625 258.492188 L 78.039062 259.316406 " fill-opacity="1" fill-rule="nonzero"/><path fill="#f03098" d="M 176.996094 281.660156 L 176.804688 294.152344 L 116.183594 293.214844 L 116.375 280.726562 L 176.996094 281.660156 " fill-opacity="1" fill-rule="nonzero"/><path fill="#231f20" d="M 176.996094 281.660156 L 176.167969 281.648438 L 175.992188 293.308594 L 117.027344 292.402344 L 117.191406 281.566406 L 176.984375 282.488281 L 176.996094 281.660156 L 176.167969 281.648438 L 176.996094 281.660156 L 177.011719 280.832031 L 116.390625 279.898438 C 115.933594 279.890625 115.558594 280.257812 115.550781 280.710938 L 115.355469 293.203125 C 115.351562 293.660156 115.714844 294.039062 116.171875 294.042969 L 176.792969 294.980469 C 177.011719 294.984375 177.222656 294.898438 177.378906 294.746094 C 177.539062 294.59375 177.628906 294.382812 177.628906 294.164062 L 177.824219 281.675781 C 177.828125 281.21875 177.464844 280.839844 177.011719 280.832031 L 176.996094 281.660156 " fill-opacity="1" fill-rule="nonzero"/></svg>