<svg xmlns="http://www.w3.org/2000/svg" xmlns:xlink="http://www.w3.org/1999/xlink" width="500" zoomAndPan="magnify" viewBox="0 0 375 374.999991" height="500" preserveAspectRatio="xMidYMid meet" version="1.0"><path fill="#7ed957" d="M 66.457031 295.957031 C 67.660156 288.890625 73.796875 282.847656 81.136719 281.5 C 88.476562 280.152344 96.511719 283.597656 100.355469 289.734375 C 99.859375 279.691406 101.8125 269.210938 107.929688 261.042969 C 114.046875 252.871094 124.863281 247.523438 135.164062 249.457031 C 145.464844 251.386719 153.800781 261.785156 151.332031 271.554688 C 146.320312 257.882812 153.824219 242.183594 165.75 233.265625 C 177.671875 224.347656 193.0625 220.953125 208.058594 219.070312 C 217.042969 217.941406 226.21875 217.273438 235.128906 218.867188 C 244.035156 220.460938 252.734375 224.539062 258.234375 231.441406 C 263.730469 238.339844 265.433594 248.292969 261.078125 255.90625 C 265.855469 252.335938 271.757812 249.929688 277.8125 250.042969 C 283.867188 250.160156 290 253.0625 293.03125 258.085938 C 296.058594 263.109375 295.351562 270.179688 290.804688 274.011719 C 297.644531 270.332031 306.554688 270.492188 313.246094 274.417969 C 319.933594 278.339844 323.480469 285.847656 323.164062 293.355469 C 323.164062 293.355469 66.457031 295.957031 66.457031 295.957031 Z M 66.457031 295.957031 " fill-opacity="1" fill-rule="nonzero"/><path stroke-linecap="round" transform="matrix(0.277778, 0, 0, 0.277778, 123.323888, 147.515263)" fill-opacity="1" fill="#7ed957" fill-rule="nonzero" stroke-linejoin="round" d="M 0.00118925 -259.184653 C 143.143387 -259.184653 259.173083 -143.140895 259.173083 0.00130279 C 259.173083 143.143501 143.143387 259.173196 0.00118925 259.173196 C -143.141009 259.173196 -259.184767 143.143501 -259.184767 0.00130279 C -259.184767 -143.140895 -143.141009 -259.184653 0.00118925 -259.184653 Z M 0.00118925 -259.184653 " stroke="#000000" stroke-width="3" stroke-opacity="1" stroke-miterlimit="4"/><path stroke-linecap="round" transform="matrix(0.277778, 0, 0, 0.277778, 123.323888, 147.515263)" fill-opacity="1" fill="#ffffff" fill-rule="nonzero" stroke-linejoin="round" d="M 0.00118925 -241.297152 C 133.271511 -241.297152 241.299644 -133.269019 241.299644 0.00130279 C 241.299644 133.271625 133.271511 241.299758 0.00118925 241.299758 C -133.269133 241.299758 -241.297266 133.271625 -241.297266 0.00130279 C -241.297266 -133.269019 -133.269133 -241.297152 0.00118925 -241.297152 Z M 0.00118925 -241.297152 " stroke="#000000" stroke-width="3" stroke-opacity="1" stroke-miterlimit="4"/><path stroke-linecap="round" transform="matrix(0.277778, 0, 0, 0.277778, 37.500002, 37.499998)" fill="none" stroke-linejoin="round" d="M 100.40625 396.056287 C 100.40625 396.056287 122.625002 396.056287 122.625002 396.056287 " stroke="#000000" stroke-width="3" stroke-opacity="1" stroke-miterlimit="4"/><path stroke-linecap="round" transform="matrix(0.277778, 0, 0, 0.277778, 37.500002, 37.499998)" fill="none" stroke-linejoin="round" d="M 495.309403 396.056287 C 495.309403 396.056287 517.528155 396.056287 517.528155 396.056287 " stroke="#000000" stroke-width="3" stroke-opacity="1" stroke-miterlimit="4"/><path stroke-linecap="round" transform="matrix(0.277778, 0, 0, 0.277778, 37.500002, 37.499998)" fill="none" stroke-linejoin="round" d="M 303.15939 608.807865 C 303.15939 608.807865 303.15939 586.603176 303.15939 586.603176 " stroke="#000000" stroke-width="3" stroke-opacity="1" stroke-miterlimit="4"/><path stroke-linecap="round" transform="matrix(0.277778, 0, 0, 0.277778, 37.500002, 37.499998)" fill="none" stroke-linejoin="round" d="M 303.15939 205.509399 C 303.15939 205.509399 303.15939 183.30471 303.15939 183.30471 " stroke="#000000" stroke-width="3" stroke-opacity="1" stroke-miterlimit="4"/><path stroke-linecap="round" transform="matrix(0.277778, 0, 0, 0.277778, 100.911941, 138.572482)" fill-opacity="1" fill="#ffffff" fill-rule="nonzero" stroke-linejoin="round" d="M 86.126393 34.206254 C 86.126393 34.206254 85.606081 35.485942 85.606081 35.485942 C 84.284206 38.73438 80.585768 40.30938 77.323268 38.987505 C 77.323268 38.987505 -82.623619 -25.925 -82.623619 -25.925 C -85.886119 -27.246875 -87.447057 -30.945313 -86.125182 -34.193751 C -86.125182 -34.193751 -85.604869 -35.487501 -85.604869 -35.487501 C -84.282994 -38.735938 -80.584556 -40.310938 -77.336118 -38.989063 C -77.336118 -38.989063 82.624831 25.923441 82.624831 25.923441 C 85.887331 27.245316 87.448268 30.943754 86.126393 34.206254 Z M 86.126393 34.206254 " stroke="#000000" stroke-width="3" stroke-opacity="1" stroke-miterlimit="4"/><path stroke-linecap="round" transform="matrix(0.277778, 0, 0, 0.277778, 123.323888, 129.938048)" fill-opacity="1" fill="#ffffff" fill-rule="nonzero" stroke-linejoin="round" d="M 0.690252 70.324594 C 0.690252 70.324594 -0.687873 70.324594 -0.687873 70.324594 C -4.203499 70.324594 -7.044124 67.483969 -7.044124 63.968343 C -7.044124 63.968343 -7.044124 -63.972291 -7.044124 -63.972291 C -7.044124 -67.487916 -4.203499 -70.328541 -0.687873 -70.328541 C -0.687873 -70.328541 0.690252 -70.328541 0.690252 -70.328541 C 4.205877 -70.328541 7.046502 -67.487916 7.046502 -63.972291 C 7.046502 -63.972291 7.046502 63.968343 7.046502 63.968343 C 7.046502 67.483969 4.205877 70.324594 0.690252 70.324594 Z M 0.690252 70.324594 " stroke="#000000" stroke-width="3" stroke-opacity="1" stroke-miterlimit="4"/><path stroke-linecap="round" transform="matrix(0.277778, 0, 0, 0.277778, 123.323888, 147.515263)" fill-opacity="1" fill="#7ed957" fill-rule="nonzero" stroke-linejoin="round" d="M 0.00118925 -15.481511 C 8.55119 -15.481511 15.484003 -8.548698 15.484003 0.00130279 C 15.484003 8.551303 8.55119 15.484116 0.00118925 15.484116 C -8.548811 15.484116 -15.481624 8.551303 -15.481624 0.00130279 C -15.481624 -8.548698 -8.548811 -15.481511 0.00118925 -15.481511 Z M 0.00118925 -15.481511 " stroke="#000000" stroke-width="3" stroke-opacity="1" stroke-miterlimit="4"/><path stroke-linecap="round" transform="matrix(0.277778, 0, 0, 0.277778, 173.304442, 281.927501)" fill-opacity="1" fill="#ffffff" fill-rule="nonzero" stroke-linejoin="round" d="M -21.852242 56.060999 C -21.852242 56.060999 -6.650679 59.801624 -6.650679 59.801624 C 1.772759 61.868812 10.294635 56.721936 12.361822 48.284436 C 12.361822 48.284436 33.357136 -37.032758 33.357136 -37.032758 C 35.438387 -45.470259 30.277449 -53.978072 21.854011 -56.059322 C 21.854011 -56.059322 6.652447 -59.799947 6.652447 -59.799947 C -1.785054 -61.867135 -10.292867 -56.720259 -12.374117 -48.282759 C -12.374117 -48.282759 -33.355368 37.034435 -33.355368 37.034435 C -35.436618 45.471935 -30.289743 53.979749 -21.852242 56.060999 Z M -21.852242 56.060999 " stroke="#000000" stroke-width="3" stroke-opacity="1" stroke-miterlimit="4"/><path stroke-linecap="round" transform="matrix(0.277778, 0, 0, 0.277778, 251.440008, 283.258868)" fill-opacity="1" fill="#ffffff" fill-rule="nonzero" stroke-linejoin="round" d="M 34.275349 49.454017 C 34.275349 49.454017 20.353473 56.61183 20.353473 56.61183 C 12.63316 60.591518 3.155034 57.554018 -0.824654 49.833705 C -0.824654 49.833705 -41.043407 -28.283489 -41.043407 -28.283489 C -45.023095 -36.003802 -41.985594 -45.481927 -34.265281 -49.447553 C -34.265281 -49.447553 -20.357468 -56.619428 -20.357468 -56.619428 C -12.637155 -60.599116 -3.159029 -57.561616 0.820659 -49.841303 C 0.820659 -49.841303 41.053474 28.27589 41.053474 28.27589 C 45.019099 35.996204 41.995662 45.474329 34.275349 49.454017 Z M 34.275349 49.454017 " stroke="#000000" stroke-width="3" stroke-opacity="1" stroke-miterlimit="4"/><path stroke-linecap="round" transform="matrix(0.277778, 0, 0, 0.277778, 219.507484, 184.332204)" fill-opacity="1" fill="#ffffff" fill-rule="nonzero" stroke-linejoin="round" d="M 93.179313 -226.674075 C 130.754315 -231.413138 166.177755 -202.753761 181.618381 -168.160009 C 197.07307 -133.580319 197.030883 -94.317816 196.355883 -56.433438 C 194.865257 27.013443 190.449632 114.608762 147.137129 185.961892 C 142.313691 193.921267 136.984003 201.655643 130.248065 208.068143 C 123.554315 214.452519 115.609002 219.388457 107.354314 223.550957 C 75.798061 239.469708 39.573059 244.363459 4.262119 242.774396 C -31.048821 241.171271 -65.769136 233.366583 -100.109764 224.999395 C -121.40039 219.810332 -144.78633 212.863456 -156.09258 194.090017 C -164.375393 180.350954 -164.178518 163.34939 -164.600394 147.304077 C -167.005081 56.699383 -197.084771 -31.781874 -196.255083 -122.40063 C -195.959771 -154.435008 -190.194145 -189.563135 -165.922269 -210.460012 C -126.547266 -244.364702 -73.883199 -222.4272 -32.483196 -206.185011 C 13.782432 -188.030323 48.488684 -221.035012 93.179313 -226.674075 Z M 93.179313 -226.674075 " stroke="#000000" stroke-width="3" stroke-opacity="1" stroke-miterlimit="4"/><path stroke-linecap="round" transform="matrix(0.277778, 0, 0, 0.277778, 242.704148, 165.495824)" fill="none" stroke-linejoin="round" d="M 23.269757 -22.864657 C 6.001006 -9.561531 -9.66462 5.836908 -23.277121 22.866597 " stroke="#000000" stroke-width="3" stroke-opacity="1" stroke-miterlimit="4"/><path stroke-linecap="round" transform="matrix(0.277778, 0, 0, 0.277778, 242.95304, 165.439427)" fill="none" stroke-linejoin="round" d="M -19.94032 -30.424126 C -19.94032 -30.424126 18.998746 26.205566 18.998746 26.205566 C 19.940933 27.555566 19.744058 30.424316 18.253433 29.707128 " stroke="#000000" stroke-width="3" stroke-opacity="1" stroke-miterlimit="4"/><path stroke-linecap="round" transform="matrix(0.277778, 0, 0, 0.277778, 195.114997, 164.929984)" fill="none" stroke-linejoin="round" d="M 25.770387 -26.28388 C 4.465698 -13.571379 -13.478054 4.737997 -25.76868 26.281749 " stroke="#000000" stroke-width="3" stroke-opacity="1" stroke-miterlimit="4"/><path stroke-linecap="round" transform="matrix(0.277778, 0, 0, 0.277778, 195.113605, 164.921648)" fill="none" stroke-linejoin="round" d="M -25.285543 -28.841374 C -4.135542 -13.555435 18.406647 3.671129 25.28321 28.843005 " stroke="#000000" stroke-width="3" stroke-opacity="1" stroke-miterlimit="4"/><path stroke-linecap="round" transform="matrix(0.277778, 0, 0, 0.277778, 195.858872, 203.934435)" fill="none" stroke-linejoin="round" d="M 24.737749 -23.388969 C 7.004935 -9.003031 -13.090379 3.737595 -24.73413 23.396972 " stroke="#000000" stroke-width="3" stroke-opacity="1" stroke-miterlimit="4"/><path stroke-linecap="round" transform="matrix(0.277778, 0, 0, 0.277778, 195.095279, 204.401663)" fill="none" stroke-linejoin="round" d="M -27.272693 -28.811612 C -2.747692 -17.322549 17.150747 3.70089 27.261685 28.802454 " stroke="#000000" stroke-width="3" stroke-opacity="1" stroke-miterlimit="4"/><path stroke-linecap="round" transform="matrix(0.277778, 0, 0, 0.277778, 243.427489, 166.08554)" fill-opacity="1" fill="#ffffff" fill-rule="nonzero" stroke-linejoin="round" d="M -18.990523 2.237368 C -17.753022 12.727993 -8.246772 20.223306 2.229792 18.985806 C 12.720417 17.748306 20.229793 8.256118 18.992293 -2.234508 C 17.754793 -12.725133 8.248542 -20.220447 -2.228021 -18.982946 C -12.718647 -17.759509 -20.228023 -8.253258 -18.990523 2.237368 Z M -18.990523 2.237368 " stroke="#000000" stroke-width="3" stroke-opacity="1" stroke-miterlimit="4"/><path stroke-linecap="round" transform="matrix(0.277778, 0, 0, 0.277778, 196.053054, 163.47916)" fill-opacity="1" fill="#ffffff" fill-rule="nonzero" stroke-linejoin="round" d="M -16.264433 1.917213 C -15.195683 10.889088 -7.067558 17.315651 1.918381 16.260964 C 10.890256 15.206276 17.316819 7.064088 16.262132 -1.907787 C 15.207444 -10.893726 7.065256 -17.320289 -1.920682 -16.265601 C -10.892558 -15.196851 -17.319121 -7.068725 -16.264433 1.917213 Z M -16.264433 1.917213 " stroke="#000000" stroke-width="3" stroke-opacity="1" stroke-miterlimit="4"/><path stroke-linecap="round" transform="matrix(0.277778, 0, 0, 0.277778, 196.178327, 203.444151)" fill-opacity="1" fill="#ffffff" fill-rule="nonzero" stroke-linejoin="round" d="M -19.04979 2.240117 C -17.81229 12.758868 -8.277915 20.282306 2.240836 19.044806 C 12.759587 17.807306 20.283025 8.27293 19.045525 -2.24582 C 17.808025 -12.764571 8.273649 -20.288009 -2.245102 -19.050509 C -12.763852 -17.813009 -20.287291 -8.278633 -19.04979 2.240117 Z M -19.04979 2.240117 " stroke="#000000" stroke-width="3" stroke-opacity="1" stroke-miterlimit="4"/><path stroke-linecap="round" transform="matrix(0.277778, 0, 0, 0.277778, 239.08389, 204.158307)" fill="none" stroke-linejoin="round" d="M 24.743312 -23.393346 C 7.010498 -8.993345 -13.098879 3.747281 -24.742629 23.392595 " stroke="#000000" stroke-width="3" stroke-opacity="1" stroke-miterlimit="4"/><path stroke-linecap="round" transform="matrix(0.277778, 0, 0, 0.277778, 238.320267, 204.625535)" fill="none" stroke-linejoin="round" d="M -27.267027 -28.801927 C -2.742025 -17.326926 17.142352 3.696513 27.267352 28.81214 " stroke="#000000" stroke-width="3" stroke-opacity="1" stroke-miterlimit="4"/><path stroke-linecap="round" transform="matrix(0.277778, 0, 0, 0.277778, 239.403313, 203.668052)" fill-opacity="1" fill="#ffffff" fill-rule="nonzero" stroke-linejoin="round" d="M -19.044115 2.235637 C -17.806615 12.754388 -8.272239 20.277826 2.246512 19.040326 C 12.765262 17.802826 20.2887 8.282513 19.0512 -2.236238 C 17.8137 -12.754989 8.279325 -20.278427 -2.239426 -19.040927 C -12.758177 -17.803427 -20.281615 -8.283114 -19.044115 2.235637 Z M -19.044115 2.235637 " stroke="#000000" stroke-width="3" stroke-opacity="1" stroke-miterlimit="4"/><path stroke-linecap="round" transform="matrix(0.277778, 0, 0, 0.277778, 219.628876, 243.555262)" fill-opacity="1" fill="#ffffff" fill-rule="nonzero" stroke-linejoin="round" d="M -213.609283 81.560436 C -191.685844 113.313564 -150.454591 124.535439 -112.331151 130.371377 C -60.356147 138.31669 -7.495206 140.482315 44.957923 136.840128 C 78.2298 134.519815 113.09074 129.176065 139.303242 108.560438 C 158.807931 93.232312 171.478245 71.01356 182.882933 48.991684 C 199.378247 17.083869 216.914185 -16.525508 227.981374 -50.795823 C 238.078249 -82.056763 206.901685 -98.228639 178.382933 -99.634889 C 157.471994 -100.675514 136.279805 -92.266139 121.781366 -77.163013 C 106.45324 -61.188012 98.550114 -38.659885 87.215738 -19.717696 C 80.5923 -8.650508 72.801675 1.17918 61.664174 7.774493 C 39.754798 20.740119 12.136046 16.507307 -12.923331 11.866681 C -36.267083 7.549493 -60.018647 3.077618 -81.070211 -7.905195 C -96.707712 -16.047383 -110.854588 -28.436447 -119.024901 -43.80676 C -121.865527 -49.136448 -123.988964 -54.817699 -125.184277 -60.822387 C -128.671777 -78.16145 -124.593652 -97.216139 -132.51084 -113.036453 C -143.113966 -134.242704 -170.563968 -140.486455 -194.259282 -139.473955 C -208.237408 -138.869267 -223.748346 -135.648954 -231.69366 -124.103641 C -238.078035 -114.864578 -237.82491 -102.714577 -237.346785 -91.478639 C -236.053035 -62.130199 -234.78741 -32.767697 -233.507722 -3.405195 C -232.228035 26.069807 -230.385847 57.302622 -213.609283 81.560436 Z M -213.609283 81.560436 " stroke="#000000" stroke-width="3" stroke-opacity="1" stroke-miterlimit="4"/><path stroke-linecap="round" transform="matrix(0.277778, 0, 0, 0.277778, 213.446666, 248.941097)" fill-opacity="1" fill="#ffffff" fill-rule="nonzero" stroke-linejoin="round" d="M -125.133008 17.705801 C -117.412695 26.326114 -106.47207 31.24799 -95.658006 35.396427 C -40.40644 56.560491 20.343565 63.197992 78.871694 54.451116 C 96.267008 51.849554 115.152946 46.829241 125.06701 32.288615 C 138.904511 11.068301 129.032635 -22.259827 109.471696 -39.106703 C 102.848258 -28.039515 95.04357 -18.209826 83.920132 -11.614513 C 62.010755 1.351112 34.392003 -2.8817 9.332626 -7.522326 C -14.011125 -11.853576 -37.76269 -16.311389 -58.814254 -27.294202 C -74.451755 -35.43639 -88.598631 -47.825454 -96.768944 -63.195767 C -110.52207 -58.034829 -122.672071 -48.655141 -129.703321 -35.858265 C -138.914259 -19.109826 -137.873634 3.47455 -125.133008 17.705801 Z M -125.133008 17.705801 " stroke="#000000" stroke-width="3" stroke-opacity="1" stroke-miterlimit="4"/><path stroke-linecap="round" transform="matrix(0.277778, 0, 0, 0.277778, 220.085263, 159.15333)" fill-opacity="1" fill="#000000" fill-rule="nonzero" stroke-linejoin="round" d="M -0.785071 -25.695741 C -7.942884 -16.147303 -17.336635 -8.005115 -21.949135 2.991761 C -26.294448 13.355824 -25.746011 25.64645 -20.500698 35.588638 C -15.241322 45.516764 -5.397572 52.899577 5.627429 55.135515 C -2.458509 48.779264 -7.788197 39.033951 -8.800697 28.79645 C -9.799134 18.55895 -6.466322 7.969886 0.227429 0.165198 C 4.952429 -5.361365 11.210242 -9.49574 15.513367 -15.34574 C 20.92743 -22.728553 26.299306 -46.423868 14.838367 -52.062931 C 8.594617 -55.142618 3.293054 -31.151992 -0.785071 -25.695741 Z M -0.785071 -25.695741 " stroke="#000000" stroke-width="3" stroke-opacity="1" stroke-miterlimit="4"/><path stroke-linecap="round" transform="matrix(0.277778, 0, 0, 0.277778, 240.342205, 157.302206)" fill-opacity="1" fill="#000000" fill-rule="nonzero" stroke-linejoin="round" d="M 29.016503 -103.055135 C 41.068066 -90.961384 46.594629 -74.536383 44.007129 -58.533257 C 42.249316 -47.662944 36.933691 -36.722318 39.057128 -26.077005 C 41.939941 -11.592629 57.56338 -1.833253 65.579005 11.090185 C 75.436818 26.952687 72.961818 47.076125 63.174318 63.880814 C 53.386817 80.685503 37.060253 94.593316 19.524314 106.616755 C 10.946189 112.49488 1.819626 118.091756 -8.600688 121.129256 C -19.006938 124.166756 -30.988189 124.335506 -39.917877 119.680818 C -50.436628 114.196443 -54.655378 103.49488 -57.608504 93.454254 C -75.439755 33.069874 -72.303817 -32.264505 -48.65069 -93.23951 C -43.70069 -105.994198 -36.064752 -124.331699 -16.700688 -123.642637 C 0.624313 -123.037949 18.638377 -113.489511 29.016503 -103.055135 Z M 29.016503 -103.055135 " stroke="#000000" stroke-width="3" stroke-opacity="1" stroke-miterlimit="4"/><path stroke-linecap="round" transform="matrix(0.277778, 0, 0, 0.277778, 210.029434, 201.101924)" fill-opacity="1" fill="#f2f2f2" fill-rule="nonzero" stroke-linejoin="round" d="M 16.754977 -107.199748 C -1.8919 -81.788809 -14.196588 -52.145057 -22.310651 -21.685679 C -30.424714 8.773698 -34.488777 40.1612 -37.82159 71.506515 C -39.410652 86.440891 -40.718465 102.148705 -34.741902 115.929956 C -33.391902 119.037768 -31.198152 122.328393 -27.837214 122.665894 C -23.759089 123.059644 -20.805964 118.995581 -18.865338 115.39558 C -0.6544 81.631516 9.709664 44.281513 19.933102 7.297135 C 27.498727 -20.096617 35.092478 -47.616931 38.636228 -75.812246 C 39.986228 -86.626309 40.717478 -98.10131 37.539353 -108.676311 C 33.19404 -123.062249 23.392477 -116.270061 16.754977 -107.199748 Z M 16.754977 -107.199748 " stroke="#000000" stroke-width="3" stroke-opacity="1" stroke-miterlimit="4"/><path stroke-linecap="round" transform="matrix(0.277778, 0, 0, 0.277778, 224.011103, 223.471934)" fill-opacity="1" fill="#f2f2f2" fill-rule="nonzero" stroke-linejoin="round" d="M 72.241283 62.468229 C 69.63972 67.81198 64.535032 70.540105 59.725657 72.508855 C 39.560031 80.847918 18.114717 82.971356 -2.585285 80.454168 C -23.271224 77.93698 -43.254038 70.863542 -62.154039 61.286979 C -68.00404 58.319791 -74.571228 53.735416 -74.782165 45.930728 C -74.880603 42.62604 -73.769665 39.391665 -72.658727 36.297915 C -63.729039 10.929163 -54.771226 -14.425526 -45.827476 -39.780216 C -41.214975 -52.830217 -36.0681 -66.709905 -26.266537 -74.683343 C -17.125911 -82.122406 -5.622785 -82.966156 5.022528 -82.023969 C 25.511592 -80.223969 47.153781 -72.939593 63.986595 -59.341155 C 69.86472 -54.588029 70.08972 -49.019279 69.892845 -40.736466 C 69.780345 -35.786465 69.710033 -30.836465 69.681908 -25.900527 C 69.63972 -17.477089 69.766283 -9.067714 70.08972 -0.6724 C 70.53972 11.154163 71.32722 22.938539 72.466283 34.652602 C 72.775658 37.929165 73.127221 41.191665 73.492846 44.454165 C 74.181908 50.472916 74.870971 57.054166 72.241283 62.468229 Z M 72.241283 62.468229 " stroke="#000000" stroke-width="3" stroke-opacity="1" stroke-miterlimit="4"/><path stroke-linecap="round" transform="matrix(0.277778, 0, 0, 0.277778, 238.941654, 224.170533)" fill-opacity="1" fill="#ffffff" fill-rule="nonzero" stroke-linejoin="round" d="M 18.716298 32.137645 C 18.280361 32.33452 17.830361 32.475145 17.338173 32.573583 C 13.358485 33.375145 9.44911 30.407957 7.53661 26.836082 C 5.610047 23.236082 5.131922 19.101707 4.077235 15.178269 C 3.022547 11.254831 1.138172 7.204831 -2.447766 5.306393 C -5.471203 3.689205 -9.113391 3.914205 -12.375891 2.859518 C -15.624329 1.80483 -18.718079 -1.73892 -17.143079 -4.77642 C -15.680579 -7.574858 -11.616516 -7.504545 -8.649329 -6.435795 C -5.682141 -5.352983 -2.574328 -3.665483 0.44911 -4.593608 C 8.591298 -7.124858 4.710047 -33.379547 15.931923 -28.415484 C 15.889736 -19.992046 16.016298 -11.582671 16.339736 -3.187358 C 16.789736 8.639206 17.577236 20.423582 18.716298 32.137645 Z M 18.716298 32.137645 " stroke="#000000" stroke-width="3" stroke-opacity="1" stroke-miterlimit="4"/><path stroke-linecap="round" transform="matrix(0.277778, 0, 0, 0.277778, 230.607498, 193.153874)" fill-opacity="1" fill="#7ed957" fill-rule="nonzero" stroke-linejoin="round" d="M -17.486995 -89.963327 C 10.82082 -90.146139 39.663009 -84.478951 63.667699 -74.002388 C 70.220824 -71.133638 76.816137 -67.561763 78.925512 -62.738325 C 81.963013 -55.833637 74.9177 -49.336761 69.433324 -43.374261 C 55.089573 -27.750822 49.984885 -8.991446 50.027073 9.556993 C 50.055198 28.105432 54.977073 46.65387 59.505198 65.146059 C 60.236448 68.141372 60.855199 71.460122 58.253636 73.878872 C 55.933323 76.044498 51.64426 76.888248 47.664573 77.619498 C 4.914569 85.424186 -39.311996 92.286686 -81.963562 80.066373 C -64.272935 66.650747 -56.468247 41.563245 -63.429185 20.497619 C -65.383873 14.563243 -68.365123 9.022618 -70.572936 3.18668 C -72.780749 -2.663321 -74.201061 -9.047696 -72.893249 -15.150821 C -69.658873 -30.26801 -51.054185 -39.057073 -49.591684 -54.455512 C -49.029184 -60.3477 -51.180747 -66.113325 -52.31981 -71.921138 C -53.21981 -76.505513 -53.61356 -82.608639 -50.716685 -86.658639 C -47.946372 -90.525827 -41.069809 -90.539889 -36.611996 -91.032077 C -25.460433 -92.28364 -13.999494 -91.566452 -3.129181 -88.753952 " stroke="#000000" stroke-width="3" stroke-opacity="1" stroke-miterlimit="4"/><path stroke-linecap="round" transform="matrix(0.277778, 0, 0, 0.277778, 232.002776, 164.76916)" fill-opacity="1" fill="#f2f2f2" fill-rule="nonzero" stroke-linejoin="round" d="M 25.583757 -12.5846 C 25.260319 -10.489288 24.936882 -8.393975 24.599381 -6.298662 C 23.769694 -0.94085 22.940006 4.402901 22.110319 9.746651 C 21.660319 12.699776 21.168131 15.723214 19.705631 18.324777 C 17.708756 21.82634 14.193131 24.13259 10.790006 26.298215 C 6.14938 29.223215 1.494692 32.106028 -3.202183 34.960716 C -5.719371 36.493528 -8.517808 38.068528 -11.428746 37.731028 C -12.666246 37.576341 -13.791246 37.098216 -14.831871 36.451341 C -16.589684 35.312278 -18.080309 33.610715 -19.444372 31.993528 C -23.831872 26.790402 -28.402185 21.123215 -28.950622 14.359152 C -29.259997 10.449776 -28.191247 6.596651 -27.122497 2.841963 C -26.095935 -0.758037 -25.069372 -4.358037 -24.04281 -7.9721 C -22.945934 -11.867413 -21.849059 -15.748663 -20.738122 -19.629913 C -19.289684 -24.790851 -17.827184 -29.965852 -16.350621 -35.12679 C -16.069371 -36.153352 -15.675621 -37.306477 -14.691246 -37.77054 C -13.988121 -38.079915 -13.200621 -37.93929 -12.441246 -37.798665 C -5.142808 -36.448665 2.15563 -35.07054 9.454068 -33.720539 C 13.729068 -32.918977 24.093131 -33.059602 26.736882 -28.981477 C 29.268132 -25.072101 26.216569 -16.648663 25.583757 -12.5846 Z M 25.583757 -12.5846 " stroke="#000000" stroke-width="3" stroke-opacity="1" stroke-miterlimit="4"/><path stroke-linecap="round" transform="matrix(0.277778, 0, 0, 0.277778, 227.88472, 167.103887)" fill-opacity="1" fill="#ffffff" fill-rule="nonzero" stroke-linejoin="round" d="M 12.410322 6.629134 C 9.443134 11.930697 6.475946 17.232259 3.522821 22.533822 C 2.482196 24.404135 1.343133 26.34476 -0.00686677 28.046323 C -1.764679 26.90726 -3.255305 25.205697 -4.619367 23.58851 C -9.006867 18.385384 -13.57718 12.718197 -14.125618 5.954134 C -14.434993 2.044758 -13.366243 -1.808367 -12.297493 -5.563055 C -11.27093 -9.163055 -10.244368 -12.763055 -9.217805 -16.377118 C -8.12093 -20.272431 -7.024055 -24.153681 -5.913117 -28.034931 C -3.649055 -27.247431 -1.708429 -25.714619 -0.499054 -23.211494 C 3.452508 -15.055243 -10.525618 0.146321 6.644696 -1.780242 C 9.316571 -2.075555 12.649384 -1.667742 13.675947 0.821321 C 14.435322 2.719758 13.408759 4.843196 12.410322 6.629134 Z M 12.410322 6.629134 " stroke="#000000" stroke-width="3" stroke-opacity="1" stroke-miterlimit="4"/><path stroke-linecap="round" transform="matrix(0.277778, 0, 0, 0.277778, 219.378038, 145.727218)" fill-opacity="1" fill="#f2f2f2" fill-rule="nonzero" stroke-linejoin="round" d="M 8.595313 -4.488296 C 7.034376 -6.232046 5.445313 -7.989859 3.448438 -9.185172 C 1.451563 -10.380484 -1.0375 -10.971109 -3.23125 -10.169547 C -5.903125 -9.213297 -7.548438 -6.386734 -7.970313 -3.574234 C -8.589063 0.503892 -6.94375 4.835142 -3.79375 7.478892 C -0.64375 10.122642 3.912501 10.966392 7.807813 9.630455 " stroke="#000000" stroke-width="3" stroke-opacity="1" stroke-miterlimit="4"/><path stroke-linecap="round" transform="matrix(0.277778, 0, 0, 0.277778, 231.95804, 142.197499)" fill-opacity="1" fill="#f2f2f2" fill-rule="nonzero" stroke-linejoin="round" d="M -43.386449 -4.437561 C -43.217699 2.14369 -41.783324 8.682753 -42.247386 15.235878 C -42.739574 22.168691 -45.355199 28.932754 -44.792699 35.837442 C -44.188011 43.206193 -39.941136 49.956193 -34.231761 54.624943 C -28.522385 59.279631 -21.46301 62.035881 -14.277072 63.681194 C -4.644259 65.889007 5.63543 66.184319 14.986993 62.949944 C 24.338556 59.729631 32.621369 52.628068 35.869807 43.276505 C 38.35887 36.090567 37.782307 28.271816 38.710432 20.734316 C 40.060432 9.821815 44.574495 -0.626623 44.88387 -11.623499 C 45.347933 -28.386 34.941682 -44.923501 19.655743 -51.715689 C -12.941134 -66.186003 -44.272386 -37.301626 -43.386449 -4.437561 Z M -43.386449 -4.437561 " stroke="#000000" stroke-width="3" stroke-opacity="1" stroke-miterlimit="4"/><path stroke-linecap="round" transform="matrix(0.277778, 0, 0, 0.277778, 235.137762, 137.981093)" fill-opacity="1" fill="#ffffff" fill-rule="nonzero" stroke-linejoin="round" d="M 9.600933 -21.897563 C 14.227496 -17.6085 17.321246 -11.913187 20.007184 -6.203811 C 22.032184 -1.886624 23.789997 3.513377 20.991559 7.366502 C 19.332184 9.644627 16.519683 10.699315 14.030621 12.035252 C 9.235308 14.622753 5.269683 18.71494 2.822808 23.580566 C 1.121245 26.983691 -0.720943 31.399316 -4.517818 31.511816 C -8.202193 31.624316 -10.452193 27.293066 -10.466256 23.608691 C -10.494381 17.604003 -7.442818 10.629002 -11.478756 6.185252 C -13.433444 4.047752 -16.485006 3.316502 -18.777194 1.544627 C -23.699069 -2.238186 -23.797507 -10.056937 -20.549069 -15.3585 C -13.531881 -26.847563 -0.847505 -31.614751 9.600933 -21.897563 Z M 9.600933 -21.897563 " stroke="#000000" stroke-width="3" stroke-opacity="1" stroke-miterlimit="4"/><path stroke-linecap="round" transform="matrix(0.277778, 0, 0, 0.277778, 233.978046, 140.729727)" fill-opacity="1" fill="#000000" fill-rule="nonzero" stroke-linejoin="round" d="M -9.863154 -16.661393 C -4.392841 -10.34733 2.708722 -5.664517 9.979035 -1.558266 C 13.171223 0.241734 16.461848 1.985484 19.091536 4.530796 C 21.707161 7.090172 23.605599 10.662047 23.254036 14.304235 C 22.550911 21.265173 14.760286 24.73861 9.683723 29.547986 C 3.53841 35.383924 0.979035 44.721424 3.31341 52.877675 C 5.647785 61.019863 12.749348 67.601114 21.046224 69.302676 C 17.896223 61.863613 16.208723 53.679238 17.080598 45.649549 C 17.938411 37.619861 21.510286 29.744861 27.599349 24.429235 C 32.169662 20.449548 37.907162 18.04486 42.660288 14.304235 C 53.572788 5.726109 58.114976 -9.50358 55.471226 -23.130143 C 52.827476 -36.742644 43.729038 -48.597332 32.239974 -56.373895 C 18.894661 -65.387959 2.005597 -69.297334 -13.786591 -66.147334 C -29.564717 -62.997333 -43.936594 -52.562958 -51.024094 -38.106707 C -58.125657 -23.650456 -57.422532 -5.439517 -48.506906 7.962047 C -49.378781 -1.670766 -41.320968 -9.545767 -33.79753 -15.63483 C -28.355342 -20.036393 -17.822529 -27.756706 -18.469404 -35.687956 C -18.286592 -28.783268 -14.306904 -21.794205 -9.863154 -16.661393 Z M -9.863154 -16.661393 " stroke="#000000" stroke-width="3" stroke-opacity="1" stroke-miterlimit="4"/><path stroke-linecap="round" transform="matrix(0.277778, 0, 0, 0.277778, 244.086375, 149.340269)" fill-opacity="1" fill="#f2f2f2" fill-rule="nonzero" stroke-linejoin="round" d="M -8.270325 -3.587467 C -6.428138 -6.97653 -4.037512 -10.773405 -0.212512 -11.181218 C 4.160926 -11.659343 7.676551 -7.103092 8.126551 -2.715592 C 8.562489 1.559408 6.860926 6.087534 3.457801 8.689096 C 0.040613 11.290659 -5.03595 11.656284 -8.551575 9.223471 " stroke="#000000" stroke-width="3" stroke-opacity="1" stroke-miterlimit="4"/><path stroke-linecap="round" transform="matrix(0.277778, 0, 0, 0.277778, 187.957214, 164.749148)" fill-opacity="1" fill="#7ed957" fill-rule="nonzero" stroke-linejoin="round" d="M 22.13372 39.701506 C 22.13372 39.701506 -8.367845 44.679632 -8.367845 44.679632 C -12.178783 45.298382 -15.792846 42.710881 -16.411596 38.885881 C -16.411596 38.885881 -27.928784 -31.651624 -27.928784 -31.651624 C -28.547534 -35.462562 -25.960034 -39.076624 -22.135034 -39.695375 C -22.135034 -39.695375 8.366531 -44.6735 8.366531 -44.6735 C 12.177469 -45.306312 15.791532 -42.70475 16.410282 -38.893812 C 16.410282 -38.893812 27.92747 31.643693 27.92747 31.643693 C 28.54622 35.468693 25.95872 39.068694 22.13372 39.701506 Z M 22.13372 39.701506 " stroke="#000000" stroke-width="3" stroke-opacity="1" stroke-miterlimit="4"/><path stroke-linecap="round" transform="matrix(0.277778, 0, 0, 0.277778, 183.484168, 159.049984)" fill-opacity="1" fill="#000000" fill-rule="nonzero" stroke-linejoin="round" d="M 4.571056 11.323184 C 4.571056 11.323184 -0.730506 12.195059 -0.730506 12.195059 C -1.560194 12.321621 -2.333632 11.759121 -2.474257 10.943496 C -2.474257 10.943496 -5.821132 -9.587755 -5.821132 -9.587755 C -5.961757 -10.417443 -5.399257 -11.190881 -4.569569 -11.331506 C -4.569569 -11.331506 0.731994 -12.189318 0.731994 -12.189318 C 1.561681 -12.329943 2.335119 -11.767443 2.475744 -10.937756 C 2.475744 -10.937756 5.822619 9.579433 5.822619 9.579433 C 5.963244 10.409121 5.400744 11.196621 4.571056 11.323184 Z M 4.571056 11.323184 " stroke="#000000" stroke-width="3" stroke-opacity="1" stroke-miterlimit="4"/><path stroke-linecap="round" transform="matrix(0.277778, 0, 0, 0.277778, 218.838888, 186.104153)" fill-opacity="1" fill="#f2f2f2" fill-rule="nonzero" stroke-linejoin="round" d="M 114.19095 -9.59995 C 113.305012 -8.390575 112.405012 -7.1812 111.49095 -5.985887 C 92.928448 18.67974 71.145634 41.742241 46.873758 62.343805 C 43.934695 64.84693 40.967507 67.321931 37.958132 69.740681 C 34.062819 72.876618 30.040944 75.984431 25.597194 78.206306 C 24.556568 79.035994 23.361256 79.710994 22.011256 80.217244 C 16.231568 82.368807 9.819067 82.860994 3.420629 82.073494 C -3.638746 81.215682 -10.712184 78.796931 -16.899685 75.379744 C -23.157497 71.906306 -28.669998 67.532868 -33.648123 62.681305 C -38.049686 58.406305 -42.071561 53.779742 -45.854374 49.096929 C -61.140313 30.182865 -73.698126 9.609426 -83.063752 -11.864013 C -85.91844 -18.374951 -88.646565 -25.237451 -94.313753 -30.229639 C -104.424691 -39.131202 -121.51063 -39.974952 -130.215318 -49.945265 C -135.910631 -56.456203 -135.980943 -66.398392 -129.638755 -71.699954 C -125.645005 -75.032767 -119.330942 -75.83433 -113.902817 -74.287455 C -111.301254 -72.445267 -108.643441 -70.715579 -105.901253 -69.084329 C -107.813754 -71.615579 -110.710629 -73.35933 -113.902817 -74.287455 C -113.902817 -74.287455 -112.960629 -75.299955 -118.037192 -80.235893 C -119.105942 -81.262455 -118.234067 -82.86558 -116.715317 -82.654643 C -93.17469 -79.349955 -85.370002 -69.759329 -80.715314 -48.90464 C -72.095001 -43.884327 -63.784063 -38.94839 -55.768437 -33.928077 C -55.768437 -33.928077 -55.754375 -33.928077 -55.754375 -33.928077 C -38.148124 -22.903076 -22.004372 -11.470263 -7.365309 2.170363 C -0.0387458 9.004739 6.90813 16.373489 13.461255 24.543802 C 19.325318 12.421927 27.551881 8.428176 36.059694 -2.723387 C 47.365945 -17.559326 61.555009 -31.776514 79.203447 -39.524952 C 92.886261 -45.543703 108.8472 -46.82339 120.5472 -41.36714 C 135.987826 -34.167139 122.980013 -21.539013 114.19095 -9.59995 Z M 114.19095 -9.59995 " stroke="#000000" stroke-width="3" stroke-opacity="1" stroke-miterlimit="4"/><path stroke-linecap="round" transform="matrix(0.277778, 0, 0, 0.277778, 240.031938, 192.695539)" fill-opacity="1" fill="#ffffff" fill-rule="nonzero" stroke-linejoin="round" d="M 35.195965 -29.714878 C 16.633464 -5.049252 -5.149351 18.01325 -29.421227 38.614814 C -30.11029 36.139814 -30.293102 33.425751 -30.096227 30.894501 C -29.66029 25.016376 -27.888415 19.13825 -28.914977 13.3445 C -29.786852 8.464812 -32.58529 4.119499 -33.893103 -0.675814 C -35.200915 -5.471127 -34.44154 -11.574252 -30.05404 -13.92269 C -21.855602 -18.338315 -12.419664 -5.330502 -3.68685 -8.635189 C 0.447525 -10.196127 2.4444 -14.893002 3.3444 -19.238315 C 4.2444 -23.583628 4.553775 -28.252378 7.11315 -31.866441 C 11.585026 -38.236754 21.414714 -38.616442 28.192839 -34.805504 C 31.103777 -33.146129 33.42409 -31.458629 35.195965 -29.714878 Z M 35.195965 -29.714878 " stroke="#000000" stroke-width="3" stroke-opacity="1" stroke-miterlimit="4"/><path stroke-linecap="round" transform="matrix(0.277778, 0, 0, 0.277778, 209.993033, 185.648323)" fill-opacity="1" fill="#ffffff" fill-rule="nonzero" stroke-linejoin="round" d="M 24.47977 3.81135 C 24.170395 10.350413 22.890707 16.889476 20.865707 23.105101 C 19.782895 26.423852 18.053207 30.094164 14.678207 30.994164 C 9.798519 32.287914 5.720394 26.747289 5.003206 21.755101 C 4.271956 16.608226 5.326644 11.376975 5.171956 6.17385 C 5.003206 0.984787 3.231331 -4.724588 -1.338982 -7.213651 C -5.515545 -9.505839 -10.77492 -8.451151 -15.246795 -10.124589 C -21.265546 -12.388651 -24.485858 -19.293339 -24.443671 -25.733965 C -24.415546 -28.12459 -24.246796 -30.304278 -23.923358 -32.28709 C -23.923358 -32.28709 -23.909296 -32.28709 -23.909296 -32.28709 C -6.303045 -21.276152 9.840707 -9.829276 24.47977 3.81135 Z M 24.47977 3.81135 " stroke="#000000" stroke-width="3" stroke-opacity="1" stroke-miterlimit="4"/><path stroke-linecap="round" transform="matrix(0.277778, 0, 0, 0.277778, 217.509703, 203.170549)" fill-opacity="1" fill="#ffffff" fill-rule="nonzero" stroke-linejoin="round" d="M 28.779134 -15.19679 C 28.694759 -12.763978 27.386946 -10.570227 26.121321 -8.50304 C 20.805696 0.215711 15.476008 8.906337 10.14632 17.611025 C 9.541632 18.623525 8.894757 19.66415 8.205695 20.634462 C 1.146319 19.77665 -5.927119 17.3579 -12.114619 13.940712 C -18.372432 10.467274 -23.884933 6.093836 -28.863058 1.242273 C -23.36462 -4.073352 -12.564619 -6.857727 -7.136494 -6.435852 C -2.706806 -6.08429 1.765069 -4.635852 6.082257 -5.704602 C 12.00257 -7.167102 15.686945 -12.820228 19.666633 -17.44679 C 21.016633 -19.007728 22.774446 -20.624916 24.841633 -20.470228 C 27.260384 -20.287416 28.863509 -17.61554 28.779134 -15.19679 Z M 28.779134 -15.19679 " stroke="#000000" stroke-width="3" stroke-opacity="1" stroke-miterlimit="4"/><path stroke-linecap="round" transform="matrix(0.277778, 0, 0, 0.277778, 193.621105, 221.328605)" fill-opacity="1" fill="#7ed957" fill-rule="nonzero" stroke-linejoin="round" d="M 6.749959 -60.625169 C -7.35473 -79.679858 -22.359418 -99.493921 -43.84692 -109.534547 C -51.243796 -112.97986 -59.976609 -115.131423 -67.514109 -111.981422 C -74.840672 -108.915797 -79.410985 -101.518922 -82.25161 -94.093921 C -91.912549 -68.823607 -86.540673 -40.150167 -76.57036 -14.992353 C -54.942233 39.513901 -11.601605 85.062342 41.765586 109.376406 C 48.417149 112.399844 56.109337 115.127969 62.845275 112.301406 C 68.020276 110.135781 71.395276 105.171718 74.221838 100.334218 C 80.493714 89.618592 91.518715 71.773278 91.729652 59.004527 C 91.912465 46.967027 74.742151 31.287338 67.640588 21.696712 C 47.348399 -5.739227 27.042148 -33.175167 6.749959 -60.625169 Z M 6.749959 -60.625169 " stroke="#000000" stroke-width="3" stroke-opacity="1" stroke-miterlimit="4"/><path stroke-linecap="round" transform="matrix(0.277778, 0, 0, 0.277778, 209.976934, 255.08723)" fill-opacity="1" fill="#ffffff" fill-rule="nonzero" stroke-linejoin="round" d="M -33.962277 22.382847 C -36.465402 31.650035 -32.738839 43.687536 -23.401339 45.867224 C -15.090401 47.821911 -7.356025 41.296911 -1.618525 34.982848 C 7.268976 25.26566 15.354914 14.817221 22.568977 3.792221 C 29.065853 -6.135905 34.986165 -16.978093 35.858041 -28.804657 C 36.462728 -36.80622 32.848665 -46.70622 24.861165 -47.479658 C 21.387727 -47.817158 18.040852 -46.25622 14.890851 -44.723408 C 1.503351 -38.226532 -10.731025 -35.864032 -13.909151 -20.690594 C -17.340401 -4.265592 -29.715402 6.646908 -33.962277 22.382847 Z M -33.962277 22.382847 " stroke="#000000" stroke-width="3" stroke-opacity="1" stroke-miterlimit="4"/><path stroke-linecap="round" transform="matrix(0.277778, 0, 0, 0.277778, 217.695533, 220.884141)" fill-opacity="1" fill="#7ed957" fill-rule="nonzero" stroke-linejoin="round" d="M -24.441419 -70.921977 C -39.038295 -85.167291 -54.549234 -99.145417 -73.322673 -107.132917 C -81.394548 -110.57823 -91.435174 -112.60323 -98.396112 -107.245417 C -104.6258 -102.464167 -105.891425 -93.675104 -106.017988 -85.828228 C -106.5383 -51.571976 -94.444549 -17.850098 -75.375798 10.598341 C -56.855484 38.217093 -30.080482 55.331157 -8.972668 79.996784 C 9.252333 101.315535 31.246085 112.593661 60.889837 107.151473 C 83.178901 103.073348 103.794528 85.185847 105.861715 62.615533 C 106.536715 55.092095 104.82109 46.738969 98.985152 41.943656 C 92.333589 36.473343 83.305464 37.246781 75.627338 34.349906 C 67.752338 31.368655 63.688275 26.362405 58.414837 20.020217 C 45.561711 4.593653 32.483585 -10.650098 19.025771 -25.556349 C 4.991395 -41.095412 -9.450793 -56.282913 -24.441419 -70.921977 Z M -24.441419 -70.921977 " stroke="#000000" stroke-width="3" stroke-opacity="1" stroke-miterlimit="4"/><path stroke-linecap="round" transform="matrix(0.277778, 0, 0, 0.277778, 205.348599, 224.156088)" fill-opacity="1" fill="#7ed957" fill-rule="nonzero" stroke-linejoin="round" d="M 65.457548 105.047467 C 69.338799 98.859966 68.298173 90.886528 66.863798 83.728715 C 58.38411 41.569337 40.693484 1.913084 23.12942 -37.349418 C 10.543482 -65.488483 -2.970582 -94.808797 -27.425271 -113.582236 C -35.933084 -120.121299 -47.60496 -125.254112 -57.139336 -120.304112 C -67.545586 -114.890049 -69.331524 -100.911923 -69.008086 -89.19786 C -67.053399 -17.816604 -33.654959 51.286526 19.838795 98.311529 C 31.327858 108.408405 52.773172 125.255281 65.457548 105.047467 Z M 65.457548 105.047467 " stroke="#000000" stroke-width="3" stroke-opacity="1" stroke-miterlimit="4"/><path stroke-linecap="round" transform="matrix(0.277778, 0, 0, 0.277778, 215.700269, 260.426935)" fill-opacity="1" fill="#ffffff" fill-rule="nonzero" stroke-linejoin="round" d="M -33.96472 22.383348 C -36.467845 31.650537 -32.72722 43.688038 -23.389719 45.867725 C -15.092844 47.822413 -7.358468 41.297412 -1.606905 34.983349 C 7.266533 25.266161 15.352471 14.817723 22.566534 3.792722 C 29.06341 -6.135404 34.983723 -16.977592 35.86966 -28.804155 C 36.460285 -36.805718 32.846222 -46.705719 24.872784 -47.479157 C 21.385284 -47.816657 18.038409 -46.255719 14.888409 -44.722906 C 1.500908 -38.226031 -10.719406 -35.863531 -13.911593 -20.690092 C -17.342844 -4.265091 -29.717845 6.64741 -33.96472 22.383348 Z M -33.96472 22.383348 " stroke="#000000" stroke-width="3" stroke-opacity="1" stroke-miterlimit="4"/><path stroke-linecap="butt" transform="matrix(0.277778, 0, 0, 0.277778, 56.669444, 230.428871)" fill="none" stroke-linejoin="miter" d="M 7.729065 0.00293843 C 7.729065 4.263876 4.269689 7.723251 -0.00531082 7.723251 C -4.266249 7.723251 -7.725624 4.263876 -7.725624 0.00293843 C -7.725624 -4.272062 -4.266249 -7.731437 -0.00531082 -7.731437 C 4.269689 -7.731437 7.729065 -4.272062 7.729065 0.00293843 Z M 7.729065 0.00293843 " stroke="#000000" stroke-width="3" stroke-opacity="1" stroke-miterlimit="10"/><path stroke-linecap="butt" transform="matrix(0.277778, 0, 0, 0.277778, 56.669444, 240.674149)" fill="none" stroke-linejoin="miter" d="M 7.729065 0.00587612 C 7.729065 4.266814 4.269689 7.726189 -0.00531082 7.726189 C -4.266249 7.726189 -7.725624 4.266814 -7.725624 0.00587612 C -7.725624 -4.269124 -4.266249 -7.728499 -0.00531082 -7.728499 C 4.269689 -7.728499 7.729065 -4.269124 7.729065 0.00587612 Z M 7.729065 0.00587612 " stroke="#000000" stroke-width="3" stroke-opacity="1" stroke-miterlimit="10"/><path stroke-linecap="butt" transform="matrix(0.277778, 0, 0, 0.277778, 56.669444, 250.919427)" fill="none" stroke-linejoin="miter" d="M 7.729065 -0.0052487 C 7.729065 4.269752 4.269689 7.729127 -0.00531082 7.729127 C -4.266249 7.729127 -7.725624 4.269752 -7.725624 -0.0052487 C -7.725624 -4.266187 -4.266249 -7.725562 -0.00531082 -7.725562 C 4.269689 -7.725562 7.729065 -4.266187 7.729065 -0.0052487 Z M 7.729065 -0.0052487 " stroke="#000000" stroke-width="3" stroke-opacity="1" stroke-miterlimit="10"/><path stroke-linecap="butt" transform="matrix(0.277778, 0, 0, 0.277778, 56.669444, 261.16469)" fill="none" stroke-linejoin="miter" d="M 7.729065 -0.00225918 C 7.729065 4.272741 4.269689 7.732116 -0.00531082 7.732116 C -4.266249 7.732116 -7.725624 4.272741 -7.725624 -0.00225918 C -7.725624 -4.263197 -4.266249 -7.722572 -0.00531082 -7.722572 C 4.269689 -7.722572 7.729065 -4.263197 7.729065 -0.00225918 Z M 7.729065 -0.00225918 " stroke="#000000" stroke-width="3" stroke-opacity="1" stroke-miterlimit="10"/><path stroke-linecap="butt" transform="matrix(0.277778, 0, 0, 0.277778, 56.669444, 271.409689)" fill="none" stroke-linejoin="miter" d="M 7.729065 0.00168074 C 7.729065 4.262619 4.269689 7.721994 -0.00531082 7.721994 C -4.266249 7.721994 -7.725624 4.262619 -7.725624 0.00168074 C -7.725624 -4.27332 -4.266249 -7.732695 -0.00531082 -7.732695 C 4.269689 -7.732695 7.729065 -4.27332 7.729065 0.00168074 Z M 7.729065 0.00168074 " stroke="#000000" stroke-width="3" stroke-opacity="1" stroke-miterlimit="10"/><path stroke-linecap="butt" transform="matrix(0.277778, 0, 0, 0.277778, 66.596667, 230.428871)" fill="none" stroke-linejoin="miter" d="M 7.723876 0.00293843 C 7.723876 4.263876 4.264501 7.723251 0.003563 7.723251 C -4.271437 7.723251 -7.730813 4.263876 -7.730813 0.00293843 C -7.730813 -4.272062 -4.271437 -7.731437 0.003563 -7.731437 C 4.264501 -7.731437 7.723876 -4.272062 7.723876 0.00293843 Z M 7.723876 0.00293843 " stroke="#000000" stroke-width="3" stroke-opacity="1" stroke-miterlimit="10"/><path stroke-linecap="butt" transform="matrix(0.277778, 0, 0, 0.277778, 66.596667, 240.674149)" fill="none" stroke-linejoin="miter" d="M 7.723876 0.00587612 C 7.723876 4.266814 4.264501 7.726189 0.003563 7.726189 C -4.271437 7.726189 -7.730813 4.266814 -7.730813 0.00587612 C -7.730813 -4.269124 -4.271437 -7.728499 0.003563 -7.728499 C 4.264501 -7.728499 7.723876 -4.269124 7.723876 0.00587612 Z M 7.723876 0.00587612 " stroke="#000000" stroke-width="3" stroke-opacity="1" stroke-miterlimit="10"/><path stroke-linecap="butt" transform="matrix(0.277778, 0, 0, 0.277778, 66.596667, 250.919427)" fill="none" stroke-linejoin="miter" d="M 7.723876 -0.0052487 C 7.723876 4.269752 4.264501 7.729127 0.003563 7.729127 C -4.271437 7.729127 -7.730813 4.269752 -7.730813 -0.0052487 C -7.730813 -4.266187 -4.271437 -7.725562 0.003563 -7.725562 C 4.264501 -7.725562 7.723876 -4.266187 7.723876 -0.0052487 Z M 7.723876 -0.0052487 " stroke="#000000" stroke-width="3" stroke-opacity="1" stroke-miterlimit="10"/><path stroke-linecap="butt" transform="matrix(0.277778, 0, 0, 0.277778, 66.596667, 261.16469)" fill="none" stroke-linejoin="miter" d="M 7.723876 -0.00225918 C 7.723876 4.272741 4.264501 7.732116 0.003563 7.732116 C -4.271437 7.732116 -7.730813 4.272741 -7.730813 -0.00225918 C -7.730813 -4.263197 -4.271437 -7.722572 0.003563 -7.722572 C 4.264501 -7.722572 7.723876 -4.263197 7.723876 -0.00225918 Z M 7.723876 -0.00225918 " stroke="#000000" stroke-width="3" stroke-opacity="1" stroke-miterlimit="10"/><path stroke-linecap="butt" transform="matrix(0.277778, 0, 0, 0.277778, 66.596667, 271.409689)" fill="none" stroke-linejoin="miter" d="M 7.723876 0.00168074 C 7.723876 4.262619 4.264501 7.721994 0.003563 7.721994 C -4.271437 7.721994 -7.730813 4.262619 -7.730813 0.00168074 C -7.730813 -4.27332 -4.271437 -7.732695 0.003563 -7.732695 C 4.264501 -7.732695 7.723876 -4.27332 7.723876 0.00168074 Z M 7.723876 0.00168074 " stroke="#000000" stroke-width="3" stroke-opacity="1" stroke-miterlimit="10"/><path stroke-linecap="butt" transform="matrix(0.277778, 0, 0, 0.277778, 76.523891, 230.428871)" fill="none" stroke-linejoin="miter" d="M 7.732741 0.00293843 C 7.732741 4.263876 4.273366 7.723251 -0.00163431 7.723251 C -4.262572 7.723251 -7.721947 4.263876 -7.721947 0.00293843 C -7.721947 -4.272062 -4.262572 -7.731437 -0.00163431 -7.731437 C 4.273366 -7.731437 7.732741 -4.272062 7.732741 0.00293843 Z M 7.732741 0.00293843 " stroke="#000000" stroke-width="3" stroke-opacity="1" stroke-miterlimit="10"/><path stroke-linecap="butt" transform="matrix(0.277778, 0, 0, 0.277778, 76.523891, 240.674149)" fill="none" stroke-linejoin="miter" d="M 7.732741 0.00587612 C 7.732741 4.266814 4.273366 7.726189 -0.00163431 7.726189 C -4.262572 7.726189 -7.721947 4.266814 -7.721947 0.00587612 C -7.721947 -4.269124 -4.262572 -7.728499 -0.00163431 -7.728499 C 4.273366 -7.728499 7.732741 -4.269124 7.732741 0.00587612 Z M 7.732741 0.00587612 " stroke="#000000" stroke-width="3" stroke-opacity="1" stroke-miterlimit="10"/><path stroke-linecap="butt" transform="matrix(0.277778, 0, 0, 0.277778, 76.523891, 250.919427)" fill="none" stroke-linejoin="miter" d="M 7.732741 -0.0052487 C 7.732741 4.269752 4.273366 7.729127 -0.00163431 7.729127 C -4.262572 7.729127 -7.721947 4.269752 -7.721947 -0.0052487 C -7.721947 -4.266187 -4.262572 -7.725562 -0.00163431 -7.725562 C 4.273366 -7.725562 7.732741 -4.266187 7.732741 -0.0052487 Z M 7.732741 -0.0052487 " stroke="#000000" stroke-width="3" stroke-opacity="1" stroke-miterlimit="10"/><path stroke-linecap="butt" transform="matrix(0.277778, 0, 0, 0.277778, 76.523891, 261.16469)" fill="none" stroke-linejoin="miter" d="M 7.732741 -0.00225918 C 7.732741 4.272741 4.273366 7.732116 -0.00163431 7.732116 C -4.262572 7.732116 -7.721947 4.272741 -7.721947 -0.00225918 C -7.721947 -4.263197 -4.262572 -7.722572 -0.00163431 -7.722572 C 4.273366 -7.722572 7.732741 -4.263197 7.732741 -0.00225918 Z M 7.732741 -0.00225918 " stroke="#000000" stroke-width="3" stroke-opacity="1" stroke-miterlimit="10"/><path stroke-linecap="butt" transform="matrix(0.277778, 0, 0, 0.277778, 76.523891, 271.409689)" fill="none" stroke-linejoin="miter" d="M 7.732741 0.00168074 C 7.732741 4.262619 4.273366 7.721994 -0.00163431 7.721994 C -4.262572 7.721994 -7.721947 4.262619 -7.721947 0.00168074 C -7.721947 -4.27332 -4.262572 -7.732695 -0.00163431 -7.732695 C 4.273366 -7.732695 7.732741 -4.27332 7.732741 0.00168074 Z M 7.732741 0.00168074 " stroke="#000000" stroke-width="3" stroke-opacity="1" stroke-miterlimit="10"/><path stroke-linecap="butt" transform="matrix(0.277778, 0, 0, 0.277778, 86.451385, 230.428871)" fill="none" stroke-linejoin="miter" d="M 7.726576 0.00293843 C 7.726576 4.263876 4.267201 7.723251 0.0062632 7.723251 C -4.268737 7.723251 -7.728112 4.263876 -7.728112 0.00293843 C -7.728112 -4.272062 -4.268737 -7.731437 0.0062632 -7.731437 C 4.267201 -7.731437 7.726576 -4.272062 7.726576 0.00293843 Z M 7.726576 0.00293843 " stroke="#000000" stroke-width="3" stroke-opacity="1" stroke-miterlimit="10"/><path stroke-linecap="butt" transform="matrix(0.277778, 0, 0, 0.277778, 86.451385, 240.674149)" fill="none" stroke-linejoin="miter" d="M 7.726576 0.00587612 C 7.726576 4.266814 4.267201 7.726189 0.0062632 7.726189 C -4.268737 7.726189 -7.728112 4.266814 -7.728112 0.00587612 C -7.728112 -4.269124 -4.268737 -7.728499 0.0062632 -7.728499 C 4.267201 -7.728499 7.726576 -4.269124 7.726576 0.00587612 Z M 7.726576 0.00587612 " stroke="#000000" stroke-width="3" stroke-opacity="1" stroke-miterlimit="10"/><path stroke-linecap="butt" transform="matrix(0.277778, 0, 0, 0.277778, 86.451385, 250.919427)" fill="none" stroke-linejoin="miter" d="M 7.726576 -0.0052487 C 7.726576 4.269752 4.267201 7.729127 0.0062632 7.729127 C -4.268737 7.729127 -7.728112 4.269752 -7.728112 -0.0052487 C -7.728112 -4.266187 -4.268737 -7.725562 0.0062632 -7.725562 C 4.267201 -7.725562 7.726576 -4.266187 7.726576 -0.0052487 Z M 7.726576 -0.0052487 " stroke="#000000" stroke-width="3" stroke-opacity="1" stroke-miterlimit="10"/><path stroke-linecap="butt" transform="matrix(0.277778, 0, 0, 0.277778, 86.451385, 261.16469)" fill="none" stroke-linejoin="miter" d="M 7.726576 -0.00225918 C 7.726576 4.272741 4.267201 7.732116 0.0062632 7.732116 C -4.268737 7.732116 -7.728112 4.272741 -7.728112 -0.00225918 C -7.728112 -4.263197 -4.268737 -7.722572 0.0062632 -7.722572 C 4.267201 -7.722572 7.726576 -4.263197 7.726576 -0.00225918 Z M 7.726576 -0.00225918 " stroke="#000000" stroke-width="3" stroke-opacity="1" stroke-miterlimit="10"/><path stroke-linecap="butt" transform="matrix(0.277778, 0, 0, 0.277778, 86.451385, 271.409689)" fill="none" stroke-linejoin="miter" d="M 7.726576 0.00168074 C 7.726576 4.262619 4.267201 7.721994 0.0062632 7.721994 C -4.268737 7.721994 -7.728112 4.262619 -7.728112 0.00168074 C -7.728112 -4.27332 -4.268737 -7.732695 0.0062632 -7.732695 C 4.267201 -7.732695 7.726576 -4.27332 7.726576 0.00168074 Z M 7.726576 0.00168074 " stroke="#000000" stroke-width="3" stroke-opacity="1" stroke-miterlimit="10"/><path fill="#7ed957" d="M 301.324219 142.683594 C 301.324219 142.683594 287.6875 166.300781 287.6875 166.300781 C 287.6875 166.300781 314.960938 166.300781 314.960938 166.300781 C 314.960938 166.300781 301.324219 142.683594 301.324219 142.683594 Z M 301.324219 142.683594 " fill-opacity="1" fill-rule="nonzero"/><path stroke-linecap="butt" transform="matrix(0.277778, 0, 0, 0.277778, 309.548598, 159.32416)" fill="none" stroke-linejoin="miter" d="M -0.00620198 -42.510729 C -0.00620198 -42.510729 -49.084331 42.511152 -49.084331 42.511152 C -49.084331 42.511152 49.085989 42.511152 49.085989 42.511152 C 49.085989 42.511152 -0.00620198 -42.510729 -0.00620198 -42.510729 Z M -0.00620198 -42.510729 " stroke="#000000" stroke-width="3" stroke-opacity="1" stroke-miterlimit="10"/><path fill="#7ed957" d="M 319.367188 238.089844 C 319.367188 243.503906 314.976562 247.894531 309.558594 247.894531 C 304.144531 247.894531 299.753906 243.503906 299.753906 238.089844 C 299.753906 232.671875 304.144531 228.28125 309.558594 228.28125 C 314.976562 228.28125 319.367188 232.671875 319.367188 238.089844 Z M 319.367188 238.089844 " fill-opacity="1" fill-rule="nonzero"/></svg>