
<svg xmlns="http://www.w3.org/2000/svg" xmlns:xlink="http://www.w3.org/1999/xlink" width="1000" zoomAndPan="magnify" viewBox="0 0 750 374.999991" height="500" preserveAspectRatio="xMidYMid meet" version="1.0"><defs><g/></defs><path fill="#ffffff" d="M 740.671875 87.152344 C 728.949219 74.132812 710.566406 67.542969 693.332031 66.546875 C 669.738281 63.484375 671.957031 78.804688 665.21875 95.960938 C 664.449219 96.269531 663.839844 96.957031 663.53125 97.800781 C 661.921875 105.15625 654.722656 115.496094 655.949219 122.542969 C 644.535156 150.273438 631.972656 177.851562 617.265625 204.046875 C 613.128906 211.324219 608.992188 218.753906 606.617188 226.796875 C 605.621094 227.488281 604.703125 228.714844 604.703125 229.941406 C 606.308594 250.085938 608.070312 270.386719 613.050781 289.996094 C 616.882812 296.507812 634.652344 284.097656 639.480469 281.414062 C 647.980469 275.902344 657.558594 271.917969 665.90625 266.25 C 677.167969 260.964844 678.929688 246.410156 684.902344 236.605469 C 698.84375 206.117188 714.394531 175.550781 726.269531 144.375 C 729.410156 139.242188 732.933594 133.652344 732.398438 127.371094 C 740.441406 116.261719 749.863281 100.097656 740.671875 87.152344 Z M 638.636719 174.480469 C 642.621094 166.207031 646.066406 157.78125 649.972656 149.429688 C 652.960938 141.847656 661.464844 130.355469 660.238281 122.46875 C 660.390625 122.3125 660.46875 122.160156 660.542969 121.929688 C 664.605469 123.691406 668.664062 125.300781 672.800781 126.832031 C 656.332031 163.296875 639.707031 199.683594 623.546875 236.296875 C 621.707031 231.472656 617.265625 228.023438 612.207031 227.027344 C 619.027344 208.644531 631.207031 192.710938 638.636719 174.480469 Z M 675.863281 128.058594 C 683.449219 130.96875 691.109375 133.726562 698.691406 136.5625 C 692.105469 154.640625 682.144531 171.1875 674.179688 188.652344 C 664.679688 207.035156 658.09375 226.875 648.058594 244.875 C 643.921875 237.0625 632.890625 234.382812 625.691406 239.589844 C 642.082031 202.285156 658.9375 165.132812 675.863281 128.058594 Z M 662.535156 262.265625 C 655.566406 266.402344 648.289062 270.078125 641.242188 274.0625 C 632.738281 268.777344 623.085938 265.101562 613.433594 262.648438 C 612.054688 252.535156 611.136719 242.347656 610.371094 232.085938 C 617.878906 232.925781 620.480469 240.816406 619.792969 247.40625 C 619.640625 250.007812 623.621094 251.160156 624.769531 248.785156 C 625.921875 246.332031 627.835938 244.109375 630.441406 243.039062 C 635.648438 240.816406 642.007812 243.652344 644.074219 248.859375 C 645.148438 250.773438 644.304688 253.6875 646.296875 255.066406 C 647.597656 255.832031 648.976562 255.21875 649.972656 254.300781 C 657.480469 247.632812 662.613281 254.222656 662.765625 262.265625 C 662.613281 262.1875 662.535156 262.265625 662.535156 262.265625 Z M 719.679688 147.898438 C 702.445312 184.746094 687.433594 223.046875 667.667969 258.589844 C 666.980469 249.703125 658.09375 242.425781 649.898438 247.863281 C 659.089844 233.617188 663.683594 216.765625 671.574219 201.828125 C 680.996094 180.226562 693.332031 159.847656 701.679688 137.789062 C 708.113281 140.160156 714.320312 143.074219 720.601562 145.675781 C 720.601562 145.675781 720.601562 145.675781 720.601562 145.753906 C 720.292969 146.441406 719.988281 147.210938 719.679688 147.898438 Z M 722.285156 140.773438 C 702.753906 131.507812 681.992188 125.453125 662.152344 116.875 C 662.6875 115.265625 663.300781 113.65625 663.914062 112.125 C 685.898438 114.195312 705.511719 126.601562 724.964844 136.101562 C 724.125 137.632812 723.203125 139.242188 722.285156 140.773438 Z M 726.882812 130.96875 C 707.347656 121.625 687.890625 109.367188 665.90625 106.839844 C 666.597656 105 667.363281 103.164062 667.976562 101.324219 C 675.789062 104.082031 682.527344 109.214844 690.574219 111.589844 C 698.539062 114.652344 706.660156 117.488281 714.550781 120.78125 C 718.761719 123.460938 729.101562 123.921875 726.882812 130.96875 Z M 670.734375 96.5 C 671.574219 94.199219 672.265625 91.824219 672.953125 89.453125 C 675.175781 83.78125 676.019531 76.199219 681.148438 72.371094 C 692.792969 70.605469 705.125 72.445312 716.082031 76.964844 C 741.359375 87.304688 745.648438 99.410156 729.714844 122.082031 C 710.871094 111.894531 689.5 106.839844 670.734375 96.5 Z M 605.46875 299.722656 C 596.351562 303.785156 586.777344 307.230469 578.121094 312.210938 C 560.503906 323.777344 535.914062 334.808594 545.183594 301.410156 C 536.144531 302.480469 528.789062 308.304688 520.515625 311.75 C 472.5625 329.140625 531.085938 277.664062 481.601562 297.503906 C 479.152344 298.269531 475.78125 301.179688 473.867188 298.191406 C 473.175781 296.964844 473.484375 294.972656 474.859375 294.363281 C 492.25 285.476562 517.375 280.957031 505.886719 309.527344 C 515.691406 312.515625 556.671875 280.421875 550.3125 304.78125 C 542.425781 330.136719 564.945312 313.128906 575.515625 307.382812 C 584.171875 302.480469 593.59375 299.035156 602.632812 295.050781 C 605.773438 293.058594 608.609375 297.960938 605.46875 299.722656 Z M 605.46875 299.722656 " fill-opacity="1" fill-rule="nonzero"/><g fill="#ffffff" fill-opacity="1"><g transform="translate(33.022387, 244.8092)"><g><path d="M 58.28125 -65.8125 C 57.863281 -69.6875 56.125 -72.703125 53.0625 -74.859375 C 50.007812 -77.015625 46.046875 -78.09375 41.171875 -78.09375 C 37.742188 -78.09375 34.800781 -77.578125 32.34375 -76.546875 C 29.894531 -75.515625 28.019531 -74.109375 26.71875 -72.328125 C 25.425781 -70.554688 24.765625 -68.535156 24.734375 -66.265625 C 24.734375 -64.367188 25.164062 -62.726562 26.03125 -61.34375 C 26.90625 -59.957031 28.097656 -58.78125 29.609375 -57.8125 C 31.117188 -56.851562 32.785156 -56.046875 34.609375 -55.390625 C 36.441406 -54.742188 38.289062 -54.203125 40.15625 -53.765625 L 48.671875 -51.640625 C 52.097656 -50.835938 55.398438 -49.753906 58.578125 -48.390625 C 61.753906 -47.035156 64.601562 -45.320312 67.125 -43.25 C 69.65625 -41.1875 71.65625 -38.691406 73.125 -35.765625 C 74.601562 -32.835938 75.34375 -29.410156 75.34375 -25.484375 C 75.34375 -20.160156 73.984375 -15.484375 71.265625 -11.453125 C 68.546875 -7.421875 64.625 -4.273438 59.5 -2.015625 C 54.375 0.242188 48.175781 1.375 40.90625 1.375 C 33.84375 1.375 27.71875 0.28125 22.53125 -1.90625 C 17.351562 -4.09375 13.304688 -7.28125 10.390625 -11.46875 C 7.484375 -15.664062 5.910156 -20.78125 5.671875 -26.8125 L 21.84375 -26.8125 C 22.082031 -23.65625 23.054688 -21.023438 24.765625 -18.921875 C 26.484375 -16.828125 28.722656 -15.257812 31.484375 -14.21875 C 34.253906 -13.1875 37.351562 -12.671875 40.78125 -12.671875 C 44.351562 -12.671875 47.488281 -13.207031 50.1875 -14.28125 C 52.894531 -15.363281 55.015625 -16.875 56.546875 -18.8125 C 58.085938 -20.75 58.875 -23.019531 58.90625 -25.625 C 58.875 -27.988281 58.175781 -29.941406 56.8125 -31.484375 C 55.457031 -33.035156 53.5625 -34.335938 51.125 -35.390625 C 48.6875 -36.441406 45.84375 -37.378906 42.59375 -38.203125 L 32.265625 -40.859375 C 24.785156 -42.785156 18.878906 -45.703125 14.546875 -49.609375 C 10.222656 -53.523438 8.0625 -58.738281 8.0625 -65.25 C 8.0625 -70.59375 9.515625 -75.273438 12.421875 -79.296875 C 15.335938 -83.316406 19.304688 -86.441406 24.328125 -88.671875 C 29.359375 -90.898438 35.046875 -92.015625 41.390625 -92.015625 C 47.835938 -92.015625 53.488281 -90.898438 58.34375 -88.671875 C 63.207031 -86.441406 67.023438 -83.351562 69.796875 -79.40625 C 72.578125 -75.457031 74.015625 -70.925781 74.109375 -65.8125 Z M 58.28125 -65.8125 "/></g></g></g><g fill="#ffffff" fill-opacity="1"><g transform="translate(109.284895, 244.8092)"><g><path d="M 42.234375 -68.078125 L 42.234375 -55.671875 L 3.109375 -55.671875 L 3.109375 -68.078125 Z M 12.765625 -84.390625 L 28.8125 -84.390625 L 28.8125 -20.484375 C 28.8125 -18.316406 29.140625 -16.664062 29.796875 -15.53125 C 30.460938 -14.394531 31.34375 -13.617188 32.4375 -13.203125 C 33.53125 -12.796875 34.742188 -12.59375 36.078125 -12.59375 C 37.078125 -12.59375 38 -12.664062 38.84375 -12.8125 C 39.6875 -12.957031 40.332031 -13.085938 40.78125 -13.203125 L 43.484375 -0.671875 C 42.617188 -0.367188 41.394531 -0.0390625 39.8125 0.3125 C 38.238281 0.664062 36.316406 0.875 34.046875 0.9375 C 30.023438 1.050781 26.398438 0.4375 23.171875 -0.90625 C 19.953125 -2.25 17.40625 -4.335938 15.53125 -7.171875 C 13.65625 -10.015625 12.734375 -13.5625 12.765625 -17.8125 Z M 12.765625 -84.390625 "/></g></g></g><g fill="#ffffff" fill-opacity="1"><g transform="translate(151.957546, 244.8092)"><g><path d="M 51.640625 -28.625 L 51.640625 -68.078125 L 67.6875 -68.078125 L 67.6875 0 L 52.125 0 L 52.125 -12.09375 L 51.421875 -12.09375 C 49.878906 -8.28125 47.359375 -5.160156 43.859375 -2.734375 C 40.359375 -0.316406 36.050781 0.890625 30.9375 0.890625 C 26.476562 0.890625 22.539062 -0.101562 19.125 -2.09375 C 15.707031 -4.09375 13.039062 -7.003906 11.125 -10.828125 C 9.207031 -14.660156 8.25 -19.296875 8.25 -24.734375 L 8.25 -68.078125 L 24.28125 -68.078125 L 24.28125 -27.21875 C 24.28125 -22.90625 25.460938 -19.476562 27.828125 -16.9375 C 30.191406 -14.394531 33.296875 -13.125 37.140625 -13.125 C 39.503906 -13.125 41.796875 -13.695312 44.015625 -14.84375 C 46.234375 -16 48.054688 -17.722656 49.484375 -20.015625 C 50.921875 -22.304688 51.640625 -25.175781 51.640625 -28.625 Z M 51.640625 -28.625 "/></g></g></g><g fill="#ffffff" fill-opacity="1"><g transform="translate(223.123981, 244.8092)"><g><path d="M 33.515625 1.203125 C 28.160156 1.203125 23.367188 -0.171875 19.140625 -2.921875 C 14.921875 -5.671875 11.582031 -9.660156 9.125 -14.890625 C 6.675781 -20.117188 5.453125 -26.472656 5.453125 -33.953125 C 5.453125 -41.515625 6.695312 -47.898438 9.1875 -53.109375 C 11.6875 -58.328125 15.0625 -62.273438 19.3125 -64.953125 C 23.570312 -67.628906 28.316406 -68.96875 33.546875 -68.96875 C 37.535156 -68.96875 40.816406 -68.296875 43.390625 -66.953125 C 45.960938 -65.609375 48 -63.992188 49.5 -62.109375 C 51.007812 -60.234375 52.179688 -58.472656 53.015625 -56.828125 L 53.671875 -56.828125 L 53.671875 -90.765625 L 69.765625 -90.765625 L 69.765625 0 L 53.984375 0 L 53.984375 -10.71875 L 53.015625 -10.71875 C 52.179688 -9.070312 50.984375 -7.320312 49.421875 -5.46875 C 47.859375 -3.625 45.789062 -2.050781 43.21875 -0.75 C 40.644531 0.550781 37.410156 1.203125 33.515625 1.203125 Z M 37.984375 -11.96875 C 41.378906 -11.96875 44.273438 -12.890625 46.671875 -14.734375 C 49.066406 -16.578125 50.882812 -19.15625 52.125 -22.46875 C 53.363281 -25.78125 53.984375 -29.640625 53.984375 -34.046875 C 53.984375 -38.441406 53.367188 -42.265625 52.140625 -45.515625 C 50.921875 -48.765625 49.117188 -51.289062 46.734375 -53.09375 C 44.359375 -54.894531 41.441406 -55.796875 37.984375 -55.796875 C 34.410156 -55.796875 31.425781 -54.863281 29.03125 -53 C 26.632812 -51.144531 24.832031 -48.578125 23.625 -45.296875 C 22.414062 -42.015625 21.8125 -38.265625 21.8125 -34.046875 C 21.8125 -29.785156 22.421875 -25.992188 23.640625 -22.671875 C 24.867188 -19.347656 26.6875 -16.734375 29.09375 -14.828125 C 31.5 -12.921875 34.460938 -11.96875 37.984375 -11.96875 Z M 37.984375 -11.96875 "/></g></g></g><g fill="#ffffff" fill-opacity="1"><g transform="translate(297.037861, 244.8092)"><g><path d="M 8.25 0 L 8.25 -68.078125 L 24.28125 -68.078125 L 24.28125 0 Z M 16.3125 -77.734375 C 13.769531 -77.734375 11.582031 -78.582031 9.75 -80.28125 C 7.914062 -81.988281 7 -84.035156 7 -86.421875 C 7 -88.847656 7.914062 -90.910156 9.75 -92.609375 C 11.582031 -94.304688 13.769531 -95.15625 16.3125 -95.15625 C 18.882812 -95.15625 21.078125 -94.304688 22.890625 -92.609375 C 24.710938 -90.910156 25.625 -88.847656 25.625 -86.421875 C 25.625 -84.035156 24.710938 -81.988281 22.890625 -80.28125 C 21.078125 -78.582031 18.882812 -77.734375 16.3125 -77.734375 Z M 16.3125 -77.734375 "/></g></g></g><g fill="#03fa6e" fill-opacity="1"><g transform="translate(324.847416, 244.8092)"><g><path d="M 66.171875 -90.765625 L 82.625 -90.765625 L 82.625 -31.46875 C 82.625 -24.96875 81.09375 -19.25 78.03125 -14.3125 C 74.96875 -9.382812 70.671875 -5.535156 65.140625 -2.765625 C 59.617188 -0.00390625 53.164062 1.375 45.78125 1.375 C 38.363281 1.375 31.890625 -0.00390625 26.359375 -2.765625 C 20.835938 -5.535156 16.554688 -9.382812 13.515625 -14.3125 C 10.472656 -19.25 8.953125 -24.96875 8.953125 -31.46875 L 8.953125 -90.765625 L 25.390625 -90.765625 L 25.390625 -32.84375 C 25.390625 -29.0625 26.222656 -25.691406 27.890625 -22.734375 C 29.566406 -19.785156 31.925781 -17.472656 34.96875 -15.796875 C 38.007812 -14.128906 41.613281 -13.296875 45.78125 -13.296875 C 49.945312 -13.296875 53.554688 -14.128906 56.609375 -15.796875 C 59.671875 -17.472656 62.03125 -19.785156 63.6875 -22.734375 C 65.34375 -25.691406 66.171875 -29.0625 66.171875 -32.84375 Z M 66.171875 -90.765625 "/></g></g></g><g fill="#03fa6e" fill-opacity="1"><g transform="translate(411.656624, 244.8092)"><g><path d="M 58.28125 -65.8125 C 57.863281 -69.6875 56.125 -72.703125 53.0625 -74.859375 C 50.007812 -77.015625 46.046875 -78.09375 41.171875 -78.09375 C 37.742188 -78.09375 34.800781 -77.578125 32.34375 -76.546875 C 29.894531 -75.515625 28.019531 -74.109375 26.71875 -72.328125 C 25.425781 -70.554688 24.765625 -68.535156 24.734375 -66.265625 C 24.734375 -64.367188 25.164062 -62.726562 26.03125 -61.34375 C 26.90625 -59.957031 28.097656 -58.78125 29.609375 -57.8125 C 31.117188 -56.851562 32.785156 -56.046875 34.609375 -55.390625 C 36.441406 -54.742188 38.289062 -54.203125 40.15625 -53.765625 L 48.671875 -51.640625 C 52.097656 -50.835938 55.398438 -49.753906 58.578125 -48.390625 C 61.753906 -47.035156 64.601562 -45.320312 67.125 -43.25 C 69.65625 -41.1875 71.65625 -38.691406 73.125 -35.765625 C 74.601562 -32.835938 75.34375 -29.410156 75.34375 -25.484375 C 75.34375 -20.160156 73.984375 -15.484375 71.265625 -11.453125 C 68.546875 -7.421875 64.625 -4.273438 59.5 -2.015625 C 54.375 0.242188 48.175781 1.375 40.90625 1.375 C 33.84375 1.375 27.71875 0.28125 22.53125 -1.90625 C 17.351562 -4.09375 13.304688 -7.28125 10.390625 -11.46875 C 7.484375 -15.664062 5.910156 -20.78125 5.671875 -26.8125 L 21.84375 -26.8125 C 22.082031 -23.65625 23.054688 -21.023438 24.765625 -18.921875 C 26.484375 -16.828125 28.722656 -15.257812 31.484375 -14.21875 C 34.253906 -13.1875 37.351562 -12.671875 40.78125 -12.671875 C 44.351562 -12.671875 47.488281 -13.207031 50.1875 -14.28125 C 52.894531 -15.363281 55.015625 -16.875 56.546875 -18.8125 C 58.085938 -20.75 58.875 -23.019531 58.90625 -25.625 C 58.875 -27.988281 58.175781 -29.941406 56.8125 -31.484375 C 55.457031 -33.035156 53.5625 -34.335938 51.125 -35.390625 C 48.6875 -36.441406 45.84375 -37.378906 42.59375 -38.203125 L 32.265625 -40.859375 C 24.785156 -42.785156 18.878906 -45.703125 14.546875 -49.609375 C 10.222656 -53.523438 8.0625 -58.738281 8.0625 -65.25 C 8.0625 -70.59375 9.515625 -75.273438 12.421875 -79.296875 C 15.335938 -83.316406 19.304688 -86.441406 24.328125 -88.671875 C 29.359375 -90.898438 35.046875 -92.015625 41.390625 -92.015625 C 47.835938 -92.015625 53.488281 -90.898438 58.34375 -88.671875 C 63.207031 -86.441406 67.023438 -83.351562 69.796875 -79.40625 C 72.578125 -75.457031 74.015625 -70.925781 74.109375 -65.8125 Z M 58.28125 -65.8125 "/></g></g></g></svg>